<svg xmlns="http://www.w3.org/2000/svg" width="85" height="37" viewBox="0 0 85 37" fill="none">
<path d="M74.1785 14.1953C74.1785 11.9691 72.3896 10.1357 70.2081 10.1357C68.0701 10.1357 66.2812 12.0128 66.2812 14.1953L66.3249 31.9616C66.3249 34.1441 68.1574 36.0212 70.2953 36.0212C72.4332 36.0212 74.2221 34.1441 74.2221 31.9616L74.1785 14.1953Z" fill="white"/>
<path d="M62.5729 0.969146C60.5222 0.227068 58.297 1.23106 57.5116 3.28268L51.0542 20.787L48 13.017C47.4765 11.4892 45.8185 10.2233 44.1605 10.2233C42.5462 10.2233 40.9754 11.4892 40.4082 13.017L37.2668 20.787L33.9944 14.1519L33.1218 12.4932C32.1619 10.5725 29.8058 9.78678 27.9297 10.7471C26.2281 11.6201 25.4427 13.8027 26.1408 15.5924C26.1845 15.7234 26.2281 15.8107 26.3154 15.9417L26.7953 16.8147C26.7953 16.8583 26.8389 16.902 26.8389 16.902C26.8389 16.902 26.9262 17.0329 27.0135 17.2076C27.0135 17.2512 27.0571 17.2949 27.0571 17.2949C27.2752 17.6877 27.6679 18.4298 27.7988 18.9536C28.017 19.6957 28.2788 20.1759 27.8861 21.4854C26.708 25.4577 22.9558 28.2078 18.8981 28.5133C13.1387 28.9498 8.07753 24.8466 7.55395 19.0846C7.24853 15.8544 8.47021 12.8424 10.6081 10.7035C11.4371 9.91773 12.3534 9.21931 13.4005 8.73914C13.4442 8.73914 13.4878 8.69548 13.5314 8.69548C13.5751 8.65183 13.6187 8.65183 13.6623 8.60818C15.1894 7.95341 16.8474 7.64784 18.549 7.7788C20.5997 7.90975 22.3886 6.38195 22.5194 4.33032C22.6503 2.2787 21.1232 0.488977 19.0726 0.358022C14.3168 0.0088093 9.73551 1.53662 6.15775 4.67953C2.53637 7.82245 0.398439 12.144 0.0493896 16.902C-0.517816 24.4537 3.8453 31.5689 10.8263 34.5372H10.8699C10.9136 34.5372 11.0008 34.5809 11.0444 34.6246C11.1317 34.6682 11.219 34.7119 11.3499 34.7555L11.4808 34.8428H11.5244C13.6187 35.6722 15.8002 36.0651 17.9382 36.0651C18.2 36.0651 18.4617 36.0651 18.7235 36.0651L19.8143 35.9777C24.1338 35.5412 28.1042 33.5769 31.1148 30.3903C31.3766 30.0848 31.6384 29.7792 31.9001 29.43L33.5581 33.3587C34.0817 34.8865 35.5652 35.9341 37.2231 35.9341C38.8375 35.9341 40.321 34.8865 40.8882 33.3587L44.1605 24.672L47.4328 33.3587C47.9564 34.8865 49.4399 35.9341 51.0979 35.9341C52.7122 35.9341 54.152 34.8865 54.7629 33.3587L64.8853 6.03273C65.627 4.02476 64.6235 1.71122 62.5729 0.969146Z" fill="white"/>
<path d="M81.1608 28.208C79.0229 28.208 77.3213 29.9104 77.3213 32.0494C77.3213 34.1883 79.0229 35.8907 81.1608 35.8907C83.2988 35.8907 85.0004 34.1883 85.0004 32.0494C85.0004 29.9104 83.2988 28.208 81.1608 28.208Z" fill="white"/>
</svg>