<svg xmlns="http://www.w3.org/2000/svg" width="140.486" height="31.532" viewBox="0 0 140.486 31.532">
  <path id="Caminho_2104" data-name="Caminho 2104" d="M-7837.77-4378.487a4.316,4.316,0,0,1-4.484-4.658,4.27,4.27,0,0,1,4.484-4.554,4.244,4.244,0,0,1,4.451,4.554c0,2.852-1.772,4.658-4.451,4.658m-60.789-5.572c-.55,0-1.134-.036-1.787-.07a4.079,4.079,0,0,1,4.225-3.847c1.615,0,2.644.653,2.644,1.821,0,1.442-1.512,2.1-5.083,2.1m-16.766,5.562c-2.748,0-3.951-1.819-3.951-4.362,0-2.61,1.2-4.739,3.951-4.739,2.611,0,4.018,2.094,4.018,4.5,0,2.783-1.443,4.6-4.018,4.6m98.555-4.961,5.32-7.822v-.173h-5.25l-3.094,4.866-1.164-1.871a11.851,11.851,0,0,0-.81-1.294c-2.24-2.715-7.193-2.752-9.983-.181a9.948,9.948,0,0,0-6.054-1.868c-4.126,0-7.3,2.012-8.59,5.256-.009.023-.02.045-.03.067a18.605,18.605,0,0,1-2.216,3.972c.022-.308.038-.623.038-.952,0-5.84-3.546-8.344-7.649-8.344a8.41,8.41,0,0,0-2.714.426v3.975a4.569,4.569,0,0,1,1.706-.3c2.4,0,3.9,1.6,3.9,4.415,0,3.3-1.948,4.833-4.8,4.833a11.454,11.454,0,0,1-3.1-.382v-20.2h-4.866v20.327l-1.55.209c-1.305.172-1.923-.171-1.923-1.752v-4.362c0-4.224-2.576-7.042-6.458-7.042a7.037,7.037,0,0,0-5.6,2.646c-.857-3.081-5.2-2.712-8.853-.987-.071-.061-.161-.135-.274-.224a8.711,8.711,0,0,0-5.236-1.435c-4.244,0-8.519,2.349-9.048,7.522h-1.583c-.357-4.034-2.78-7.522-7.645-7.522a6.652,6.652,0,0,0-5.564,2.611c-.79-2.611-5.417-3.635-7.742-1.71-1.692,1.4-2.894,4.486-4.175,6.916-1.431,2.711-3.66,4.549-7,4.549-4.329,0-7.248-2.988-7.248-7.488,0-3.522,1.817-6.133,4.667-7.1,2.124,3.6,6.7,4.193,10.309,2.691l-.955-3.722c-4.064.932-5.5-.7-6.038-2.458a16.758,16.758,0,0,1-.365-1.77c-.123,0-.248,0-.37,0-7.283,0-12.5,5.118-12.5,12.365s5.153,12.24,12.5,12.366c11.417-.36,10.986-12.7,13.724-12.813,1.033-.043,1.068.647,1.068,1.855v17.758h4.808v-8.449a6.3,6.3,0,0,0,4.638,1.648c4.422,0,7.071-2.874,7.754-6.639l.517-.009,1.321-.017c.819,4.274,4.375,6.665,9.062,6.665a14.375,14.375,0,0,0,6.628-1.442l-.893-3.47a12.1,12.1,0,0,1-5.151.961c-2.165,0-4.018-.721-4.775-2.678.653.034,1.271.034,1.855.034,5.942,0,9.343-1.408,9.343-5.358a5.4,5.4,0,0,0-.066-.806,6.307,6.307,0,0,1,1.833-.226c.933.056,1.329.522,1.329,1.787v10.855h4.808v-8.9c.036-2.3,1.409-3.95,3.47-3.95,1.923,0,3.091,1.27,3.091,3.366v4.224c0,4.671,2.4,5.978,6.732,5.256l2.61-.547a21.1,21.1,0,0,0,5.442.934h.011l.109,0c.215.006.431.011.643.011a16.512,16.512,0,0,0,1.957-.114,14.47,14.47,0,0,0,10.4-5.534c1.208,3.454,4.453,5.648,8.7,5.648,5.423,0,9.282-3.615,9.282-8.8a8.8,8.8,0,0,0-1.036-4.257,3.9,3.9,0,0,1,4.98,1.563c.132.205.3.459.4.606l1.218,1.844-5.807,8.483v.209h5.389l3.513-5.458,3.649,5.458h5.423v-.209Z" transform="translate(7951.276 4399.14)" fill="#fff"/>
</svg>