<svg  fill="rgb(20, 20, 20)" viewBox="0 0 128 128"><g><path d="M86.443,38.235h-7.768c-1.697,0-3.081,1.384-3.081,3.081v7.367c0,1.697,1.384,3.081,3.081,3.081h7.768 c1.697,0,3.081-1.384,3.081-3.081v-7.367C89.524,39.619,88.141,38.235,86.443,38.235z"></path><path d="M63.049,78.104c7.635,0,13.796-5.983,13.796-13.349c0-7.367-6.161-13.35-13.796-13.35 c-7.59,0-13.751,5.982-13.751,13.35C49.298,72.121,55.459,78.104,63.049,78.104z"></path><path d="M84.39,65.469c0,11.43-9.554,20.672-21.341,20.672c-11.742,0-21.297-9.242-21.297-20.672 c0-2.008,0.313-4.017,0.893-5.848H36.35v28.931c0,1.518,1.206,2.724,2.724,2.724h47.728c1.519,0,2.724-1.206,2.724-2.724V59.621 h-6.027C84.077,61.452,84.39,63.46,84.39,65.469z"></path><path d="M64,0C28.654,0,0,28.654,0,64c0,35.346,28.654,64,64,64s64-28.654,64-64C128,28.654,99.346,0,64,0z M97.293,90.382c0,4.822-3.974,8.796-8.796,8.796H37.511c-4.822,0-8.796-3.974-8.796-8.796V39.396c0-4.822,3.974-8.795,8.796-8.795 h50.986c4.822,0,8.796,3.974,8.796,8.795V90.382z"></path></g></svg>