<svg width="73" height="10" viewBox="0 0 73 10" fill="none" xmlns="http://www.w3.org/2000/svg">
<path d="M8.58239 3.43466H6.4517C6.4233 3.21591 6.36506 3.01847 6.27699 2.84233C6.18892 2.66619 6.07244 2.51562 5.92756 2.39062C5.78267 2.26562 5.6108 2.17045 5.41193 2.10511C5.21591 2.03693 4.99858 2.00284 4.75994 2.00284C4.33665 2.00284 3.97159 2.10653 3.66477 2.31392C3.3608 2.52131 3.12642 2.82102 2.96165 3.21307C2.79972 3.60511 2.71875 4.07955 2.71875 4.63636C2.71875 5.21591 2.80114 5.7017 2.96591 6.09375C3.13352 6.48295 3.3679 6.77699 3.66903 6.97585C3.97301 7.17187 4.33239 7.26989 4.74716 7.26989C4.98011 7.26989 5.19176 7.24006 5.3821 7.1804C5.57528 7.12074 5.74432 7.03409 5.8892 6.92045C6.03693 6.80398 6.15767 6.66335 6.25142 6.49858C6.34801 6.33097 6.41477 6.14205 6.4517 5.93182L8.58239 5.9446C8.54545 6.33097 8.43324 6.71165 8.24574 7.08665C8.06108 7.46165 7.80682 7.80398 7.48295 8.11364C7.15909 8.42045 6.7642 8.66477 6.2983 8.84659C5.83523 9.02841 5.30398 9.11932 4.70455 9.11932C3.91477 9.11932 3.20739 8.94602 2.58239 8.59943C1.96023 8.25 1.46875 7.74148 1.10795 7.07386C0.747159 6.40625 0.566761 5.59375 0.566761 4.63636C0.566761 3.67614 0.75 2.86222 1.11648 2.1946C1.48295 1.52699 1.97869 1.01989 2.60369 0.673295C3.22869 0.326704 3.92898 0.153409 4.70455 0.153409C5.23295 0.153409 5.72159 0.227273 6.17045 0.375C6.61932 0.519886 7.0142 0.732954 7.35511 1.0142C7.69602 1.29261 7.97301 1.63494 8.18608 2.04119C8.39915 2.44744 8.53125 2.91193 8.58239 3.43466ZM12.8491 9.12358C12.1644 9.12358 11.5735 8.98864 11.0763 8.71875C10.582 8.44602 10.2013 8.05824 9.9343 7.5554C9.6701 7.04972 9.538 6.44886 9.538 5.75284C9.538 5.0767 9.67152 4.4858 9.93857 3.98011C10.2056 3.47159 10.582 3.0767 11.0678 2.79545C11.5536 2.51136 12.1261 2.36932 12.7852 2.36932C13.2511 2.36932 13.6772 2.44176 14.0636 2.58665C14.4499 2.73153 14.7837 2.94602 15.065 3.23011C15.3462 3.5142 15.565 3.86506 15.7212 4.28267C15.8775 4.69744 15.9556 5.1733 15.9556 5.71023V6.23011H10.2667V5.01989H14.0167C14.0138 4.7983 13.9613 4.60085 13.859 4.42756C13.7567 4.25426 13.6161 4.11932 13.4371 4.02273C13.261 3.9233 13.0579 3.87358 12.8278 3.87358C12.5948 3.87358 12.386 3.92614 12.2013 4.03125C12.0167 4.13352 11.8704 4.27415 11.7624 4.45312C11.6545 4.62926 11.5977 4.82955 11.592 5.05398V6.28551C11.592 6.55256 11.6445 6.78693 11.7496 6.98864C11.8548 7.1875 12.0039 7.34233 12.1971 7.45312C12.3903 7.56392 12.6204 7.61932 12.8874 7.61932C13.0721 7.61932 13.2397 7.59375 13.3903 7.54261C13.5408 7.49148 13.6701 7.41619 13.7781 7.31676C13.886 7.21733 13.967 7.09517 14.021 6.95028L15.9343 7.00568C15.8548 7.43466 15.68 7.80824 15.4102 8.12642C15.1431 8.44176 14.7923 8.6875 14.3576 8.86364C13.9229 9.03693 13.4201 9.12358 12.8491 9.12358ZM19.1037 5.26705V9H17.0199V2.45455H19.0014V3.65625H19.0739C19.2188 3.25568 19.4659 2.94176 19.8153 2.71449C20.1648 2.48438 20.581 2.36932 21.0639 2.36932C21.5241 2.36932 21.9233 2.47301 22.2614 2.6804C22.6023 2.88494 22.8665 3.17187 23.054 3.54119C23.2443 3.90767 23.3381 4.33665 23.3352 4.82812V9H21.2514V5.23722C21.2543 4.87358 21.1619 4.58949 20.9744 4.38494C20.7898 4.1804 20.5327 4.07812 20.2031 4.07812C19.9844 4.07812 19.7912 4.12642 19.6236 4.22301C19.4588 4.31676 19.331 4.4517 19.2401 4.62784C19.152 4.80398 19.1065 5.01705 19.1037 5.26705ZM30.3398 4.45312L28.4265 4.50426C28.4066 4.3679 28.3526 4.24716 28.2646 4.14205C28.1765 4.03409 28.0614 3.95028 27.9194 3.89062C27.7802 3.82812 27.6183 3.79688 27.4336 3.79688C27.1921 3.79688 26.9862 3.84517 26.8157 3.94176C26.6481 4.03835 26.5657 4.16903 26.5685 4.33381C26.5657 4.46165 26.6168 4.57244 26.7219 4.66619C26.8299 4.75994 27.0217 4.83523 27.2972 4.89205L28.5586 5.13068C29.212 5.25568 29.6978 5.46307 30.016 5.75284C30.337 6.04261 30.4989 6.42614 30.5018 6.90341C30.4989 7.35227 30.3654 7.7429 30.1012 8.07528C29.8398 8.40767 29.4819 8.66619 29.0273 8.85085C28.5728 9.03267 28.0529 9.12358 27.4677 9.12358C26.533 9.12358 25.7958 8.93182 25.256 8.5483C24.7191 8.16193 24.4123 7.64489 24.3356 6.99716L26.3938 6.94602C26.4393 7.18466 26.5572 7.36648 26.7475 7.49148C26.9379 7.61648 27.1808 7.67898 27.4762 7.67898C27.7433 7.67898 27.9606 7.62926 28.1282 7.52983C28.2958 7.4304 28.381 7.2983 28.3839 7.13352C28.381 6.9858 28.3157 6.8679 28.1879 6.77983C28.06 6.68892 27.8597 6.6179 27.587 6.56676L26.445 6.34943C25.7887 6.23011 25.3001 6.00994 24.979 5.68892C24.658 5.36506 24.4989 4.95312 24.5018 4.45312C24.4989 4.01562 24.6154 3.64205 24.8512 3.33239C25.087 3.01989 25.4222 2.78125 25.8569 2.61648C26.2915 2.4517 26.8043 2.36932 27.3952 2.36932C28.2816 2.36932 28.9805 2.5554 29.4918 2.92756C30.0032 3.29687 30.2859 3.8054 30.3398 4.45312ZM35.7507 6.17472V2.45455H37.8303V9H35.8445V7.78125H35.7763C35.6314 8.18182 35.3842 8.5 35.0348 8.7358C34.6882 8.96875 34.2692 9.08523 33.7777 9.08523C33.3317 9.08523 32.9396 8.98295 32.6016 8.77841C32.2635 8.57386 32.0007 8.28835 31.8132 7.92188C31.6257 7.55256 31.5305 7.12074 31.5277 6.62642V2.45455H33.6115V6.21733C33.6143 6.57244 33.7081 6.85227 33.8928 7.05682C34.0774 7.26136 34.3288 7.36364 34.647 7.36364C34.8544 7.36364 35.0405 7.31818 35.2053 7.22727C35.3729 7.13352 35.505 6.99858 35.6016 6.82244C35.701 6.64347 35.7507 6.42756 35.7507 6.17472ZM39.1566 9V2.45455H41.1808V3.64773H41.2489C41.3683 3.21591 41.5629 2.89489 41.8327 2.68466C42.1026 2.47159 42.4165 2.36506 42.7745 2.36506C42.8711 2.36506 42.9705 2.37216 43.0728 2.38636C43.1751 2.39773 43.2702 2.41619 43.3583 2.44176V4.25284C43.2589 4.21875 43.1282 4.19176 42.9663 4.17188C42.8072 4.15199 42.6651 4.14205 42.5401 4.14205C42.293 4.14205 42.07 4.19744 41.8711 4.30824C41.6751 4.41619 41.5202 4.56818 41.4066 4.7642C41.2958 4.95739 41.2404 5.18466 41.2404 5.44602V9H39.1566ZM45.8065 9.1108C45.3888 9.1108 45.0181 9.04119 44.6942 8.90199C44.3732 8.75994 44.119 8.54687 43.9315 8.26278C43.7468 7.97585 43.6545 7.61648 43.6545 7.18466C43.6545 6.82102 43.7184 6.5142 43.8462 6.2642C43.9741 6.0142 44.1502 5.81108 44.3746 5.65483C44.5991 5.49858 44.8576 5.38068 45.1502 5.30114C45.4428 5.21875 45.7553 5.16335 46.0877 5.13494C46.4599 5.10085 46.7596 5.06534 46.9869 5.02841C47.2141 4.98864 47.3789 4.93324 47.4812 4.86222C47.5863 4.78835 47.6388 4.68466 47.6388 4.55114V4.52983C47.6388 4.31108 47.5636 4.14205 47.413 4.02273C47.2624 3.90341 47.0593 3.84375 46.8036 3.84375C46.5281 3.84375 46.3065 3.90341 46.1388 4.02273C45.9712 4.14205 45.8647 4.30682 45.8192 4.51705L43.8974 4.44886C43.9542 4.05114 44.1005 3.69602 44.3363 3.38352C44.5749 3.06818 44.9016 2.82102 45.3164 2.64205C45.734 2.46023 46.2354 2.36932 46.8207 2.36932C47.2383 2.36932 47.6232 2.41903 47.9755 2.51847C48.3278 2.61506 48.6346 2.7571 48.896 2.9446C49.1573 3.12926 49.359 3.35653 49.5011 3.62642C49.646 3.89631 49.7184 4.20455 49.7184 4.55114V9H47.7582V8.08807H47.707C47.5906 8.30966 47.4414 8.49716 47.2596 8.65057C47.0806 8.80398 46.869 8.91903 46.6246 8.99574C46.3832 9.07244 46.1104 9.1108 45.8065 9.1108ZM46.4499 7.74716C46.6744 7.74716 46.8761 7.7017 47.055 7.6108C47.2369 7.51989 47.3817 7.39489 47.4897 7.2358C47.5977 7.07386 47.6516 6.88636 47.6516 6.6733V6.05114C47.592 6.08239 47.5195 6.1108 47.4343 6.13636C47.3519 6.16193 47.261 6.18608 47.1616 6.20881C47.0621 6.23153 46.9599 6.25142 46.8548 6.26847C46.7496 6.28551 46.6488 6.30114 46.5522 6.31534C46.3562 6.34659 46.1886 6.39489 46.0494 6.46023C45.913 6.52557 45.8079 6.6108 45.734 6.71591C45.663 6.81818 45.6275 6.94034 45.6275 7.08239C45.6275 7.2983 45.7042 7.46307 45.8576 7.5767C46.0138 7.69034 46.2113 7.74716 46.4499 7.74716ZM53.3832 9.09375C52.9002 9.09375 52.4613 8.96875 52.0664 8.71875C51.6715 8.46875 51.3562 8.09375 51.1204 7.59375C50.8846 7.09375 50.7667 6.47301 50.7667 5.73153C50.7667 4.96165 50.8888 4.32812 51.1332 3.83097C51.3775 3.33381 51.6971 2.96591 52.092 2.72727C52.4897 2.48864 52.9173 2.36932 53.3746 2.36932C53.7184 2.36932 54.0124 2.42898 54.2567 2.5483C54.5011 2.66477 54.7028 2.81534 54.8619 3C55.021 3.18466 55.1417 3.37642 55.2241 3.57528H55.2667V0.272727H57.3505V9H55.288V7.93892H55.2241C55.136 8.14062 55.011 8.32955 54.8491 8.50568C54.6871 8.68182 54.484 8.82386 54.2397 8.93182C53.9982 9.03977 53.7127 9.09375 53.3832 9.09375ZM54.1076 7.47017C54.3604 7.47017 54.5763 7.39915 54.7553 7.2571C54.9343 7.11222 55.0721 6.90909 55.1687 6.64773C55.2653 6.38636 55.3136 6.07955 55.3136 5.72727C55.3136 5.36932 55.2653 5.06108 55.1687 4.80256C55.0749 4.54403 54.9371 4.34517 54.7553 4.20597C54.5763 4.06676 54.3604 3.99716 54.1076 3.99716C53.8491 3.99716 53.6303 4.06818 53.4513 4.21023C53.2724 4.35227 53.136 4.55256 53.0423 4.81108C52.9513 5.0696 52.9059 5.375 52.9059 5.72727C52.9059 6.07955 52.9528 6.38636 53.0465 6.64773C53.1403 6.90909 53.2752 7.11222 53.4513 7.2571C53.6303 7.39915 53.8491 7.47017 54.1076 7.47017ZM60.7521 5.26705V9H58.6683V0.272727H60.6839V3.65625H60.7564C60.9041 3.25284 61.1456 2.9375 61.4808 2.71023C61.8189 2.48295 62.2322 2.36932 62.7209 2.36932C63.1811 2.36932 63.5817 2.47159 63.9226 2.67614C64.2635 2.87784 64.5277 3.16335 64.7152 3.53267C64.9055 3.90199 64.9993 4.33381 64.9964 4.82812V9H62.9126V5.23722C62.9155 4.87358 62.8246 4.58949 62.6399 4.38494C62.4553 4.1804 62.1953 4.07812 61.8601 4.07812C61.6413 4.07812 61.4482 4.12642 61.2805 4.22301C61.1158 4.31676 60.9865 4.4517 60.8928 4.62784C60.8018 4.80398 60.755 5.01705 60.7521 5.26705ZM69.3526 9.12358C68.6651 9.12358 68.0742 8.98295 67.5799 8.7017C67.0884 8.41761 66.7092 8.02273 66.4421 7.51705C66.1779 7.00852 66.0458 6.41903 66.0458 5.74858C66.0458 5.07528 66.1779 4.4858 66.4421 3.98011C66.7092 3.47159 67.0884 3.0767 67.5799 2.79545C68.0742 2.51136 68.6651 2.36932 69.3526 2.36932C70.0401 2.36932 70.6296 2.51136 71.1211 2.79545C71.6154 3.0767 71.9947 3.47159 72.2589 3.98011C72.5259 4.4858 72.6594 5.07528 72.6594 5.74858C72.6594 6.41903 72.5259 7.00852 72.2589 7.51705C71.9947 8.02273 71.6154 8.41761 71.1211 8.7017C70.6296 8.98295 70.0401 9.12358 69.3526 9.12358ZM69.3654 7.55114C69.6154 7.55114 69.8271 7.47443 70.0004 7.32102C70.1737 7.16761 70.3058 6.95455 70.3967 6.68182C70.4904 6.40909 70.5373 6.09375 70.5373 5.7358C70.5373 5.37216 70.4904 5.05398 70.3967 4.78125C70.3058 4.50852 70.1737 4.29545 70.0004 4.14205C69.8271 3.98864 69.6154 3.91193 69.3654 3.91193C69.1069 3.91193 68.8881 3.98864 68.7092 4.14205C68.533 4.29545 68.3981 4.50852 68.3043 4.78125C68.2134 5.05398 68.168 5.37216 68.168 5.7358C68.168 6.09375 68.2134 6.40909 68.3043 6.68182C68.3981 6.95455 68.533 7.16761 68.7092 7.32102C68.8881 7.47443 69.1069 7.55114 69.3654 7.55114Z" fill="url(#paint0_linear_9_6)"/>
<defs>
<linearGradient id="paint0_linear_9_6" x1="69.375" y1="4" x2="1.14544e-08" y2="4" gradientUnits="userSpaceOnUse">
<stop stop-color="#BB9AF7"/>
<stop offset="1" stop-color="#7F299B"/>
</linearGradient>
</defs>
</svg>
