<svg width="547" height="125" viewBox="0 0 547 125" fill="none" xmlns="http://www.w3.org/2000/svg">
<path d="M63 0L125.225 62.2254L63 124.451L0.774604 62.2254L63 0Z" fill="#FF9E01"/>
<path d="M109.225 0.225403L171.451 62.4508L109.225 124.676L47 62.4508L109.225 0.225403Z" fill="#FF9E01"/>
<path fill-rule="evenodd" clip-rule="evenodd" d="M86.2254 23.2254L125.225 62.2254L86 101.451L47 62.4508L86.2254 23.2254Z" fill="white"/>
<path d="M188.926 75.2254V49.0814H211.536V55.3514H197.324V58.9614H209.484V64.9654H197.324V68.9554H211.802V75.2254H188.926Z" fill="white"/>
<path d="M227.978 75.6814C226.179 75.6814 224.494 75.5421 222.924 75.2634C221.378 75.0101 220.01 74.5667 218.82 73.9334C217.654 73.2747 216.73 72.3754 216.046 71.2354C215.387 70.0701 215.058 68.6134 215.058 66.8654C215.058 66.8147 215.058 66.7514 215.058 66.6754C215.058 66.5741 215.07 66.4727 215.096 66.3714H223.038C223.012 66.4727 223 66.5741 223 66.6754C223 66.7514 223 66.8274 223 66.9034C223 67.6634 223.177 68.2461 223.532 68.6514C223.886 69.0567 224.38 69.3354 225.014 69.4874C225.672 69.6141 226.407 69.6774 227.218 69.6774C227.522 69.6774 227.838 69.6774 228.168 69.6774C228.522 69.6521 228.852 69.6141 229.156 69.5634C229.485 69.4874 229.776 69.3861 230.03 69.2594C230.308 69.1327 230.524 68.9681 230.676 68.7654C230.828 68.5374 230.904 68.2587 230.904 67.9294C230.904 67.4481 230.688 67.0681 230.258 66.7894C229.827 66.5107 229.244 66.2701 228.51 66.0674C227.775 65.8647 226.952 65.6747 226.04 65.4974C225.128 65.3201 224.178 65.1174 223.19 64.8894C222.202 64.6361 221.252 64.3194 220.34 63.9394C219.428 63.5594 218.604 63.0781 217.87 62.4954C217.135 61.8874 216.552 61.1401 216.122 60.2534C215.691 59.3414 215.476 58.2521 215.476 56.9854C215.476 55.4654 215.792 54.1734 216.426 53.1094C217.059 52.0454 217.92 51.1841 219.01 50.5254C220.124 49.8667 221.378 49.3854 222.772 49.0814C224.19 48.7774 225.672 48.6254 227.218 48.6254C228.788 48.6254 230.258 48.7901 231.626 49.1194C233.019 49.4234 234.248 49.9047 235.312 50.5634C236.376 51.2221 237.212 52.0581 237.82 53.0714C238.428 54.0847 238.744 55.2881 238.77 56.6814V57.1374H230.904V56.9854C230.904 56.5294 230.79 56.0987 230.562 55.6934C230.334 55.2881 229.966 54.9587 229.46 54.7054C228.978 54.4521 228.332 54.3254 227.522 54.3254C226.762 54.3254 226.116 54.4014 225.584 54.5534C225.077 54.7054 224.697 54.9207 224.444 55.1994C224.19 55.4527 224.064 55.7314 224.064 56.0354C224.064 56.5167 224.279 56.9094 224.71 57.2134C225.14 57.5174 225.723 57.7707 226.458 57.9734C227.192 58.1761 228.016 58.3661 228.928 58.5434C229.84 58.7207 230.79 58.9234 231.778 59.1514C232.766 59.3541 233.716 59.6327 234.628 59.9874C235.54 60.3421 236.363 60.8107 237.098 61.3934C237.832 61.9507 238.415 62.6474 238.846 63.4834C239.276 64.3194 239.492 65.3454 239.492 66.5614C239.492 68.7147 238.985 70.4627 237.972 71.8054C236.984 73.1481 235.616 74.1361 233.868 74.7694C232.145 75.3774 230.182 75.6814 227.978 75.6814Z" fill="white"/>
<path d="M250.31 75.2254V55.7694H241.722V49.0814H267.258V55.7694H258.708V75.2254H250.31Z" fill="white"/>
<path d="M284.117 75.6814C281.381 75.6814 279.038 75.2761 277.087 74.4654C275.162 73.6294 273.68 72.4007 272.641 70.7794C271.603 69.1327 271.083 67.1061 271.083 64.6994V49.0814H279.481V64.5854C279.481 65.9787 279.861 67.1314 280.621 68.0434C281.381 68.9554 282.534 69.4114 284.079 69.4114C285.625 69.4114 286.777 68.9554 287.537 68.0434C288.323 67.1314 288.715 65.9787 288.715 64.5854V49.0814H297.113V64.6994C297.113 67.1061 296.594 69.1327 295.555 70.7794C294.542 72.4007 293.06 73.6294 291.109 74.4654C289.184 75.2761 286.853 75.6814 284.117 75.6814Z" fill="white"/>
<path d="M302.738 75.2254V49.0814H314.062C317.051 49.0814 319.559 49.5501 321.586 50.4874C323.612 51.4247 325.145 52.8561 326.184 54.7814C327.248 56.7067 327.78 59.1641 327.78 62.1534C327.78 65.1174 327.248 67.5747 326.184 69.5254C325.145 71.4507 323.612 72.8821 321.586 73.8194C319.559 74.7567 317.051 75.2254 314.062 75.2254H302.738ZM311.136 68.9554H313.91C314.822 68.9554 315.607 68.8287 316.266 68.5754C316.95 68.3221 317.507 67.9547 317.938 67.4734C318.368 66.9921 318.685 66.3967 318.888 65.6874C319.09 64.9781 319.192 64.1801 319.192 63.2934V61.0134C319.192 60.1267 319.09 59.3287 318.888 58.6194C318.685 57.9101 318.368 57.3147 317.938 56.8334C317.507 56.3521 316.95 55.9847 316.266 55.7314C315.607 55.4781 314.822 55.3514 313.91 55.3514H311.136V68.9554Z" fill="white"/>
<path d="M332.314 75.2254V49.0814H340.712V75.2254H332.314Z" fill="white"/>
<path d="M359.337 75.6814C356.373 75.6814 353.84 75.1747 351.737 74.1614C349.635 73.1481 348.026 71.6407 346.911 69.6394C345.797 67.6127 345.239 65.1174 345.239 62.1534C345.239 59.1641 345.797 56.6687 346.911 54.6674C348.026 52.6661 349.635 51.1587 351.737 50.1454C353.84 49.1321 356.373 48.6254 359.337 48.6254C362.327 48.6254 364.873 49.1321 366.975 50.1454C369.078 51.1587 370.687 52.6661 371.801 54.6674C372.916 56.6687 373.473 59.1641 373.473 62.1534C373.473 65.1174 372.916 67.6127 371.801 69.6394C370.687 71.6407 369.078 73.1481 366.975 74.1614C364.873 75.1747 362.327 75.6814 359.337 75.6814ZM359.337 69.4114C360.249 69.4114 361.047 69.2721 361.731 68.9934C362.441 68.6894 363.023 68.2714 363.479 67.7394C363.961 67.2074 364.315 66.5741 364.543 65.8394C364.771 65.0794 364.885 64.2561 364.885 63.3694V60.9374C364.885 60.0507 364.771 59.2401 364.543 58.5054C364.315 57.7454 363.961 57.0994 363.479 56.5674C363.023 56.0354 362.441 55.6301 361.731 55.3514C361.047 55.0474 360.249 54.8954 359.337 54.8954C358.425 54.8954 357.615 55.0474 356.905 55.3514C356.221 55.6301 355.651 56.0354 355.195 56.5674C354.739 57.0994 354.397 57.7454 354.169 58.5054C353.941 59.2401 353.827 60.0507 353.827 60.9374V63.3694C353.827 64.2561 353.941 65.0794 354.169 65.8394C354.397 66.5741 354.739 67.2074 355.195 67.7394C355.651 68.2714 356.221 68.6894 356.905 68.9934C357.615 69.2721 358.425 69.4114 359.337 69.4114Z" fill="white"/>
<path d="M384.824 75.2254V49.0814H400.252C401.898 49.0814 403.342 49.4614 404.584 50.2214C405.85 50.9561 406.838 51.9821 407.548 53.2994C408.257 54.6167 408.612 56.1494 408.612 57.8974C408.612 59.6961 408.244 61.2667 407.51 62.6094C406.8 63.9267 405.812 64.9527 404.546 65.6874C403.304 66.4221 401.873 66.7894 400.252 66.7894H393.222V75.2254H384.824ZM393.222 60.6714H397.44C398.326 60.6714 398.985 60.4434 399.416 59.9874C399.872 59.5314 400.1 58.8601 400.1 57.9734C400.1 57.3654 399.998 56.8714 399.796 56.4914C399.618 56.0861 399.327 55.7821 398.922 55.5794C398.542 55.3767 398.048 55.2754 397.44 55.2754H393.222V60.6714Z" fill="white"/>
<path d="M412.248 75.2254V49.0814H428.626C430.576 49.0814 432.198 49.4741 433.49 50.2594C434.807 51.0447 435.795 52.0707 436.454 53.3374C437.112 54.6041 437.442 55.9721 437.442 57.4414C437.442 59.1134 437.049 60.6081 436.264 61.9254C435.478 63.2174 434.414 64.2561 433.072 65.0414L438.202 75.2254H428.778L424.788 66.4474H420.646V75.2254H412.248ZM420.646 60.6334H426.536C427.194 60.6334 427.752 60.3801 428.208 59.8734C428.664 59.3414 428.892 58.6447 428.892 57.7834C428.892 57.2514 428.79 56.7827 428.588 56.3774C428.385 55.9721 428.106 55.6554 427.752 55.4274C427.397 55.1741 426.992 55.0474 426.536 55.0474H420.646V60.6334Z" fill="white"/>
<path d="M441.824 75.2254V49.0814H450.222V75.2254H441.824Z" fill="white"/>
<path d="M467.593 75.6814C465.794 75.6814 464.11 75.5421 462.539 75.2634C460.994 75.0101 459.626 74.5667 458.435 73.9334C457.27 73.2747 456.345 72.3754 455.661 71.2354C455.002 70.0701 454.673 68.6134 454.673 66.8654C454.673 66.8147 454.673 66.7514 454.673 66.6754C454.673 66.5741 454.686 66.4727 454.711 66.3714H462.653C462.628 66.4727 462.615 66.5741 462.615 66.6754C462.615 66.7514 462.615 66.8274 462.615 66.9034C462.615 67.6634 462.792 68.2461 463.147 68.6514C463.502 69.0567 463.996 69.3354 464.629 69.4874C465.288 69.6141 466.022 69.6774 466.833 69.6774C467.137 69.6774 467.454 69.6774 467.783 69.6774C468.138 69.6521 468.467 69.6141 468.771 69.5634C469.1 69.4874 469.392 69.3861 469.645 69.2594C469.924 69.1327 470.139 68.9681 470.291 68.7654C470.443 68.5374 470.519 68.2587 470.519 67.9294C470.519 67.4481 470.304 67.0681 469.873 66.7894C469.442 66.5107 468.86 66.2701 468.125 66.0674C467.39 65.8647 466.567 65.6747 465.655 65.4974C464.743 65.3201 463.793 65.1174 462.805 64.8894C461.817 64.6361 460.867 64.3194 459.955 63.9394C459.043 63.5594 458.22 63.0781 457.485 62.4954C456.75 61.8874 456.168 61.1401 455.737 60.2534C455.306 59.3414 455.091 58.2521 455.091 56.9854C455.091 55.4654 455.408 54.1734 456.041 53.1094C456.674 52.0454 457.536 51.1841 458.625 50.5254C459.74 49.8667 460.994 49.3854 462.387 49.0814C463.806 48.7774 465.288 48.6254 466.833 48.6254C468.404 48.6254 469.873 48.7901 471.241 49.1194C472.634 49.4234 473.863 49.9047 474.927 50.5634C475.991 51.2221 476.827 52.0581 477.435 53.0714C478.043 54.0847 478.36 55.2881 478.385 56.6814V57.1374H470.519V56.9854C470.519 56.5294 470.405 56.0987 470.177 55.6934C469.949 55.2881 469.582 54.9587 469.075 54.7054C468.594 54.4521 467.948 54.3254 467.137 54.3254C466.377 54.3254 465.731 54.4014 465.199 54.5534C464.692 54.7054 464.312 54.9207 464.059 55.1994C463.806 55.4527 463.679 55.7314 463.679 56.0354C463.679 56.5167 463.894 56.9094 464.325 57.2134C464.756 57.5174 465.338 57.7707 466.073 57.9734C466.808 58.1761 467.631 58.3661 468.543 58.5434C469.455 58.7207 470.405 58.9234 471.393 59.1514C472.381 59.3541 473.331 59.6327 474.243 59.9874C475.155 60.3421 475.978 60.8107 476.713 61.3934C477.448 61.9507 478.03 62.6474 478.461 63.4834C478.892 64.3194 479.107 65.3454 479.107 66.5614C479.107 68.7147 478.6 70.4627 477.587 71.8054C476.599 73.1481 475.231 74.1361 473.483 74.7694C471.76 75.3774 469.797 75.6814 467.593 75.6814Z" fill="white"/>
<path d="M483.275 75.2254V49.0814H494.979L497.373 58.2774C497.474 58.6067 497.614 59.1514 497.791 59.9114C497.994 60.6714 498.196 61.4947 498.399 62.3814C498.627 63.2681 498.83 64.0914 499.007 64.8514H499.311C499.438 64.2941 499.59 63.6354 499.767 62.8754C499.97 62.0901 500.172 61.2921 500.375 60.4814C500.578 59.6707 500.755 58.9361 500.907 58.2774L503.301 49.0814H514.587V75.2254H506.569V65.8014C506.569 64.7881 506.569 63.7494 506.569 62.6854C506.594 61.5961 506.607 60.5701 506.607 59.6074C506.632 58.6447 506.645 57.8467 506.645 57.2134H506.341C506.265 57.7201 506.151 58.3154 505.999 58.9994C505.872 59.6834 505.733 60.3674 505.581 61.0514C505.429 61.7101 505.277 62.2927 505.125 62.7994L501.743 75.2254H495.473L492.053 62.7994C491.926 62.2927 491.774 61.7101 491.597 61.0514C491.445 60.3674 491.306 59.6834 491.179 58.9994C491.052 58.3154 490.938 57.7327 490.837 57.2514H490.533C490.558 57.8847 490.584 58.6827 490.609 59.6454C490.634 60.6081 490.647 61.6214 490.647 62.6854C490.672 63.7494 490.685 64.7881 490.685 65.8014V75.2254H483.275Z" fill="white"/>
<path d="M517.767 75.2254L527.305 49.0814H537.071L546.609 75.2254H537.717L536.615 71.5394H527.457L526.355 75.2254H517.767ZM529.205 65.6874H534.905L533.651 61.5074C533.549 61.2034 533.435 60.8361 533.309 60.4054C533.182 59.9747 533.055 59.5187 532.929 59.0374C532.802 58.5561 532.675 58.0874 532.549 57.6314C532.422 57.1501 532.308 56.7321 532.207 56.3774H531.903C531.801 56.8334 531.662 57.3527 531.485 57.9354C531.333 58.5181 531.168 59.1261 530.991 59.7594C530.813 60.3674 530.636 60.9501 530.459 61.5074L529.205 65.6874Z" fill="white"/>
</svg>
