<svg klickart-edit-icon="svg" viewBox="0 0 98.6 98.6"><path fill="rgb(86, 167, 128)" d="M98.6.1L0 98.6V53.1L53.1 0z"></path><path fill="#b08d6f" d="M0 98.6h2.3v-2.4zM96.2 2.4h2.4V.1z"></path><path fill="#ffffff" d="M14 64.3l1.9 1.9-1.1 1.1-5-5 1.5-1.5c.7-.7 1.3-1.1 1.9-1.1.6-.1 1.1.1 1.6.6.3.3.5.6.5 1 .1.4 0 .8-.1 1.2 1.9.4 3.1.6 3.7.7l-1.2 1.2-3.1-.7-.6.6zm-.9-.9l.3-.3c.3-.3.5-.6.6-.9s0-.5-.3-.8c-.2-.2-.5-.3-.8-.3-.3.1-.6.3-.9.6l-.3.3 1.4 1.4zM22.4 59.7l-2.9 2.9-5-5 2.9-2.9.9.9-1.8 1.8 1.1 1.1 1.7-1.7.9.9-1.7 1.7 1.3 1.3 1.8-1.8.8.8zM21.4 52.3c-.4.4-.6.9-.5 1.4.1.5.4 1.1.9 1.6 1.1 1.1 2.1 1.3 3 .4.4-.4.7-.9 1-1.6l.9.9c-.2.6-.6 1.1-1.1 1.6-.7.7-1.5 1.1-2.4 1-.8-.1-1.7-.5-2.5-1.3-.5-.5-.9-1.1-1.1-1.7-.2-.6-.2-1.2-.1-1.7.1-.6.5-1.1.9-1.6.5-.5 1.1-.9 1.8-1.1l.5 1.2c-.3.1-.5.2-.8.3-.1.3-.4.4-.5.6zM30 47.1c.8.8 1.3 1.7 1.3 2.5 0 .9-.3 1.7-1.1 2.5s-1.6 1.1-2.5 1.1c-.9 0-1.7-.5-2.6-1.3-.8-.8-1.3-1.7-1.3-2.5 0-.9.3-1.7 1.1-2.5s1.6-1.1 2.5-1.1c.9 0 1.8.4 2.6 1.3zm-3.7 3.6c.6.6 1.1.9 1.6 1s1-.1 1.4-.5c.9-.9.7-1.8-.4-3-1.1-1.1-2.1-1.3-3-.4-.4.4-.6.9-.5 1.4s.4 1 .9 1.5zM35.7 46.4l-5.2-2.7c.8.8 1.4 1.3 1.7 1.5l2.3 2.3-1 1-5-5L30 42l5.1 2.7-2.6-5.1 1.5-1.5 5 5-1 1-2.4-2.4-.4-.4c-.1-.2-.5-.6-1.1-1.2l2.7 5.3-1.1 1zM43.2 39l-2.9 2.9-5-5 2.9-2.9.9.9-1.8 1.8 1.1 1.1L40 36l.9.9-1.7 1.7 1.3 1.3 1.8-1.8.9.9zM48.7 33.4l-1.4 1.4-6-1.6c.7.6 1.2 1.1 1.5 1.4l2.4 2.4-1 1-5-5 1.3-1.3 6 1.6c-.7-.6-1.2-1.1-1.4-1.3l-2.4-2.4 1-1 5 4.8zM51.6 25.4c.8.8 1.2 1.7 1.2 2.6 0 .9-.5 1.8-1.4 2.7L50 32.2l-5-5 1.6-1.6c.8-.8 1.7-1.2 2.6-1.3.8-.1 1.6.3 2.4 1.1zm-1.1 1.1c-1.1-1.1-2.1-1.1-3.1-.2l-.6.6 3.3 3.3.5-.5c1-1 1-2-.1-3.2zM58.3 23.8l-1.6-.8-1.8 1.8.8 1.6-1.2 1.2-3.3-6.9 1.3-1.3 6.9 3.3-1.1 1.1zm-2.7-1.4c-1.4-.8-2.2-1.2-2.4-1.3-.2-.1-.3-.2-.4-.2.2.4.7 1.3 1.5 2.8l1.3-1.3zM61.7 15.3c.8.8 1.2 1.7 1.2 2.6 0 .9-.5 1.8-1.4 2.7L60.1 22l-5-5 1.6-1.6c.8-.8 1.7-1.2 2.6-1.3.8 0 1.6.4 2.4 1.2zm-1.1 1.1c-1.1-1.1-2.1-1.1-3.1-.2l-.5.6 3.3 3.3.5-.5c.9-1 .9-2.1-.2-3.2zM67.4 9.7c.8.8 1.3 1.7 1.3 2.5 0 .9-.3 1.7-1.1 2.5s-1.6 1.1-2.5 1.1-1.7-.5-2.6-1.3c-.8-.8-1.3-1.7-1.3-2.5 0-.9.3-1.7 1.1-2.5s1.6-1.1 2.4-1.1c1 0 1.8.5 2.7 1.3zm-3.7 3.7c.6.6 1.1.9 1.6 1 .5.1 1-.1 1.4-.5.9-.9.7-1.8-.4-3-1.1-1.1-2.1-1.3-3-.4-.4.4-.6.9-.5 1.4s.3.9.9 1.5z"></path></svg>