<svg  fill="rgb(20, 20, 20)" viewBox="0 0 367.633 367.633" enable-background="new 0 0 367.633 367.633"> <path d="M266.003,0H101.63C86.293,0,73.816,12.476,73.816,27.812v312.01c0,15.335,12.477,27.812,27.813,27.812h164.373 c15.337,0,27.814-12.477,27.814-27.812V27.812C293.816,12.476,281.34,0,266.003,0z M194.844,338.736 c0,2.175-1.763,3.938-3.938,3.938h-14.18c-2.175,0-3.938-1.763-3.938-3.938v-12.604c0-1.279,0.622-2.481,1.669-3.219l7.09-4.993 c1.362-0.959,3.175-0.959,4.537,0l7.09,4.993c1.047,0.737,1.669,1.939,1.669,3.219V338.736z M260.732,300.516H106.9V42.299h153.832 V300.516z"></path> </svg>