<svg width="45" height="45" viewBox="0 0 45 45" fill="none" xmlns="http://www.w3.org/2000/svg">
<g clip-path="url(#clip0_216_91)">
<path d="M28.4941 3.76171L28.9863 3.02343L29.4785 2.30273L30.5684 0.667963C30.709 0.474604 30.6562 0.193352 30.4453 0.0703055C30.252 -0.0703196 29.9707 -0.017583 29.8477 0.193354L28.6875 1.93359L28.1953 2.67187L27.7031 3.41015C26.1211 2.79491 24.3809 2.46093 22.5176 2.46093C20.6719 2.46093 18.9141 2.79491 17.332 3.41015L16.8398 2.67187L16.3477 1.93359L15.1875 0.193354C15.0469 -4.90993e-06 14.7832 -0.0527414 14.5898 0.0703055C14.3965 0.21093 14.3438 0.474604 14.4668 0.667963L15.5566 2.30273L16.0488 3.02343L16.541 3.76171C12.8496 5.48437 10.3359 8.73632 10.3359 12.4805H34.7168C34.6992 8.73632 32.2031 5.48437 28.4941 3.76171ZM17.2793 8.98242C16.5586 8.98242 15.9785 8.40234 15.9785 7.68163C15.9785 6.96093 16.5586 6.38085 17.2793 6.38085C18 6.38085 18.5801 6.96093 18.5801 7.68163C18.5801 8.40234 18 8.98242 17.2793 8.98242ZM27.7207 8.98242C27 8.98242 26.4199 8.40234 26.4199 7.68163C26.4199 6.96093 27 6.38085 27.7207 6.38085C28.4414 6.38085 29.0215 6.96093 29.0215 7.68163C29.0391 8.40234 28.459 8.98242 27.7207 8.98242Z" fill="black" fill-opacity="0.45"/>
<path d="M10.4941 14.2031L10.3008 14.2207V16.3828V18.1582V33.3809C10.3008 34.9102 11.5313 36.1406 13.0605 36.1406H15.0469C14.9766 36.3691 14.9414 36.6152 14.9414 36.8613V37.002V37.8809V42.3809C14.9414 43.8223 16.1191 45 17.5605 45C19.002 45 20.1797 43.8223 20.1797 42.3809V37.8809V37.002V36.8613C20.1797 36.6152 20.1445 36.3691 20.0742 36.1406H24.9258C24.8555 36.3691 24.8203 36.6152 24.8203 36.8613V37.002V37.8809V42.3809C24.8203 43.8223 25.998 45 27.4395 45C28.8809 45 30.0586 43.8223 30.0586 42.3809V37.8809V37.002V36.8613C30.0586 36.6152 30.0234 36.3691 29.9531 36.1406H31.9395C33.4688 36.1406 34.6992 34.9102 34.6992 33.3809V18.1582V16.3828V14.2031H34.5059H10.4941Z" fill="black" fill-opacity="0.45"/>
<path d="M5.95898 14.2207C4.51758 14.2207 3.33984 15.3984 3.33984 16.8398V28.0195C3.33984 29.4609 4.51758 30.6387 5.95898 30.6387C7.40039 30.6387 8.57813 29.4609 8.57813 28.0195V16.8398C8.56055 15.3809 7.40039 14.2207 5.95898 14.2207Z" fill="black" fill-opacity="0.45"/>
<path d="M39.0586 14.2207C37.6172 14.2207 36.4395 15.3984 36.4395 16.8398V28.0195C36.4395 29.4609 37.6172 30.6387 39.0586 30.6387C40.5 30.6387 41.6777 29.4609 41.6777 28.0195V16.8398C41.6602 15.3809 40.5 14.2207 39.0586 14.2207Z" fill="black" fill-opacity="0.45"/>
</g>
<defs>
<clipPath id="clip0_216_91">
<rect width="45" height="45" fill="white"/>
</clipPath>
</defs>
</svg>
