<svg width="45" height="45" viewBox="0 0 45 45" fill="none" xmlns="http://www.w3.org/2000/svg">
<path d="M21.8534 10.8524C21.3743 8.24115 22.609 5.5539 24.096 3.74291C25.7347 1.74472 28.5469 0.212344 30.9502 0.0439453C31.3562 2.78165 30.2389 5.44904 28.7682 7.33579C27.1906 9.36272 24.4781 10.9346 21.8534 10.8524ZM35.9501 20.3142C36.6938 18.2395 38.167 16.3728 40.4525 15.1133C38.1429 12.2312 34.9002 10.5579 31.8401 10.5579C27.7914 10.5579 26.0796 12.4869 23.2674 12.4869C20.3706 12.4869 18.1728 10.5579 14.6659 10.5579C11.227 10.5579 7.56647 12.654 5.24492 16.2337C4.39133 17.5569 3.8131 19.2007 3.49775 21.0316C2.62271 26.1679 3.92982 32.8579 7.82891 38.7982C9.72471 41.6806 12.2517 44.9274 15.5528 44.9557C18.4936 44.9844 19.3278 43.0755 23.3088 43.0559C27.2957 43.0332 28.0513 44.9755 30.988 44.9474C34.2901 44.9196 36.9563 41.3264 38.8521 38.4443C40.202 36.3761 40.7125 35.3314 41.7622 32.9931C36.4248 30.9803 34.2297 25.099 35.9501 20.3142Z" fill="black" fill-opacity="0.45"/>
</svg>
