<svg width="76" height="39" viewBox="0 0 76 39" fill="none" xmlns="http://www.w3.org/2000/svg">
<path d="M21.213 14.0655C21.2305 14.7092 21.3455 15.3482 21.5549 15.9666L22.2388 17.429C22.3007 17.4884 22.3478 17.5579 22.3772 17.6333C22.4066 17.7087 22.4177 17.7885 22.4098 17.8677C22.4098 18.1602 22.2388 18.3064 22.0678 18.5989L20.3581 19.4763H19.8451C19.6859 19.4879 19.5256 19.4675 19.3772 19.4167C19.2288 19.366 19.0963 19.2862 18.9903 19.1839C18.6128 18.9067 18.3194 18.5555 18.1354 18.1602C17.8124 17.7915 17.5265 17.4001 17.2805 16.9903C16.396 17.9242 15.274 18.6731 14 19.1799C12.7259 19.6867 11.3334 19.9382 9.92848 19.915C9.01842 19.9428 8.11105 19.8147 7.2596 19.5385C6.40816 19.2623 5.62978 18.8434 4.97015 18.3064C4.34732 17.7693 3.85925 17.1292 3.53585 16.4251C3.21246 15.721 3.06054 14.9678 3.0894 14.2118C3.08773 13.3751 3.3013 12.5484 3.71497 11.7902C4.12864 11.032 4.73228 10.361 5.48308 9.82465C7.18306 8.68441 9.31029 8.11259 11.4673 8.21604H14.2029L17.1095 8.65475V7.33861C17.1874 6.13176 16.7634 4.94027 15.9127 3.97515C14.719 3.24784 13.2729 2.88709 11.8092 2.95149L9.07359 3.24396L6.33796 3.97515L5.48308 4.26762H5.14112C4.79917 4.26762 4.62819 3.97515 4.62819 3.53644V2.51277C4.57568 2.25933 4.63672 1.99826 4.79917 1.78159L5.48308 1.34287C6.46137 0.940143 7.49551 0.64531 8.56066 0.465448C9.84424 0.17634 11.1658 0.0289046 12.4931 0.0267352C14.8967 -0.141249 17.2838 0.48698 19.1612 1.78159C19.8953 2.49835 20.4548 3.33313 20.8071 4.23709C21.1594 5.14105 21.2974 6.09602 21.213 7.04614V14.0655ZM11.1253 17.2828L13.69 16.8441C14.5825 16.5463 15.3964 16.0988 16.0837 15.5279C16.4699 15.0888 16.7596 14.5933 16.9385 14.0655C16.9385 13.6268 17.1095 13.0419 17.1095 12.3107V11.4333L14.8868 10.9946H12.4931C11.1586 10.908 9.83 11.2179 8.73164 11.872C8.32478 12.1816 8.00559 12.5663 7.79824 12.997C7.59089 13.4277 7.5008 13.8931 7.5348 14.358C7.47476 15.1565 7.78149 15.9436 8.38969 16.5516C8.76253 16.8276 9.19785 17.035 9.6685 17.1608C10.1392 17.2866 10.6351 17.3281 11.1253 17.2828ZM31.1296 19.6226C30.9703 19.6342 30.8101 19.6138 30.6617 19.563C30.5132 19.5122 30.3807 19.4324 30.2747 19.3301C30.0962 19.2321 29.9433 19.1035 29.8256 18.9525C29.7079 18.8015 29.6279 18.6313 29.5908 18.4527L23.7776 1.92782C23.6628 1.64576 23.605 1.34905 23.6066 1.0504C23.6066 0.992785 23.6199 0.935737 23.6457 0.88251C23.6715 0.829282 23.7092 0.78092 23.7569 0.740182C23.8045 0.699444 23.8611 0.667128 23.9233 0.645081C23.9855 0.623033 24.0522 0.611685 24.1196 0.611685H27.5391C27.7807 0.869874 27.9555 1.16892 28.052 1.48911L32.3265 15.6742L36.2589 1.48911C36.2432 1.33066 36.2654 1.17113 36.3242 1.02027C36.383 0.869407 36.4772 0.730382 36.6009 0.611685H40.7043L41.2173 1.48911L45.1497 15.8204L49.4242 1.48911L49.9371 0.611685H53.1857C53.6986 0.611685 53.8696 0.757923 53.8696 1.0504V1.48911C53.8696 1.63535 53.6986 1.78159 53.6986 1.92782L47.5434 18.5989C47.5377 18.748 47.4875 18.8934 47.3978 19.0214C47.308 19.1493 47.1816 19.2556 47.0305 19.3301L46.1756 19.6226H43.9529C43.7666 19.6476 43.5761 19.6345 43.3968 19.5846C43.2175 19.5346 43.0545 19.4491 42.9212 19.3351C42.7878 19.2211 42.6879 19.0817 42.6295 18.9283C42.5711 18.775 42.5559 18.612 42.5851 18.4527L38.6526 4.70634L34.7201 18.4527C34.7359 18.6111 34.7136 18.7707 34.6549 18.9215C34.5961 19.0724 34.5019 19.2114 34.3782 19.3301L33.3523 19.6226H31.1296ZM63.2733 20.2075C62.0022 20.206 60.737 20.0585 59.5118 19.7688L56.6052 18.8914C56.2587 18.7732 55.9612 18.5696 55.7503 18.3064C55.7503 18.1602 55.5793 17.8677 55.5793 17.7215V16.5516C55.5793 16.3964 55.6514 16.2477 55.7797 16.138C55.9079 16.0283 56.0819 15.9666 56.2633 15.9666H56.6052L57.2891 16.2591L60.0247 16.9903L63.1023 17.2828C64.354 17.3177 65.5939 17.0653 66.6928 16.5516C67.1123 16.3445 67.46 16.0458 67.7003 15.6861C67.9407 15.3264 68.065 14.9185 68.0607 14.5043C68.0522 13.9612 67.8085 13.4401 67.3768 13.0419C66.6473 12.4776 65.7664 12.0757 64.8121 11.872L61.2216 10.8483C59.6397 10.544 58.2065 9.82889 57.1181 8.80099C56.3171 7.87004 55.8965 6.73947 55.9213 5.58376C55.8797 4.76365 56.1173 3.95085 56.6052 3.24396C56.9767 2.53627 57.5681 1.9293 58.315 1.48911L61.0506 0.31921L64.1282 0.0267352H67.3768L68.9156 0.465448L69.9414 0.757923C70.2834 0.904161 70.4543 1.19664 70.6253 1.34287C70.7878 1.55955 70.8488 1.82061 70.7963 2.07406V3.09772C70.7963 3.53644 70.6253 3.68267 70.2834 3.68267C70.1241 3.69427 69.9638 3.67386 69.8154 3.62308C69.667 3.5723 69.5345 3.49255 69.4285 3.3902C67.8354 2.91016 66.1592 2.66297 64.4701 2.65901C63.3451 2.59584 62.2214 2.79818 61.2216 3.24396C60.8348 3.43399 60.5178 3.71268 60.3063 4.04859C60.0949 4.3845 59.9973 4.76426 60.0247 5.14505C60.0421 5.42596 60.127 5.70079 60.2741 5.9524C60.4212 6.204 60.6273 6.42698 60.8796 6.60743C61.6246 7.23421 62.582 7.64366 63.6153 7.77733L67.0348 8.80099C68.5829 9.07424 69.9725 9.79769 70.9673 10.8483C71.7555 11.6727 72.1792 12.7082 72.1641 13.7731C72.1374 14.633 71.9046 15.4792 71.4802 16.2591C71.0458 17.0156 70.3998 17.6686 69.5995 18.1602C68.8479 18.779 67.8936 19.1871 66.8638 19.3301C65.7594 19.8499 64.5321 20.1498 63.2733 20.2075Z" fill="black" fill-opacity="0.45"/>
<path d="M68.061 30.5904C59.8541 35.7087 47.8857 38.4872 37.6271 38.4872C23.8628 38.5822 10.5593 34.25 0.354105 26.3495C-0.50078 25.7646 0.354105 24.8871 1.20899 25.4721C12.5605 31.0217 25.407 33.945 38.482 33.9539C48.2246 33.8416 57.8545 32.1546 66.8642 28.9818C68.232 28.3968 69.4288 29.713 68.061 30.5904ZM71.4805 27.2269C70.4547 26.057 64.4705 26.642 61.9058 26.9345C59.3412 27.2269 60.88 26.3495 61.5639 25.9108C66.3512 23.1323 74.0452 24.0097 74.9001 24.8871C75.755 25.7646 74.7291 32.4915 70.2837 35.7087C69.5998 36.1474 68.9159 35.8549 69.2578 35.27C69.5998 34.685 72.5064 28.3968 71.4805 27.2269Z" fill="black" fill-opacity="0.45"/>
</svg>
