<svg width="69" height="39" viewBox="0 0 69 39" fill="none" xmlns="http://www.w3.org/2000/svg">
<path d="M58.9174 37.1421C58.0413 37.1421 57.2256 36.6652 56.9381 35.914C56.5804 34.9788 57.1766 33.9724 58.2705 33.6664C62.2334 32.5571 64.7936 29.5863 64.7936 26.0976C64.7936 21.6793 60.5912 18.0844 55.4255 18.0844C55.0667 18.0844 54.6807 18.1086 54.2108 18.1608L52.1738 18.3866L51.8814 16.6472C50.6296 9.18819 43.0327 3.56323 34.2102 3.56323C26.9167 3.56323 20.4235 7.29783 17.67 13.0779L17.1516 14.1653L15.7795 14.1868C9.47364 14.286 4.34337 18.7527 4.34337 24.1434C4.34337 28.0787 7.01469 31.6676 11.1485 33.2859C12.1945 33.6958 12.6546 34.753 12.1754 35.6476C11.6963 36.5423 10.4608 36.9349 9.41484 36.5264C3.80214 34.3292 0.175781 29.4689 0.175781 24.1434C0.175781 17.2135 6.41846 11.4083 14.348 10.6953C18.0016 4.16121 25.6589 0 34.2097 0C44.4441 0 53.3406 6.13726 55.6477 14.523C63.0088 14.625 68.9607 19.7782 68.9607 26.098C68.9607 31.078 65.1851 35.4804 59.5664 37.0532C59.3514 37.1132 59.1325 37.1421 58.9174 37.1421Z" fill="black" fill-opacity="0.45"/>
<path d="M27.0492 37.913C27.0486 37.9125 27.0486 37.9125 27.0481 37.9125C27.0475 37.9125 27.047 37.912 27.0464 37.912H27.0459L27.0454 37.9116L27.0448 37.9111C27.0448 37.9111 27.0443 37.9111 27.0443 37.9106H27.0437L27.0432 37.9102C27.0437 37.9097 27.0426 37.9097 27.0426 37.9097L27.0421 37.9093H27.0415L27.041 37.9088C27.0415 37.9093 27.0405 37.9083 27.0405 37.9083C27.0405 37.9083 27.0394 37.9079 27.0388 37.9079L27.0383 37.9074L27.0377 37.9069L27.0372 37.9065C27.0356 37.906 27.0361 37.906 27.0356 37.906C27.035 37.9065 27.035 37.9055 27.0345 37.9055L27.0339 37.9051C27.0339 37.9051 27.0334 37.9046 27.0328 37.9046L27.0323 37.9041C27.0318 37.9037 27.0307 37.9037 27.0301 37.9037C27.0296 37.9037 27.0285 37.9032 27.028 37.9032C27.0274 37.9027 27.0274 37.9027 27.0269 37.9027H27.0263C27.0258 37.9023 27.0252 37.9023 27.0247 37.9023C27.0241 37.9018 27.0231 37.9018 27.0231 37.9018H27.0225L27.0214 37.9013C27.0209 37.9013 27.0209 37.9009 27.0209 37.9009H27.0203C26.9883 37.8911 26.954 37.8851 26.9181 37.8837H26.917H26.9159H26.9149C26.9149 37.8837 26.9149 37.8837 26.9143 37.8837H26.9138H26.9132L26.9127 37.8832H26.9116H26.9105H26.91H26.9094H26.9089H26.9078H26.9072H26.9067H26.9061H26.9056H26.9051H26.9045H26.904H26.9034C26.003 37.8832 25.2662 37.2563 25.2607 36.488V20.8307H26.6566H26.6636C26.8773 20.8386 27.0231 20.6982 27.0231 20.5294C27.0231 20.4033 26.9328 20.2954 26.8045 20.2503L20.0733 16.2767C19.9526 16.2056 19.7933 16.2056 19.6726 16.2767L12.8887 20.2815C12.7615 20.3564 12.7066 20.4936 12.7522 20.6196C12.7984 20.7456 12.9344 20.8312 13.0888 20.8312H14.4917L14.4928 36.4922C14.4999 37.5749 15.5167 38.4585 16.8103 38.4864C16.8249 38.4878 16.8391 38.4887 16.8538 38.4887H26.9029H26.9089C27.0013 38.4873 27.085 38.4557 27.147 38.405C27.147 38.405 27.147 38.405 27.1476 38.4046C27.1487 38.4036 27.1498 38.4027 27.1503 38.4022C27.1508 38.4018 27.1514 38.4018 27.1519 38.4008L27.1525 38.4004L27.153 38.3999L27.1536 38.3994L27.1541 38.399L27.1546 38.3985L27.1552 38.398C27.1563 38.3976 27.1557 38.3976 27.1563 38.3971C27.1563 38.3971 27.1563 38.3971 27.1568 38.3967L27.1574 38.3962C27.1574 38.3962 27.1574 38.3962 27.1579 38.3957C27.2188 38.3418 27.2569 38.2688 27.2574 38.1878V38.1869V38.1864V38.186V38.1855V38.185V38.1846V38.1841V38.1832C27.2547 38.0641 27.1704 37.9599 27.0492 37.913Z" fill="black" fill-opacity="0.45"/>
<path d="M41.588 37.913C41.588 37.913 41.5874 37.9125 41.5869 37.9125C41.5864 37.9125 41.5858 37.912 41.5853 37.912H41.5847L41.5842 37.9116L41.5836 37.9111H41.5831L41.5826 37.9107L41.582 37.9102C41.5825 37.9097 41.5815 37.9097 41.5809 37.9097L41.5804 37.9093H41.5798C41.5793 37.9093 41.5793 37.9088 41.5793 37.9088C41.5782 37.9093 41.5782 37.9083 41.5782 37.9083L41.5771 37.9079L41.5766 37.9074H41.576L41.5755 37.9069L41.5749 37.9065C41.5744 37.906 41.5739 37.906 41.5739 37.906C41.5733 37.9065 41.5733 37.9055 41.5722 37.9055L41.5717 37.9051L41.5711 37.9046C41.5711 37.9046 41.5706 37.9046 41.57 37.9041C41.5695 37.9037 41.5684 37.9037 41.5679 37.9037C41.5673 37.9037 41.5662 37.9032 41.5657 37.9032C41.5651 37.9027 41.5651 37.9027 41.5646 37.9027C41.5641 37.9027 41.5641 37.9027 41.5635 37.9023C41.5635 37.9023 41.563 37.9023 41.5624 37.9018C41.5608 37.9013 41.5619 37.9013 41.5613 37.9013C41.5597 37.9013 41.5608 37.9014 41.5603 37.9009C41.5603 37.9009 41.5597 37.9004 41.5592 37.9004L41.5586 37.9H41.5581C41.526 37.8902 41.4917 37.8841 41.4559 37.8827H41.4548H41.4542H41.4531H41.4526H41.4521H41.4515L41.451 37.8823H41.4499H41.4488H41.4482H41.4477H41.4472H41.4461H41.445H41.4444H41.4439H41.4434H41.4428H41.4423H41.4417H41.4412H41.4406H41.4401C40.5402 37.8823 39.8034 37.2554 39.798 36.4871V24.3369H41.2003C41.2052 24.3365 41.209 24.3365 41.2144 24.3369C41.4091 24.3369 41.5668 24.2021 41.5668 24.0356C41.5668 23.9095 41.4765 23.8016 41.3482 23.7565L34.6165 19.7829C34.4958 19.7118 34.3365 19.7118 34.2158 19.7829L27.4346 23.7872C27.3074 23.8621 27.2525 23.9993 27.2981 24.1253C27.3443 24.2514 27.4803 24.3369 27.6347 24.3369H29.0311L29.0322 36.4917C29.0381 37.5749 30.0566 38.459 31.3507 38.4864C31.3649 38.4878 31.379 38.4883 31.3931 38.4883H41.4423H41.4482C41.5407 38.4869 41.6244 38.4553 41.6864 38.4046C41.6864 38.4046 41.6864 38.4046 41.687 38.4041C41.688 38.4032 41.6902 38.4022 41.6897 38.4018C41.6902 38.4013 41.6908 38.4013 41.6913 38.4004L41.6918 38.3999L41.6924 38.3994L41.6929 38.399C41.6929 38.399 41.6935 38.399 41.6935 38.3985L41.694 38.398C41.6946 38.398 41.6946 38.3976 41.6946 38.3976C41.6962 38.3971 41.6957 38.3971 41.6957 38.3967C41.6957 38.3967 41.6957 38.3967 41.6962 38.3962C41.6962 38.3962 41.6962 38.3962 41.6967 38.3957C41.6967 38.3957 41.6967 38.3957 41.6973 38.3953C41.7582 38.3413 41.7962 38.2683 41.7968 38.1874V38.1864V38.186V38.1855V38.185V38.1846V38.1841V38.1836V38.1827C41.7935 38.0641 41.7092 37.9599 41.588 37.913Z" fill="black" fill-opacity="0.45"/>
<path d="M56.1641 37.913L56.163 37.9125C56.1624 37.9125 56.1619 37.912 56.1613 37.912H56.1608L56.1603 37.9116L56.1597 37.9111C56.1592 37.9111 56.1592 37.9111 56.1592 37.9106H56.1586L56.1581 37.9102L56.1575 37.9097C56.1575 37.9097 56.157 37.9097 56.157 37.9092H56.1564L56.1559 37.9088C56.1554 37.9092 56.1554 37.9083 56.1548 37.9083C56.1554 37.9078 56.1543 37.9078 56.1537 37.9078L56.1532 37.9074H56.1526L56.1521 37.9069L56.1516 37.9064C56.1499 37.906 56.1505 37.906 56.1505 37.906C56.1499 37.9064 56.1499 37.9055 56.1488 37.9055L56.1483 37.905C56.1488 37.9046 56.1477 37.9046 56.1472 37.9046C56.1472 37.9046 56.1467 37.9046 56.1467 37.9041C56.1461 37.9036 56.145 37.9036 56.1445 37.9036C56.1439 37.9036 56.1429 37.9032 56.1423 37.9032L56.1412 37.9027C56.1412 37.9027 56.1407 37.9027 56.1401 37.9023L56.139 37.9018C56.1374 37.9013 56.1374 37.9013 56.138 37.9013C56.1363 37.9013 56.1363 37.9013 56.1369 37.9009C56.1363 37.9009 56.1363 37.9004 56.1363 37.9004C56.1358 37.9004 56.1352 37.8999 56.1352 37.8999H56.1347C56.1026 37.8902 56.0684 37.8841 56.0325 37.8827H56.0319H56.0308H56.0292H56.0287H56.0281H56.0276C56.027 37.8823 56.027 37.8823 56.0265 37.8823H56.0254H56.0243H56.0238H56.0232H56.0227H56.0216H56.0205C56.0205 37.8823 56.0205 37.8823 56.02 37.8823H56.0194H56.0189H56.0183H56.0178H56.0172H56.0167H56.0189H56.0183C55.1184 37.8823 54.3816 37.2553 54.3762 36.487V27.8417H55.7753H55.7823C55.9808 27.8375 56.1418 27.7092 56.1418 27.5404C56.1418 27.4143 56.0515 27.3064 55.9232 27.2613L49.1915 23.2877C49.0713 23.2166 48.9115 23.2166 48.7908 23.2877L42.0069 27.292C41.8796 27.3669 41.8247 27.5041 41.8704 27.6301C41.9166 27.7562 42.0526 27.8417 42.207 27.8417H43.6061L43.6071 36.4917C43.6142 37.5748 44.6321 38.4594 45.9257 38.4864C45.9398 38.4878 45.954 38.4883 45.9681 38.4883H56.0172H56.0232C56.1157 38.4869 56.1994 38.4552 56.2614 38.4045L56.2619 38.4041C56.263 38.4031 56.2647 38.4022 56.2647 38.4017C56.2652 38.4013 56.2657 38.4013 56.2663 38.4004L56.2668 38.3999L56.2674 38.3994L56.2679 38.399L56.2685 38.3985L56.269 38.398L56.2695 38.3976C56.2712 38.3971 56.2701 38.3971 56.2706 38.3966C56.2706 38.3966 56.2706 38.3966 56.2712 38.3962L56.2717 38.3957C56.2717 38.3957 56.2717 38.3957 56.2723 38.3952C56.3332 38.3413 56.3712 38.2683 56.3718 38.1873V38.1864V38.186V38.1855V38.185V38.1846V38.1841V38.1836V38.1827C56.3696 38.0641 56.2848 37.9599 56.1641 37.913Z" fill="black" fill-opacity="0.45"/>
</svg>
