<svg width="236" height="45" viewBox="0 0 236 45" fill="none" xmlns="http://www.w3.org/2000/svg">
<g clip-path="url(#clip0_218_131)">
<path d="M64.7895 28.3555C66.2785 27.21 66.5076 27.8591 67.8057 29.1574C68.4548 29.8065 70.1347 30.9139 69.0656 31.8685C64.2168 36.0305 56.8863 35.496 52.7247 30.6466C50.8158 28.4319 49.8231 25.6063 49.9376 22.7043C50.014 19.6114 51.3884 16.7094 53.6792 14.6856C55.8555 12.891 58.6426 11.9745 61.4679 12.0509C62.8805 12.0509 64.255 12.3182 65.5531 12.8528C66.4312 13.1964 67.2712 13.6165 68.0348 14.1892C69.562 15.3347 68.8747 16.0602 67.653 17.244L66.8512 18.0458C66.2403 18.6568 65.8204 19.0768 65.0186 18.5422C63.4914 17.3967 61.5061 16.9767 59.6353 17.3967C53.641 18.9622 53.9847 29.6156 61.3152 29.6156C62.6133 29.5392 63.7968 29.1192 64.7895 28.3555ZM231.291 34.1977C230.298 34.1977 229.458 33.3958 229.458 32.3649V8.76708C229.458 7.77429 230.26 6.93424 231.291 6.93424H233.238C234.231 6.93424 235.071 7.73611 235.071 8.76708V32.4031C235.071 33.3958 234.269 34.2359 233.238 34.2359L231.291 34.1977ZM221.021 31.5248C219.188 33.5104 216.554 34.6177 213.843 34.5795C207.734 34.5795 204.832 29.5392 204.832 23.888V14.3038C204.832 13.311 205.634 12.4709 206.665 12.4709H208.612C209.605 12.4709 210.445 13.2728 210.445 14.3038V23.8498C210.101 26.5991 212.048 29.081 214.759 29.4247C214.988 29.4629 215.217 29.4629 215.485 29.4629C218.539 29.3865 220.944 26.8282 220.868 23.8116V14.3038C220.868 13.311 221.67 12.4709 222.701 12.4709H224.648C225.64 12.4709 226.48 13.2728 226.48 14.3038V32.4412C226.48 33.434 225.679 34.2359 224.686 34.2359H223.044C222.052 34.1977 221.288 33.434 221.25 32.4412V31.5248H221.021ZM197.578 12.5473H201.396C202.389 12.5473 203.191 13.3874 203.191 14.3801V15.6402C203.191 16.633 202.389 17.4731 201.396 17.4731H197.578V32.4031C197.578 33.3958 196.777 34.2359 195.746 34.2359H193.799C192.806 34.2359 191.966 33.434 191.966 32.4031V11.7836C191.584 7.46882 194.753 3.68859 199.029 3.30675H202.084C203.076 3.30675 203.878 4.1468 203.878 5.13959V6.28511C203.878 7.2779 203.076 8.11795 202.084 8.11795H200.633C198.456 8.11795 197.54 9.79805 197.54 11.8218L197.578 12.5473ZM183.986 12.5473H188.148C189.141 12.5473 189.942 13.3492 189.942 14.342V15.5639C189.942 16.5566 189.141 17.3585 188.148 17.3585H183.986V26.4845C183.986 28.241 184.826 29.272 186.621 29.272H187.461C188.453 29.272 189.255 30.0738 189.255 31.0666V32.2885C189.255 33.2813 188.453 34.0832 187.461 34.0832H184.941C180.436 33.8159 178.412 30.8757 178.412 26.4845V8.80526C178.412 7.81247 179.214 7.01061 180.207 7.01061H182.116C183.108 7.01061 183.91 7.81247 183.91 8.80526L183.986 12.5473ZM123.739 12.5473H127.9C128.893 12.5473 129.695 13.3492 129.695 14.342V15.5639C129.695 16.5566 128.893 17.3585 127.9 17.3585H123.853V26.4845C123.853 28.241 124.693 29.272 126.488 29.272H127.328C128.32 29.272 129.122 30.0738 129.122 31.0666V32.2885C129.122 33.2813 128.32 34.0832 127.328 34.0832H126.068C121.143 34.0832 118.317 31.983 118.317 26.4463V8.80526C118.317 7.81247 119.119 7.01061 120.112 7.01061H122.021C123.013 7.01061 123.815 7.81247 123.815 8.80526V12.5473H123.739ZM99.3039 15.182C101.098 13.2728 103.618 12.1655 106.253 12.1273C112.323 12.1273 115.53 17.1294 115.53 22.8188V32.4031C115.53 33.3958 114.729 34.2359 113.698 34.2359H111.75C110.758 34.2359 109.918 33.434 109.918 32.4031V22.857C110.261 20.1078 108.314 17.6258 105.604 17.2821C105.374 17.244 105.107 17.244 104.878 17.244C101.824 17.3203 99.4185 19.8787 99.533 22.8952V32.3649C99.533 33.3577 98.7312 34.1595 97.7385 34.1595H95.8296C94.8369 34.1595 94.0351 33.3577 94.0351 32.3649V14.2656C94.0351 13.2728 94.8369 12.4709 95.8296 12.4709H97.4713C98.464 12.5091 99.2276 13.2728 99.2657 14.2656L99.3039 15.182ZM159.59 15.182C161.384 13.2728 163.904 12.1655 166.538 12.1273C172.609 12.1273 175.816 17.1294 175.816 22.8188V32.4031C175.816 33.3958 175.014 34.2359 173.983 34.2359H172.036C171.043 34.2359 170.204 33.434 170.204 32.4031V22.857C170.547 20.1078 168.6 17.6258 165.889 17.2821C165.66 17.244 165.393 17.244 165.164 17.244C162.109 17.3203 159.704 19.8787 159.819 22.8952V32.3649C159.819 33.3577 159.017 34.1595 158.024 34.1595H156.077C155.084 34.1595 154.283 33.3577 154.283 32.3649V14.2656C154.283 13.2728 155.084 12.4709 156.077 12.4709H157.719C158.711 12.5091 159.475 13.2728 159.513 14.2656V15.2202L159.59 15.182ZM80.7868 12.0509C74.7544 11.86 69.7147 16.5566 69.5238 22.5897V23.3916C69.5238 29.6538 74.6017 34.6941 80.825 34.6941C87.0482 34.6941 92.1261 29.6156 92.1261 23.3916C92.317 17.3203 87.5828 12.2418 81.5122 12.0509H80.7868ZM135.613 25.4154C136.3 28.2028 138.973 30.0738 141.836 29.692C143.249 29.6538 144.661 29.3483 145.921 28.7756L146.532 28.4701C147.219 28.0882 147.83 27.8591 148.441 28.4701L149.434 29.4629C149.739 29.7684 150.045 30.112 150.312 30.4175C151.228 31.563 150.579 31.8685 149.548 32.5558C147.219 34.0832 144.509 34.885 141.722 34.885C134.544 34.885 129.771 30.532 129.771 23.277C129.504 17.2821 134.124 12.1655 140.156 11.8982H141.378C148.327 11.8982 152.335 15.9839 152.45 22.9716C152.45 24.8808 152.565 25.4917 150.579 25.4917L135.613 25.4154ZM80.9777 17.1294C84.2611 17.2058 86.8573 19.9168 86.781 23.2007V23.3534C87.0482 26.4845 84.7575 29.272 81.5886 29.5774C78.4578 29.8447 75.6707 27.5537 75.3653 24.3844C75.3271 24.0407 75.3271 23.6971 75.3653 23.3534C75.098 20.1841 77.4652 17.3967 80.6341 17.1676H81.054L80.9777 17.1294ZM135.88 20.6805H147.028C146.57 18.1222 144.165 16.4039 141.607 16.7857C139.049 16.6712 136.72 18.2749 135.88 20.6805Z" fill="#959B9E"/>
<path fill-rule="evenodd" clip-rule="evenodd" d="M37.3617 5.08041C37.3586 5.07778 37.3554 5.075 37.352 5.07209C37.3238 5.04778 37.2836 5.01364 37.2318 4.97069C37.1282 4.8848 36.9779 4.7636 36.7834 4.6153C36.3945 4.31884 35.8277 3.91328 35.1022 3.46484C33.6534 2.56923 31.5595 1.49497 28.9775 0.782762C23.778 -0.6514 16.6598 -0.594857 8.97019 5.178L8.96665 5.18066L8.96313 5.18335L9.5432 5.94145C8.96313 5.18335 8.96276 5.18364 8.96236 5.18395L8.96139 5.18468L8.95891 5.18659L8.95175 5.19214C8.946 5.19661 8.93831 5.20262 8.92875 5.21016C8.90963 5.22524 8.88302 5.24647 8.84942 5.27381C8.78224 5.3285 8.6871 5.4077 8.56811 5.51121C8.33019 5.71817 7.99651 6.02269 7.60014 6.42317C6.80801 7.22351 5.76165 8.41101 4.72866 9.97308C2.661 13.0998 0.639888 17.7402 0.838759 23.7667C1.03891 29.8319 3.69477 34.2931 6.27917 37.2208C7.57078 38.6839 8.84969 39.7707 9.80856 40.4937C10.2885 40.8556 10.6898 41.1274 10.9745 41.3108C11.117 41.4025 11.2304 41.4722 11.3101 41.5199C11.3499 41.5438 11.3813 41.5623 11.4038 41.5753C11.4055 41.5763 11.4072 41.5773 11.4089 41.5782C11.4131 41.581 11.4177 41.584 11.4227 41.5873C11.4498 41.605 11.4883 41.6298 11.5377 41.6609C11.6366 41.7231 11.7795 41.8105 11.9637 41.9171C12.3319 42.1302 12.8661 42.4202 13.5444 42.7374C14.8994 43.3712 16.8393 44.1185 19.1873 44.5757C23.8887 45.4913 30.2204 45.2383 36.7015 40.6203C36.7106 40.6152 36.7206 40.6096 36.7315 40.6034C36.7842 40.5735 36.8574 40.5307 36.9472 40.4754C37.1266 40.3649 37.3739 40.2032 37.6571 39.9922C38.2189 39.5735 38.9461 38.9429 39.5611 38.1111C40.1778 37.277 40.7027 36.2109 40.8006 34.9385C40.8994 33.6538 40.5553 32.2515 39.5874 30.7728L39.5486 30.7135L39.5014 30.6606L38.7888 31.2957C39.5014 30.6606 39.5012 30.6603 39.5009 30.66L39.5002 30.6593L39.4987 30.6576L39.4946 30.6531L39.4827 30.64C39.4731 30.6294 39.4601 30.6154 39.4438 30.5982C39.4113 30.5637 39.3657 30.5164 39.308 30.4591C39.1927 30.3446 39.0277 30.1886 38.8206 30.014C38.411 29.6686 37.814 29.2309 37.0927 28.9037C36.3715 28.5766 35.4807 28.3401 34.512 28.4641C33.5235 28.5906 32.551 29.0806 31.6714 30.0393C30.3183 31.514 27.8394 33.0879 24.9079 33.5256C22.0242 33.9563 18.6635 33.2961 15.4273 30.2562C12.2889 27.3082 11.5299 22.7276 12.8712 18.7878C14.202 14.8785 17.5652 11.7086 22.599 11.5156L22.6425 11.514L22.6822 11.5088C22.6822 11.5088 22.6825 11.5087 22.683 11.5087C22.6836 11.5086 22.6844 11.5085 22.6855 11.5084C22.6899 11.5079 22.6986 11.5069 22.7114 11.5056C22.7372 11.503 22.7796 11.4992 22.8374 11.4952C22.9531 11.4874 23.1301 11.4791 23.3585 11.4799C23.8158 11.4815 24.4752 11.5194 25.2589 11.6669C26.8145 11.9597 28.8504 12.682 30.7829 14.4074C30.7883 14.4134 30.7942 14.4198 30.8005 14.4266C30.8362 14.4652 30.8863 14.5181 30.9499 14.5821C31.077 14.7097 31.2594 14.883 31.49 15.0757C31.9467 15.4574 32.6154 15.9344 33.4368 16.2742C34.2623 16.6156 35.2703 16.8292 36.3739 16.6367C37.4866 16.4426 38.6068 15.851 39.6711 14.7328C40.7783 13.5696 41.2215 12.3146 41.1823 11.0804C41.1443 9.88223 40.6557 8.8041 40.0882 7.93828C39.5173 7.06726 38.826 6.34897 38.2893 5.85483C38.0186 5.60562 37.7816 5.40827 37.6102 5.27174C37.5244 5.20338 37.4547 5.14998 37.405 5.11267C37.3882 5.10008 37.3737 5.08931 37.3617 5.08041ZM32.1794 13.1056L32.1805 13.1068C32.1843 13.111 32.1915 13.119 32.202 13.1303C32.223 13.153 32.257 13.189 32.303 13.2353C32.3954 13.3281 32.5348 13.4608 32.714 13.6106C33.0769 13.9139 33.5799 14.2673 34.1664 14.5099C34.7488 14.7508 35.3849 14.8712 36.0459 14.7559C36.6978 14.6422 37.4628 14.2839 38.2884 13.4165C39.071 12.5942 39.296 11.8254 39.2743 11.1409C39.2514 10.4203 38.9502 9.68465 38.4916 8.98492C38.0364 8.29039 37.4654 7.69132 36.9964 7.25951C36.7642 7.04573 36.5624 6.87794 36.4208 6.76508C36.3501 6.70875 36.2947 6.66639 36.2584 6.63912C36.2402 6.62549 36.2269 6.61566 36.2188 6.60975L36.211 6.60402L36.2105 6.60367L36.2101 6.60341L36.2098 6.60319L36.1687 6.57386L36.1309 6.54014L36.1306 6.53984L36.1299 6.53928L36.1271 6.53683C36.1232 6.53342 36.1164 6.52745 36.1067 6.51907C36.0872 6.5023 36.0561 6.47583 36.0137 6.44068C35.9288 6.37036 35.7989 6.26537 35.6261 6.1337C35.2805 5.87022 34.7649 5.50077 34.0985 5.08887C32.7638 4.26381 30.8369 3.27613 28.4699 2.62325C23.7726 1.32759 17.2819 1.32798 10.1219 6.70064L10.111 6.70915C10.0994 6.71833 10.0804 6.73346 10.0545 6.75453C10.0027 6.79666 9.92355 6.86248 9.82092 6.95175C9.61559 7.13036 9.31692 7.40248 8.95686 7.76628C8.23612 8.4945 7.27328 9.58612 6.32092 11.0263C4.4179 13.904 2.56378 18.1605 2.7467 23.7038C2.92835 29.2084 5.33129 33.2623 7.71025 35.9572C8.90032 37.3053 10.0792 38.3068 10.9577 38.9692C11.3965 39.3 11.7588 39.5451 12.008 39.7055C12.1325 39.7857 12.2286 39.8447 12.2918 39.8825C12.3233 39.9014 12.3466 39.9151 12.361 39.9235L12.3772 39.9328L12.3778 39.9331L12.3782 39.9333L12.412 39.9523L12.4441 39.974L12.4445 39.9742L12.4451 39.9747L12.4474 39.9762C12.4509 39.9785 12.4573 39.9828 12.4664 39.9887C12.4847 40.0007 12.514 40.0196 12.554 40.0448C12.6341 40.0951 12.7569 40.1704 12.9196 40.2646C13.2453 40.453 13.7304 40.7167 14.3531 41.008C15.6003 41.5913 17.3901 42.2807 19.5521 42.7017C23.8594 43.5405 29.6497 43.3195 35.6371 39.0345L35.6896 38.9969L35.7446 38.9679L35.745 38.9677L35.7455 38.9674L35.746 38.9671L35.7467 38.9667L35.7516 38.9641C35.7587 38.9602 35.7711 38.9533 35.7883 38.9435C35.8229 38.9239 35.8767 38.8925 35.9461 38.8498C36.0852 38.7641 36.285 38.6338 36.5166 38.4612C36.9844 38.1125 37.5577 37.6096 38.0261 36.976C38.4927 36.3449 38.834 35.6139 38.8972 34.7921C38.9583 33.9981 38.767 33.0314 38.0336 31.8856C38.0153 31.8666 37.9916 31.8423 37.9627 31.8136C37.8784 31.7299 37.7517 31.6099 37.5902 31.4737C37.2625 31.1974 36.8143 30.8738 36.3043 30.6425C35.7942 30.4112 35.2675 30.2921 34.7544 30.3578C34.261 30.421 33.6873 30.6661 33.0779 31.3302C31.4529 33.1012 28.5867 34.9066 25.1899 35.4139C21.7454 35.9283 17.7947 35.0993 14.1204 31.6479C10.3482 28.1046 9.52272 22.7 11.0641 18.1725C12.6125 13.624 16.5856 9.85063 22.4889 9.60929C22.4984 9.60826 22.5091 9.60714 22.521 9.60595C22.5661 9.60143 22.6287 9.59585 22.7075 9.59047C22.865 9.57972 23.0877 9.56975 23.3652 9.57073C23.9197 9.5727 24.6968 9.61837 25.612 9.79065C27.4445 10.1356 29.8405 10.9905 32.0968 13.0215L32.1407 13.061L32.1774 13.1032L32.1777 13.1036L32.1789 13.1049L32.1794 13.1056Z" fill="#959B9E"/>
<path fill-rule="evenodd" clip-rule="evenodd" d="M5.64941 10.5999C5.64941 7.49909 8.16136 4.98685 11.2618 4.98685C14.3623 4.98685 16.8742 7.49909 16.8742 10.5999C16.8742 13.7007 14.3623 16.213 11.2618 16.213C8.16136 16.213 5.64941 13.7007 5.64941 10.5999ZM11.2618 6.89605C9.21567 6.89605 7.5584 8.55352 7.5584 10.5999C7.5584 12.6463 9.21567 14.3038 11.2618 14.3038C13.308 14.3038 14.9652 12.6463 14.9652 10.5999C14.9652 8.55352 13.308 6.89605 11.2618 6.89605ZM5.87849 34.3504C5.87849 31.2496 8.39044 28.7374 11.4909 28.7374C14.5914 28.7374 17.1033 31.2496 17.1033 34.3504C17.1033 37.4513 14.5914 39.9635 11.4909 39.9635C8.39044 39.9635 5.87849 37.4513 5.87849 34.3504ZM11.4909 30.6466C9.44474 30.6466 7.78747 32.304 7.78747 34.3504C7.78747 36.3968 9.44474 38.0543 11.4909 38.0543C13.5371 38.0543 15.1943 36.3968 15.1943 34.3504C15.1943 32.304 13.5371 30.6466 11.4909 30.6466Z" fill="#959B9E"/>
</g>
<defs>
<clipPath id="clip0_218_131">
<rect width="234.244" height="45" fill="white" transform="translate(0.827148)"/>
</clipPath>
</defs>
</svg>
