<svg width="46" height="45" viewBox="0 0 46 45" fill="none" xmlns="http://www.w3.org/2000/svg">
<g clip-path="url(#clip0_218_156)">
<path d="M10.9178 0.0896351C11.4651 -0.108501 12.0776 0.0278272 12.4892 0.439383L18.7251 6.67539C18.6895 6.72975 18.6569 6.78708 18.6278 6.84723L7.4541 29.9653L10.9178 0.0896351Z" fill="black" fill-opacity="0.45"/>
<path d="M7.71387 35.8206L22.6567 44.7864C23.0587 45.0276 23.5503 45.0669 23.9855 44.8926L38.9855 38.8926C39.6116 38.6424 39.9938 38.0046 39.9191 37.3344L36.9191 10.3344C36.8573 9.77708 36.4898 9.30084 35.9663 9.09978C35.4428 8.89872 34.8509 9.00639 34.4318 9.3789L29.4667 13.7924L7.71387 35.8206Z" fill="black" fill-opacity="0.45"/>
<path d="M27.7435 11.268L24.6768 6.66795C24.3866 6.23271 23.8907 5.98008 23.3681 6.00123C22.8454 6.02238 22.3715 6.31428 22.1175 6.77154L21.1881 8.4444L12.2305 26.9775L27.7435 11.268Z" fill="black" fill-opacity="0.45"/>
</g>
<defs>
<clipPath id="clip0_218_156">
<rect width="45" height="45" fill="white" transform="translate(0.928711)"/>
</clipPath>
</defs>
</svg>
