<svg width="45" height="45" viewBox="0 0 45 45" fill="none" xmlns="http://www.w3.org/2000/svg">
<path d="M22.5701 11.8696C31.8346 4.67729 27.0798 0 27.0798 0C27.7874 7.43538 19.4248 9.19101 17.1831 14.3004C15.6535 17.787 18.2306 20.8396 22.567 24.6873C22.1837 23.8351 21.5924 23.0071 20.9939 22.1688C18.9521 19.3096 16.8253 16.3311 22.5701 11.8696Z" fill="black" fill-opacity="0.45"/>
<path d="M24.0491 26.2646C24.0491 26.2646 26.8363 24.0158 24.6291 21.5168C17.1467 13.0386 32.8126 9.19104 32.8126 9.19104C23.2479 13.7989 24.6758 16.5339 27.0799 19.8566C29.6539 23.4194 24.0491 26.2646 24.0491 26.2646Z" fill="black" fill-opacity="0.45"/>
<path d="M32.2556 32.9704C40.8411 28.5832 36.8716 24.3672 34.1008 24.9352C33.4216 25.0742 33.1189 25.1947 33.1189 25.1947C33.1189 25.1947 33.371 24.8063 33.8525 24.6381C39.3339 22.7432 43.5494 30.2272 32.083 33.1915C32.083 33.1915 32.2159 33.0747 32.2556 32.9704Z" fill="black" fill-opacity="0.45"/>
<path d="M14.3899 27.4175C9.01824 26.7121 17.3353 24.7695 17.3353 24.7695C17.3353 24.7695 14.1055 24.5554 10.1331 26.4435C5.43603 28.6779 21.7518 29.6941 30.1976 27.5097C31.0757 26.9201 32.2893 26.4091 32.2893 26.4091C32.2893 26.4091 28.8331 27.016 25.3912 27.3016C21.1796 27.6485 16.6581 27.7162 14.3899 27.4175Z" fill="black" fill-opacity="0.45"/>
<path d="M16.4336 31.6066C13.4381 31.302 15.3994 29.8743 15.3994 29.8743C7.64817 32.4041 19.7121 35.273 30.5432 32.1584C29.3919 31.7593 28.6598 31.0294 28.6598 31.0294C23.3663 32.0317 20.3073 31.9997 16.4336 31.6066Z" fill="black" fill-opacity="0.45"/>
<path d="M17.7392 36.1394C14.746 35.801 16.4947 34.801 16.4947 34.801C9.45843 36.7343 20.7745 40.7285 29.7328 36.953C28.2656 36.3919 27.215 35.7442 27.215 35.7442C23.2188 36.4878 21.3654 36.5462 17.7392 36.1394Z" fill="black" fill-opacity="0.45"/>
<path d="M36.4763 38.4452C36.4763 38.4452 37.7703 39.4937 35.0511 40.3048C29.8801 41.8452 13.5294 42.3104 8.98726 40.3663C7.35446 39.6678 10.4164 38.6985 11.3796 38.495C12.3841 38.2808 12.9581 38.3207 12.9581 38.3207C11.1423 37.0628 1.22131 40.7907 7.91875 41.8583C26.1837 44.7711 41.214 40.5465 36.4763 38.4452Z" fill="black" fill-opacity="0.45"/>
<path d="M39.3752 40.7361C39.0756 44.5706 26.4204 45.3773 18.1794 44.8585C12.8032 44.5195 11.7257 43.6722 11.71 43.6598C16.8554 44.494 25.5306 44.6459 32.5645 43.3441C38.7991 42.1897 39.3752 40.7361 39.3752 40.7361Z" fill="black" fill-opacity="0.45"/>
</svg>
