<svg width="174" height="45" viewBox="0 0 174 45" fill="none" xmlns="http://www.w3.org/2000/svg">
<path d="M64.0642 20.6701C64.0642 9.25719 49.9037 3.8147e-05 32.4462 3.8147e-05C14.9886 3.8147e-05 0.828125 9.29946 0.828125 20.6701V21.896C0.828125 33.9852 13.2133 43.7919 32.4462 43.7919C51.8059 43.7919 64.0642 33.9852 64.0642 21.896V20.6701Z" fill="black" fill-opacity="0.45"/>
<path d="M62.8775 20.6685C62.8775 31.4051 49.2665 40.1128 32.4853 40.1128C15.6618 40.1128 2.05078 31.4051 2.05078 20.6685C2.05078 9.93194 15.6618 1.2243 32.443 1.2243C49.2665 1.18203 62.8775 9.93194 62.8775 20.6685Z" fill="black" fill-opacity="0.45"/>
<path d="M22.3701 14.5116C22.3701 14.5539 22.032 14.8497 22.2433 15.1034C22.7083 15.7374 24.1877 16.0756 25.7095 15.7374C26.5971 15.5261 27.7384 14.6384 28.8375 13.7507C30.021 12.7785 31.2469 11.8486 32.4304 11.4681C33.6985 11.0454 34.5017 11.2568 35.0512 11.3836C35.6429 11.5527 36.3193 11.9331 37.4183 12.7785C39.4895 14.3425 47.859 21.6552 49.2962 22.9233C50.4798 22.4161 55.6367 20.1758 62.6535 18.6118C62.0618 14.8497 59.7792 11.4259 56.313 8.63604C51.5365 10.665 45.6187 11.7218 39.87 8.88966C39.8277 8.88966 36.742 7.41021 33.6562 7.49475C29.0911 7.57929 27.1044 9.56599 24.9909 11.6795L22.3701 14.5116Z" fill="white"/>
<path d="M48.9712 23.7022C48.8866 23.6177 39.1645 15.1214 36.9242 13.4306C35.6561 12.4584 34.9375 12.247 34.1766 12.1202C33.7962 12.078 33.2467 12.1625 32.8663 12.247C31.8518 12.5429 30.4991 13.4306 29.3156 14.3606C28.0897 15.3328 26.9062 16.2627 25.8494 16.5163C24.4545 16.8122 22.806 16.4741 22.0028 15.9245C21.7069 15.7132 21.4533 15.4596 21.3688 15.2482C21.0729 14.5719 21.6224 14.0647 21.7069 13.9801L24.4122 11.0635L25.3422 10.1335C24.4968 10.2604 23.6936 10.4717 22.8905 10.6831C21.9183 10.9789 20.9884 11.2326 20.0161 11.2326C19.6357 11.2326 17.5222 10.8944 17.0995 10.7676C14.6901 10.1335 12.5766 9.45722 9.36407 7.97777C5.55976 10.8099 2.98129 14.3606 2.2627 18.2917C2.81221 18.4185 3.69988 18.7144 4.08031 18.7989C12.7457 20.7433 15.4087 22.6878 15.9159 23.1105C16.4655 22.5187 17.2263 22.1383 18.0717 22.1383C19.0439 22.1383 19.8893 22.6032 20.3966 23.3641C20.9038 22.9837 21.5801 22.6455 22.4678 22.6455C22.8482 22.6455 23.2709 22.73 23.6936 22.8568C24.6659 23.195 25.1731 23.8291 25.4267 24.4208C25.7649 24.2518 26.1453 24.1672 26.6103 24.1672C27.0752 24.1672 27.5825 24.2518 28.0475 24.4631C29.6537 25.1394 29.9073 26.7034 29.7383 27.887H30.0764C31.9786 27.887 33.5003 29.4087 33.5003 31.3109C33.5003 31.9026 33.3312 32.4522 33.0776 32.9171C33.5848 33.213 34.8952 33.8471 36.0365 33.7203C36.9665 33.5935 37.3046 33.2976 37.4314 33.1285C37.516 33.0017 37.6005 32.8749 37.516 32.748L35.0643 30.0428C35.0643 30.0428 34.6416 29.6623 34.8107 29.5355C34.9375 29.3664 35.1911 29.6201 35.3602 29.7469C36.586 30.8036 38.1077 32.3676 38.1077 32.3676C38.15 32.3676 38.2346 32.579 38.7841 32.6635C39.249 32.7481 40.1367 32.7058 40.7285 32.1985C40.8976 32.0717 41.0244 31.9026 41.1512 31.7758L41.1089 31.8181C41.743 31.015 41.0244 30.2118 41.0244 30.2118L38.2768 26.9993C38.2768 26.9993 37.8541 26.6189 38.0232 26.4498C38.15 26.323 38.4036 26.5343 38.5727 26.6612C39.4604 27.422 40.7708 28.6901 41.9543 29.8737C42.2079 30.0428 43.2647 30.7191 44.7019 29.7891C45.5473 29.2396 45.7164 28.521 45.7164 28.0138C45.6741 27.3375 45.1246 26.8302 45.1246 26.8302L41.2357 22.9414C41.2357 22.9414 40.813 22.6032 40.9821 22.3919C41.1089 22.2228 41.3625 22.4764 41.5316 22.6032C42.7575 23.66 46.1391 26.7034 46.1391 26.7034C46.1813 26.7457 47.3649 27.5488 48.7598 26.6612C49.2671 26.323 49.6052 25.858 49.6475 25.2662C49.6898 24.294 48.9712 23.7022 48.9712 23.7022Z" fill="white"/>
<path d="M30.1234 28.6785C29.5316 28.6785 28.8553 29.0166 28.7707 28.9744C28.7285 28.9321 28.813 28.7208 28.8553 28.5517C28.8975 28.4249 29.7007 26.0155 27.7563 25.2123C26.2768 24.5783 25.3891 25.2969 25.051 25.635C24.9664 25.7196 24.9242 25.7196 24.9242 25.5928C24.8819 25.1701 24.7128 23.9865 23.4447 23.6061C21.6271 23.0566 20.4435 24.3247 20.1476 24.7896C20.0208 23.7329 19.1331 22.9297 18.0764 22.9297C16.8928 22.9297 15.9629 23.8597 15.9629 25.0433C15.9629 26.2268 16.8928 27.1568 18.0764 27.1568C18.6259 27.1568 19.1754 26.9454 19.5558 26.565V26.6495C19.4713 27.1568 19.3022 29.1012 21.2889 29.862C22.0921 30.1579 22.7684 29.9466 23.3179 29.5239C23.487 29.3971 23.5292 29.4393 23.487 29.6084C23.4024 30.1157 23.487 31.1301 24.9664 31.7642C26.0654 32.2292 26.7418 31.7642 27.1645 31.3415C27.3335 31.1724 27.4181 31.2147 27.4181 31.4683C27.4604 32.9055 28.6439 34.0045 30.0811 34.0045C31.5606 34.0045 32.7441 32.821 32.7441 31.3415C32.7864 29.862 31.6028 28.6785 30.1234 28.6785Z" fill="white"/>
<path d="M30.1237 33.8149C28.7711 33.8149 27.7143 32.7582 27.672 31.4478C27.672 31.321 27.672 31.0251 27.4184 31.0251C27.3339 31.0251 27.2071 31.0674 27.1225 31.1942C26.7844 31.4901 26.4039 31.7437 25.8544 31.7437C25.6008 31.7437 25.3472 31.7014 25.0513 31.5746C23.6564 30.9828 23.6141 30.0106 23.6987 29.6302C23.6987 29.5456 23.6987 29.4188 23.6564 29.3343L23.5718 29.2497H23.4873C23.4028 29.2497 23.3182 29.292 23.2337 29.3343C22.811 29.6302 22.4306 29.757 22.0501 29.757C21.8388 29.757 21.6274 29.7147 21.3738 29.6302C19.5139 28.9116 19.683 27.1362 19.7675 26.629C19.7675 26.5022 19.7675 26.4599 19.683 26.3754L19.5139 26.2908L19.3871 26.4176C19.0067 26.7558 18.5417 26.9672 18.0345 26.9672C16.9777 26.9672 16.09 26.1218 16.09 25.0227C16.09 23.9237 16.9777 23.0783 18.0345 23.0783C19.0067 23.0783 19.8098 23.7969 19.9366 24.7691L20.0212 25.2764L20.3171 24.8537C20.3593 24.8114 21.1202 23.6278 22.5574 23.6278C22.811 23.6278 23.1069 23.6701 23.4028 23.7546C24.5441 24.0928 24.7554 25.1495 24.7554 25.5722C24.7977 25.8259 24.9668 25.8259 25.009 25.8259C25.0936 25.8259 25.1781 25.7836 25.2204 25.6991C25.4317 25.4877 25.8967 25.1073 26.6576 25.1073C26.9957 25.1073 27.3339 25.1918 27.7143 25.3609C29.5319 26.1218 28.6865 28.4466 28.6865 28.4889C28.5175 28.8693 28.5175 29.0384 28.6865 29.1229L28.7711 29.1652H28.8133C28.8979 29.1652 28.9824 29.1229 29.1515 29.0807C29.4051 28.9961 29.7856 28.8693 30.1237 28.8693C31.4764 28.8693 32.6177 30.0106 32.6177 31.3633C32.5754 32.7159 31.4764 33.8149 30.1237 33.8149ZM49.3566 22.6979C46.3554 20.0771 39.4231 14.0325 37.5633 12.6376C36.5065 11.8345 35.7456 11.4118 35.1116 11.2004C34.8157 11.1159 34.393 11.0313 33.8858 11.0313C33.4208 11.0313 32.9135 11.1159 32.364 11.2849C31.1382 11.6654 29.9546 12.6376 28.7711 13.5675L28.7288 13.6098C27.6298 14.4552 26.5308 15.3852 25.6431 15.5542C25.2627 15.6388 24.8822 15.681 24.5018 15.681C23.5296 15.681 22.6842 15.3852 22.3883 15.0047C22.346 14.9202 22.3883 14.8356 22.4728 14.6666V14.6243L25.0936 11.7922C27.1648 9.72095 29.1092 7.77653 33.5899 7.64972H33.8012C36.591 7.64972 39.3809 8.91782 39.719 9.04463C42.3398 10.3127 45.0451 10.9891 47.7926 10.9891C50.6247 10.9891 53.5414 10.2705 56.6271 8.87555C56.2889 8.57966 55.9085 8.32604 55.5703 8.03015C52.9073 9.21371 50.3288 9.80549 47.8349 9.80549C45.2987 9.80549 42.7625 9.17144 40.3108 7.98788C40.184 7.94561 37.0983 6.46616 33.8858 6.46616H33.6321C29.8701 6.5507 27.7143 7.90334 26.3194 9.0869C24.9245 9.12918 23.7409 9.46733 22.6419 9.76323C21.6697 10.0168 20.8666 10.2705 20.0634 10.2705C19.7253 10.2705 19.1335 10.2282 19.0912 10.2282C18.1613 10.1859 13.5116 9.04463 9.79179 7.64972C9.41136 7.90334 9.03093 8.19923 8.69277 8.49512C12.5394 10.0591 17.2736 11.285 18.7531 11.4118C19.1758 11.454 19.5985 11.4963 20.0634 11.4963C21.0356 11.4963 22.0079 11.2004 22.9801 10.9468C23.5296 10.7777 24.1636 10.6086 24.7977 10.4818L24.2904 10.9891L21.6274 13.9057C21.4161 14.117 20.9511 14.7088 21.247 15.3851C21.3738 15.681 21.6274 15.9347 21.9656 16.1883C22.5996 16.611 23.7409 16.9069 24.7977 16.9069C25.2204 16.9069 25.6008 16.8646 25.939 16.7801C27.0803 16.5264 28.2216 15.5965 29.4897 14.582C30.5041 13.7789 31.8991 12.8067 32.9981 12.5108C33.294 12.4262 33.6744 12.384 33.9703 12.384H34.2239C34.9425 12.4685 35.6188 12.7221 36.8869 13.6521C39.085 15.3006 48.8494 23.8392 48.9339 23.9237C48.9339 23.9237 49.568 24.4732 49.5257 25.3609C49.4834 25.8681 49.2298 26.2908 48.7648 26.5867C48.3421 26.8403 47.9194 26.9672 47.4967 26.9672C46.8627 26.9672 46.3977 26.6713 46.3554 26.629C46.3132 26.5867 42.9738 23.5433 41.748 22.5288C41.5366 22.3597 41.3676 22.2329 41.1562 22.2329C41.0717 22.2329 40.9449 22.2752 40.9026 22.3597C40.6912 22.6133 40.9449 22.9092 41.1985 23.1629L45.0873 27.094C45.0873 27.094 45.5523 27.5589 45.6368 28.1507C45.6791 28.7848 45.341 29.3343 44.7069 29.757C44.2419 30.0529 43.777 30.222 43.312 30.222C42.7202 30.222 42.2975 29.9683 42.213 29.8838L41.6635 29.3343C40.649 28.3198 39.5922 27.3053 38.8314 26.629C38.5355 26.4176 38.3241 26.2486 38.1128 26.2486C38.0282 26.2486 37.9437 26.2908 37.8591 26.3331C37.7746 26.4176 37.6901 26.5867 37.9437 26.8826C38.0282 27.0094 38.155 27.094 38.155 27.094L40.9871 30.3065C41.0294 30.3488 41.5789 31.0251 41.0294 31.6591L40.9449 31.786L40.6912 32.0396C40.2263 32.42 39.5499 32.4623 39.2963 32.4623C39.1695 32.4623 39.0427 32.4623 38.9159 32.42C38.62 32.3777 38.4509 32.2932 38.3664 32.1664L38.3241 32.1241C38.155 31.955 36.7178 30.5178 35.5343 29.5034C35.3652 29.3766 35.1961 29.2075 34.9848 29.2075C34.9002 29.2075 34.8157 29.2497 34.7312 29.3343C34.4775 29.5879 34.858 29.9683 34.9848 30.1374L37.3942 32.8004C37.3942 32.8427 37.3519 32.885 37.3096 32.9695C37.2251 33.0963 36.9292 33.3922 36.0415 33.4768H35.7034C34.7734 33.4768 33.8435 33.0541 33.3362 32.7582C33.5476 32.2932 33.6744 31.7437 33.6744 31.2364C33.6744 29.2497 32.0681 27.6012 30.0392 27.6012H29.9124C29.9969 26.6713 29.8701 24.9805 28.0947 24.2196C27.5875 24.0083 27.0803 23.8814 26.573 23.8814C26.1926 23.8814 25.8122 23.966 25.474 24.0928C25.0936 23.3742 24.5018 22.867 23.6987 22.5711C23.3182 22.5288 22.8955 22.4443 22.4306 22.4443C21.712 22.4443 20.9934 22.6556 20.4016 23.0783C19.8098 22.3597 18.9221 21.937 18.0345 21.937C17.2313 21.937 16.4705 22.2752 15.8787 22.8247C15.1178 22.2329 12.1166 20.3308 4.1276 18.5131C3.74717 18.4286 2.85949 18.175 2.30998 18.0059C2.22544 18.4286 2.1409 18.8936 2.09863 19.3163C2.09863 19.3163 3.57809 19.6544 3.87398 19.739C12.0744 21.5566 14.7797 23.4587 15.2446 23.7969C15.0756 24.1773 14.991 24.5578 14.991 24.9805C14.991 26.6713 16.3859 28.0662 18.0767 28.0662C18.2458 28.0662 18.4572 28.0662 18.6262 28.0239C18.8799 29.2497 19.683 30.222 20.9511 30.6869C21.3315 30.8137 21.6697 30.8983 22.0501 30.8983C22.3037 30.8983 22.5151 30.856 22.7687 30.8137C22.9801 31.4055 23.5296 32.1241 24.6709 32.5891C25.0936 32.7582 25.474 32.8427 25.8967 32.8427C26.2349 32.8427 26.5308 32.8004 26.8266 32.6736C27.3762 34.0263 28.6865 34.9139 30.166 34.9139C31.1382 34.9139 32.0681 34.5335 32.7445 33.8149C33.3362 34.1531 34.5621 34.7449 35.7879 34.7449C35.957 34.7449 36.0838 34.7449 36.2529 34.7026C37.4787 34.5335 38.0705 34.0685 38.3241 33.6881C38.3664 33.6036 38.4087 33.5613 38.4509 33.4768C38.7468 33.5613 39.0427 33.6458 39.4231 33.6458C40.0995 33.6458 40.7335 33.4345 41.4098 32.9272C42.0439 32.4623 42.5089 31.786 42.5934 31.2364V31.1942C42.8047 31.2364 43.0161 31.2787 43.2697 31.2787C43.9883 31.2787 44.6646 31.0674 45.2987 30.6447C46.5668 29.7993 46.7781 28.7425 46.7781 28.0239C46.9895 28.0662 47.2431 28.1085 47.4545 28.1085C48.0885 28.1085 48.7648 27.8971 49.3566 27.5167C50.1597 27.0094 50.6247 26.2486 50.667 25.3609C50.7093 24.7691 50.5824 24.1351 50.2443 23.6278C52.3578 22.6979 57.1766 20.9648 62.8831 19.6544C62.8408 19.2317 62.7985 18.7668 62.714 18.3441C55.7817 19.9081 50.6247 22.1061 49.3566 22.6979Z" fill="black" fill-opacity="0.45"/>
<path d="M169.004 15.6911C168.454 16.4097 167.651 16.7901 166.636 16.7901C165.622 16.7901 164.819 16.4097 164.269 15.6911C163.72 14.9725 163.424 13.9157 163.424 12.5631C163.424 11.2105 163.72 10.1537 164.269 9.43512C164.819 8.71653 165.622 8.33609 166.636 8.33609C167.693 8.33609 168.454 8.71653 169.004 9.43512C169.553 10.1537 169.849 11.2105 169.849 12.5631C169.849 13.9157 169.553 14.9725 169.004 15.6911ZM171.836 7.49069C170.694 6.05351 168.961 5.33492 166.636 5.33492C164.312 5.33492 162.578 6.05351 161.437 7.49069C160.296 8.92788 159.704 10.6187 159.704 12.5631C159.704 14.5498 160.254 16.2406 161.437 17.6355C162.578 19.0304 164.312 19.749 166.636 19.749C168.961 19.749 170.694 19.0304 171.836 17.6355C172.977 16.2406 173.526 14.5498 173.526 12.5631C173.569 10.6187 172.977 8.92788 171.836 7.49069Z" fill="black" fill-opacity="0.45"/>
<path d="M140.867 14.0433C140.825 15.2268 140.487 16.03 139.853 16.4949C139.219 16.9599 138.5 17.1712 137.697 17.1712C137.19 17.1712 136.809 17.0444 136.471 16.7485C136.133 16.4949 135.964 16.03 135.964 15.4382C135.964 14.7618 136.26 14.2546 136.809 13.9164C137.147 13.7474 137.697 13.5783 138.458 13.4515L139.261 13.2824C139.641 13.1979 139.979 13.1133 140.191 13.0288C140.444 12.9442 140.656 12.8174 140.867 12.6906V14.0433ZM142.685 6.30783C141.543 5.71605 140.191 5.42016 138.711 5.42016C136.429 5.42016 134.78 6.01194 133.85 7.1955C133.258 7.95636 132.92 8.92858 132.836 10.1121H136.26C136.344 9.6049 136.513 9.1822 136.767 8.8863C137.105 8.4636 137.739 8.25225 138.585 8.25225C139.345 8.25225 139.937 8.33679 140.318 8.59041C140.698 8.80176 140.909 9.1822 140.909 9.73171C140.909 10.1967 140.656 10.5348 140.149 10.7462C139.853 10.873 139.388 10.9575 138.711 11.0421L137.485 11.1689C136.091 11.338 135.076 11.6339 134.358 12.0566C133.047 12.8174 132.413 14.001 132.413 15.6918C132.413 16.9599 132.794 17.9744 133.639 18.693C134.442 19.4116 135.457 19.7075 136.682 19.7497C144.418 20.0879 144.333 15.6495 144.418 14.7618V9.64717C144.418 7.99863 143.826 6.89961 142.685 6.30783Z" fill="black" fill-opacity="0.45"/>
<path d="M125.004 8.45018C125.892 8.45018 126.526 8.7038 126.948 9.25331C127.244 9.67601 127.413 10.0987 127.498 10.606H131.302C131.091 8.66153 130.415 7.35115 129.273 6.59029C128.132 5.82943 126.653 5.449 124.877 5.449C122.764 5.449 121.115 6.08305 119.932 7.39342C118.748 8.7038 118.156 10.4791 118.156 12.804C118.156 14.8752 118.706 16.5238 119.763 17.8341C120.862 19.1445 122.552 19.7786 124.835 19.7786C127.118 19.7786 128.851 19.0177 130.034 17.4537C130.753 16.4815 131.175 15.467 131.26 14.4103H127.456C127.371 15.1289 127.16 15.7206 126.779 16.1433C126.399 16.566 125.807 16.8197 124.919 16.8197C123.694 16.8197 122.848 16.2701 122.383 15.1289C122.13 14.5371 122.003 13.7339 122.003 12.7617C122.003 11.705 122.13 10.9018 122.383 10.2678C122.891 9.04196 123.736 8.45018 125.004 8.45018Z" fill="black" fill-opacity="0.45"/>
<path d="M117.146 5.47014C109.283 5.47014 109.748 12.4024 109.748 12.4024V19.4615H113.299V12.8251C113.299 11.7261 113.426 10.923 113.722 10.4157C114.229 9.4858 115.159 9.02083 116.596 9.02083H117.019C117.188 9.02083 117.399 9.0631 117.611 9.0631V5.42787C117.442 5.42787 117.357 5.42787 117.315 5.3856C117.272 5.47014 117.188 5.47014 117.146 5.47014Z" fill="black" fill-opacity="0.45"/>
<path d="M99.28 9.12271C99.7873 8.61547 100.464 8.36185 101.394 8.36185C102.239 8.36185 102.915 8.61547 103.507 9.08044C104.057 9.58768 104.395 10.264 104.437 11.2362H98.3501C98.4346 10.3485 98.7728 9.67222 99.28 9.12271ZM104.057 15.7591C103.887 15.9705 103.761 16.1396 103.592 16.3086C103.084 16.7313 102.408 16.8581 101.605 16.8581C100.844 16.8581 100.252 16.7313 99.7027 16.3932C98.815 15.8437 98.3078 14.9137 98.2655 13.5611H108.114C108.114 12.3775 108.072 11.4898 107.988 10.8558C107.819 9.79904 107.48 8.86909 106.931 8.06596C106.297 7.13602 105.536 6.50197 104.606 6.07927C103.676 5.65656 102.619 5.44521 101.436 5.44521C99.4491 5.44521 97.8428 6.07927 96.5747 7.3051C95.3489 8.5732 94.7148 10.3485 94.7148 12.7157C94.7148 15.2096 95.3912 17.0272 96.7861 18.1262C98.181 19.2253 99.745 19.7748 101.563 19.7748C103.761 19.7748 105.451 19.0985 106.635 17.7881C107.311 17.1118 107.692 16.3932 107.861 15.7169H104.057V15.7591Z" fill="black" fill-opacity="0.45"/>
<path d="M93.2707 19.4414H90.0159V11.241C90.0159 10.4801 89.7623 8.7048 87.6065 8.7048C86.1693 8.7048 85.1548 9.71928 85.1548 11.241V19.4414H81.9V11.241C81.9 10.4801 81.6887 8.7048 79.5329 8.7048C78.0957 8.7048 77.0812 9.71928 77.0812 11.241V19.4414H73.7842V11.3255C73.7842 7.94394 76.0245 5.40773 79.4906 5.40773C81.2237 5.40773 82.6186 6.12632 83.5486 7.30989C84.5208 6.16859 85.958 5.40773 87.6065 5.40773C91.1572 5.40773 93.2707 7.8594 93.2707 11.3255V19.4414Z" fill="black" fill-opacity="0.45"/>
<path d="M154.417 15.7384C153.91 16.4993 153.149 16.8375 152.135 16.8375C151.12 16.8375 150.402 16.457 149.894 15.6962C149.387 14.9353 149.176 13.8363 149.176 12.6104C149.176 11.4692 149.429 10.4969 149.894 9.69381C150.359 8.93295 151.12 8.51025 152.177 8.51025C152.853 8.51025 153.445 8.7216 153.952 9.1443C154.798 9.86289 155.22 11.131 155.22 12.7795C155.178 14.0054 154.925 14.9776 154.417 15.7384ZM158.687 1.15525C158.687 1.15525 155.094 0.774817 155.094 3.64918V7.45349C154.713 6.81944 154.164 6.3122 153.53 5.97404C152.896 5.59361 152.177 5.42453 151.332 5.42453C149.556 5.42453 148.119 6.10085 147.062 7.41122C146.006 8.7216 145.456 10.666 145.456 12.9486C145.456 14.9353 146.006 16.5838 147.062 17.8519C148.161 19.12 150.275 19.6696 152.135 19.6696C158.687 19.6696 158.602 14.0476 158.602 14.0476L158.687 1.15525Z" fill="black" fill-opacity="0.45"/>
<path d="M83.3157 32.4263C83.3157 31.0737 83.0621 30.0592 82.5126 29.3406C82.0054 28.622 81.2445 28.2416 80.2723 28.2416C79.3423 28.2416 78.5815 28.622 78.0742 29.3406C77.567 30.0169 77.3557 31.0314 77.3557 32.4263C77.3557 33.7367 77.6093 34.7089 78.1588 35.3852C78.666 36.1038 79.4269 36.4843 80.3991 36.4843C81.2868 36.4843 82.0054 36.1038 82.5549 35.3852C83.0621 34.6244 83.3157 33.6522 83.3157 32.4263ZM77.3557 42.0639C77.3557 42.5712 77.1443 42.9939 76.7639 43.332C76.4257 43.6279 75.9607 43.797 75.4958 43.797H73.7627V31.4119C73.7627 29.0025 74.5658 27.4807 75.9185 26.4663C76.8907 25.7477 78.3701 25.0291 81.2868 25.1559C82.8085 25.2404 84.2457 25.8745 85.2179 27.058C86.4015 28.4952 86.9087 30.1015 86.9087 32.215C86.9087 34.3708 86.4015 36.1461 85.3447 37.4988C84.2879 38.8091 82.9353 39.4432 81.329 39.4432C80.4414 39.4432 79.6805 39.2741 79.0465 38.9782C78.3279 38.64 77.7784 38.0905 77.3557 37.3719V42.0639Z" fill="black" fill-opacity="0.45"/>
<path d="M104.67 32.4268C104.67 34.794 105.346 36.1043 106.741 36.3579C108.094 36.6116 109.108 36.3157 109.785 35.3857C110.08 35.0053 110.334 34.4135 110.461 33.6104C110.588 32.8073 110.588 32.0041 110.503 31.201C110.376 30.3979 110.08 29.7215 109.658 29.0875C109.193 28.4534 108.559 28.1575 107.713 28.1575C106.53 28.1575 105.769 28.5802 105.346 29.4679C104.881 30.3556 104.67 31.3278 104.67 32.4268ZM110.503 38.3446V37.457C109.869 38.4292 109.066 39.021 108.009 39.2746C106.952 39.5282 105.938 39.4437 104.881 39.021C103.867 38.5983 102.979 37.8374 102.218 36.7384C101.5 35.5971 101.119 34.1599 101.119 32.3423C101.119 30.2288 101.626 28.4957 102.599 27.1431C103.571 25.8327 105.135 25.1986 107.291 25.1564C109.404 25.1141 110.672 25.5791 111.856 26.509C113.166 27.5235 113.969 29.0452 113.969 31.4546V38.7251C113.969 41.0499 112.363 45.3192 107.291 44.981C104.163 44.7697 102.387 43.4593 101.415 40.5427H105.177C105.473 41.0077 105.853 41.3881 106.445 41.6417C106.995 41.8953 107.586 41.9799 108.136 41.8531C108.685 41.7262 109.235 41.3881 109.7 40.8386C110.207 40.2891 110.461 39.4437 110.503 38.3446Z" fill="black" fill-opacity="0.45"/>
<path d="M96.3066 33.8638C96.2643 35.0474 95.9261 35.8505 95.2921 36.3155C94.658 36.7805 93.9394 36.9918 93.1363 36.9918C92.6291 36.9918 92.2486 36.865 91.8682 36.5691C91.53 36.3155 91.361 35.8505 91.361 35.2588C91.361 34.5824 91.6568 34.0752 92.2064 33.737C92.5445 33.568 93.094 33.3989 93.8549 33.2721L94.658 33.103C95.0807 33.0184 95.3766 32.9339 95.588 32.8494C95.8416 32.7648 96.0529 32.638 96.2643 32.5112V33.8638H96.3066ZM98.1242 26.1284C96.9829 25.5366 95.6302 25.2407 94.1508 25.2407C91.8682 25.2407 90.2619 25.8325 89.2897 27.0161C88.6979 27.777 88.3598 28.7492 88.2752 29.9327H91.6991C91.7837 29.4255 91.9527 29.0028 92.2064 28.7069C92.5445 28.2842 93.1786 28.0728 94.024 28.0728C94.7848 28.0728 95.3766 28.1574 95.757 28.411C96.1375 28.6224 96.3488 29.0028 96.3488 29.5523C96.3488 30.0173 96.0952 30.3554 95.588 30.5668C95.2921 30.6936 94.8271 30.7781 94.1508 30.8627L92.925 30.9895C91.53 31.1586 90.5156 31.4545 89.797 31.8772C88.4866 32.638 87.8525 33.8216 87.8525 35.5124C87.8525 36.7805 88.2752 37.795 89.0784 38.4713C89.8815 39.1899 90.896 39.4858 92.1218 39.528C99.8573 39.8662 99.7727 35.4278 99.8572 34.5402V29.4255C99.8572 27.8192 99.2655 26.7202 98.1242 26.1284Z" fill="black" fill-opacity="0.45"/>
<path d="M124.646 35.4557C124.097 36.1743 123.293 36.5548 122.279 36.5548C121.264 36.5548 120.461 36.1743 119.912 35.4557C119.362 34.7372 119.066 33.6804 119.066 32.3278C119.066 30.9751 119.362 29.9184 119.912 29.1998C120.461 28.4812 121.264 28.1007 122.279 28.1007C123.336 28.1007 124.097 28.4812 124.646 29.1998C125.196 29.9184 125.492 30.9751 125.492 32.3278C125.492 33.6804 125.196 34.7372 124.646 35.4557ZM127.478 27.2553C126.337 25.8182 124.604 25.0996 122.279 25.0996C119.954 25.0996 118.221 25.8182 117.08 27.2553C115.938 28.6925 115.347 30.3833 115.347 32.3278C115.347 34.3144 115.896 36.0053 117.08 37.4002C118.221 38.7951 119.954 39.5137 122.279 39.5137C124.604 39.5137 126.337 38.7951 127.478 37.4002C128.619 36.0053 129.169 34.3144 129.169 32.3278C129.211 30.3833 128.619 28.6925 127.478 27.2553Z" fill="black" fill-opacity="0.45"/>
</svg>
