<svg width="67" height="45" viewBox="0 0 67 45" fill="none" xmlns="http://www.w3.org/2000/svg">
<path d="M64.1248 20.5994C63.9437 20.5861 63.7337 20.5773 63.5216 20.5773C62.4522 20.5773 61.4291 20.7761 60.4878 21.1385L60.5453 21.1186C60.2691 21.2291 59.8272 21.2291 59.7896 21.5804C59.9421 21.7263 59.9642 21.9671 60.0923 22.1704C60.3508 22.6079 60.669 22.9791 61.0402 23.2885L61.0469 23.2951C61.4335 23.5978 61.8202 23.8917 62.2268 24.1502C62.9449 24.5921 63.7603 24.8551 64.4629 25.2992C64.8629 25.5577 65.2716 25.8869 65.6782 26.1631C65.8793 26.3001 66.0096 26.5498 66.2682 26.6382V26.583C66.1422 26.4173 66.1024 26.1764 65.9787 25.993C65.7931 25.8074 65.6097 25.6417 65.4263 25.4605C64.8783 24.7424 64.2442 24.1281 63.5327 23.6155L63.5062 23.5978C62.9162 23.1957 61.6236 22.6322 61.3805 21.9539L61.3452 21.9141C61.8269 21.8456 62.2555 21.7439 62.6687 21.607L62.6157 21.6224C63.2432 21.4567 63.8177 21.4921 64.4651 21.3308C64.7568 21.2556 65.0529 21.165 65.349 21.0722V20.9065C65.0175 20.5751 64.7701 20.1243 64.4276 19.815C63.5238 19.0195 62.5273 18.2727 61.4777 17.6009L61.3783 17.5413C60.7994 17.1723 60.0636 16.9336 59.4537 16.6199C59.2328 16.5094 58.8638 16.4542 58.7356 16.2686C58.4484 15.8598 58.1943 15.3913 57.9932 14.8964L57.9755 14.8478C57.4334 13.796 56.9296 12.7258 56.4642 11.6372C56.146 10.791 55.83 10.0971 55.4743 9.42542L55.5251 9.52927C53.7883 6.61481 51.3688 4.27263 48.4809 2.67509L48.3859 2.62648C47.7031 2.28841 46.9098 2.02546 46.0768 1.87742L46.0216 1.86858C45.5598 1.84649 45.1002 1.81334 44.6406 1.79345C44.318 1.58575 44.0396 1.37363 43.7788 1.13941L43.7855 1.14604C42.7359 0.483162 40.0203 -0.95308 39.2469 0.947178C38.7498 2.14478 39.985 3.32692 40.4114 3.93456C40.7517 4.33892 41.061 4.79188 41.3284 5.27137L41.3505 5.31556C41.4809 5.63595 41.5162 5.96518 41.6466 6.29883C41.967 7.29757 42.2918 8.11734 42.6608 8.91058L42.6033 8.77359C42.8221 9.2133 43.0497 9.58672 43.3038 9.94026L43.2861 9.91374C43.4341 10.1148 43.6882 10.2098 43.7479 10.5413C43.5579 10.9412 43.4098 11.4052 43.3281 11.8891L43.3237 11.9201C43.085 12.6536 42.9458 13.4999 42.9458 14.3771C42.9458 15.7493 43.2839 17.0419 43.8805 18.1777L43.8584 18.1335C44.1545 18.5908 44.8571 19.6073 45.7984 19.2184C46.627 18.8869 46.4436 17.8374 46.6823 16.9138C46.7375 16.6928 46.7021 16.547 46.8148 16.3967V16.4387C47.0733 16.9579 47.3341 17.4529 47.5705 17.9722C48.2378 18.9333 49.0311 19.7509 49.937 20.4248L49.9657 20.4447C50.4076 20.7761 50.759 21.3506 51.3114 21.5539V21.4987H51.2694C51.1434 21.3617 51.0042 21.2402 50.8518 21.1363L50.8429 21.1319C50.5004 20.796 50.1823 20.4337 49.895 20.0514L49.8773 20.0271C49.157 19.0549 48.472 17.9545 47.8776 16.7989L47.8136 16.6641C47.5108 16.0852 47.2567 15.4598 47.0137 14.8876C46.9032 14.6666 46.9032 14.3352 46.7176 14.2247C46.3906 14.5915 46.0967 15.0002 45.8514 15.44L45.8338 15.4753C45.5509 16.2995 45.3653 17.2518 45.3167 18.2395V18.2638C45.2416 18.2837 45.2792 18.2638 45.2416 18.3036C44.6516 18.16 44.4483 17.5479 44.2274 17.0331C43.9269 16.2244 43.7523 15.2875 43.7523 14.3131C43.7523 13.5264 43.865 12.7663 44.0771 12.0482L44.0639 12.1057C44.1942 11.719 44.7466 10.4993 44.5257 10.1281C44.4108 9.77674 44.0462 9.57567 43.8429 9.29063C43.6021 8.95035 43.3811 8.56367 43.1977 8.1549L43.18 8.11071C42.7381 7.07882 42.5172 5.93425 42.0377 4.90236C41.7482 4.36322 41.4433 3.89921 41.1008 3.46612L41.1163 3.48601C40.7517 3.06398 40.4158 2.59333 40.1242 2.09396L40.0998 2.04977C40.0093 1.8487 39.8789 1.51505 40.0247 1.29409C40.0512 1.16593 40.1529 1.0665 40.2832 1.04661C40.5263 0.847746 41.2113 1.10627 41.4499 1.21675C42.1504 1.4819 42.7536 1.79346 43.3126 2.16025L43.2773 2.13815C43.5358 2.31934 43.8164 2.67067 44.1478 2.76126H44.5345C45.1245 2.89163 45.7918 2.80103 46.3442 2.96233C47.3584 3.30482 48.2356 3.73349 49.0465 4.25937L49.0001 4.23065C51.4395 5.80609 53.3928 7.93615 54.7142 10.4529L54.7583 10.5435C54.9793 10.9677 55.0765 11.3588 55.2776 11.8007C55.6643 12.7111 56.1416 13.6325 56.5349 14.5119C56.9083 15.4576 57.3502 16.2752 57.8761 17.0287L57.8496 16.9889C58.1258 17.3756 59.235 17.5766 59.7322 17.7777C60.2558 17.9611 60.6757 18.1357 61.0822 18.3323L61.0005 18.297C61.6346 18.6836 62.2533 19.1256 62.8499 19.5498C63.1526 19.7597 64.074 20.2215 64.1293 20.5927L64.1248 20.5994ZM38.2195 36.7582C38.2195 36.7913 38.2217 36.8289 38.2217 36.8665C38.2217 38.0994 37.6715 39.202 36.8009 39.9444L36.7943 39.9489C35.8397 40.7266 34.609 41.1995 33.2678 41.1995C33.1639 41.1995 33.0601 41.1973 32.9584 41.1906H32.9717C31.3388 41.1686 29.8362 40.6382 28.6055 39.7522L28.6276 39.7677L29.2816 38.4529C30.2296 38.9833 31.3565 39.3125 32.5541 39.3589H32.5673C32.627 39.3633 32.6955 39.3655 32.7662 39.3655C33.4998 39.3655 34.1825 39.1357 34.7416 38.7446L34.7305 38.7512C35.2365 38.3668 35.5591 37.7658 35.5591 37.0896C35.5591 37.0764 35.5591 37.0653 35.5591 37.0521V37.0543C35.5591 36.1439 34.925 35.3706 33.7693 34.7209C32.6977 34.1332 30.5588 32.9069 30.5588 32.9069C29.5026 32.2528 28.811 31.1016 28.811 29.7891C28.811 29.7427 28.811 29.6963 28.8132 29.6499V29.6565C28.811 29.6145 28.811 29.5659 28.811 29.5173C28.811 28.3794 29.3126 27.3585 30.1058 26.6647L30.1102 26.6603C30.9543 25.9444 32.0569 25.5091 33.2611 25.5091C33.3385 25.5091 33.4136 25.5113 33.4887 25.5135H33.4777C33.4976 25.5135 33.5219 25.5135 33.5462 25.5135C34.9581 25.5135 36.2728 25.9356 37.3688 26.6625L37.3423 26.6471L36.7545 27.9618C35.8906 27.5729 34.883 27.3387 33.8224 27.3276H33.8179C33.7649 27.3232 33.7053 27.321 33.6434 27.321C33.0247 27.321 32.4546 27.5375 32.0083 27.8999L32.0127 27.8955C31.5951 28.2424 31.3299 28.7616 31.3277 29.3428C31.3277 30.2487 31.9729 31.0265 33.1661 31.6894C34.251 32.2837 36.443 33.5388 36.443 33.5388C37.5212 34.173 38.2349 35.3264 38.2349 36.6477C38.2349 36.6875 38.2349 36.7295 38.2327 36.7692V36.7626L38.2195 36.7582ZM42.7978 37.9315C42.1945 36.7273 41.8432 35.3087 41.8432 33.8084C41.8432 33.5719 41.8521 33.3377 41.8697 33.1079L41.8675 33.1389C41.8675 29.2927 43.0364 27.3689 45.3742 27.3674C45.4316 27.363 45.5001 27.3608 45.5708 27.3608C46.6204 27.3608 47.5418 27.9087 48.0655 28.7351L48.0721 28.7462C48.6709 29.9438 49.0222 31.3579 49.0222 32.8516C49.0222 33.0814 49.0134 33.309 48.9979 33.5344L49.0001 33.5034C49.0001 37.3806 47.8312 39.3206 45.4935 39.3235C45.4338 39.328 45.3653 39.3302 45.2968 39.3302C44.2473 39.3302 43.3237 38.7822 42.8 37.9558L42.7934 37.9447L42.7978 37.9315ZM51.8881 41.3608L49.0819 39.9798C49.3382 39.7655 49.568 39.5401 49.7801 39.297L49.7867 39.2904C50.9203 37.7613 51.6008 35.8368 51.6008 33.7553C51.6008 33.5145 51.592 33.2759 51.5743 33.0394L51.5765 33.0704C51.5765 28.0177 49.593 25.49 45.6261 25.487C45.5377 25.4826 45.4338 25.4804 45.33 25.4804C43.6352 25.4804 42.1128 26.225 41.0765 27.4072L41.0721 27.4138C39.943 28.9428 39.2646 30.8652 39.2646 32.9466C39.2646 33.1808 39.2735 33.4128 39.2911 33.6427L39.2889 33.6117C39.269 33.8349 39.258 34.0956 39.258 34.3586C39.258 36.2897 39.8634 38.0795 40.8931 39.5489L40.8732 39.5202C41.8653 40.5764 43.2728 41.2348 44.8306 41.2348C44.9764 41.2348 45.1201 41.2282 45.2615 41.2172L45.2416 41.2194C45.2615 41.2194 45.288 41.2194 45.3123 41.2194C45.9995 41.2194 46.6646 41.1199 47.2943 40.9365L47.2457 40.9498L50.9048 43.0821L51.8991 41.3652L51.8881 41.3608ZM61.0535 40.9874H53.7905V25.719H56.2344V39.1114H61.0535V40.9874ZM27.0234 29.7228C26.3893 34.3276 24.9376 38.4839 22.8141 42.2071L22.9025 42.0369C22.0518 43.6742 20.4432 44.8144 18.554 44.9978L18.5319 45C17.9596 44.9691 17.4271 44.8321 16.9432 44.6089L16.9697 44.6199V43.2566C17.2725 43.303 17.6216 43.3295 17.9773 43.3295C17.9972 43.3295 18.0171 43.3295 18.0392 43.3295C18.0745 43.3318 18.1121 43.3318 18.1519 43.3318C18.7905 43.3318 19.376 43.0997 19.8268 42.7131L19.8223 42.7153C20.3084 42.3153 20.62 41.7187 20.6377 41.047C20.5206 40.0792 20.2974 39.1954 19.977 38.3624L20.0035 38.4375L17.204 29.7228H19.7163L21.7248 36.2389C22.0828 37.1581 22.2905 38.2232 22.2905 39.3346C22.2905 39.3368 22.2905 39.339 22.2905 39.339C23.3555 36.5505 24.1642 33.298 24.5752 29.9239L24.5951 29.7206L27.0234 29.7228ZM15.9312 40.9874H13.3725C13.3003 36.9202 13.0521 32.8612 12.6279 28.8102H12.6058L8.71246 40.9874H6.7658L2.899 28.8102H2.87248C2.5705 32.8627 2.39079 36.9217 2.33334 40.9874H0C0.151726 35.5591 0.528831 30.4689 1.13132 25.7168H4.30651L7.99213 36.9394H8.01422L11.733 25.7168H14.7557C15.4245 31.2806 15.8185 36.3708 15.9379 40.9874H15.9312ZM45.2968 4.55767C45.2924 4.55767 45.2858 4.55767 45.2792 4.55767C45.0162 4.55767 44.7621 4.59081 44.5191 4.65268L44.5411 4.64826V4.68361H44.5787C44.7687 4.96644 44.9632 5.21171 45.1731 5.44151L45.1687 5.43709C45.3167 5.73318 45.4449 6.02705 45.5929 6.32093L45.6305 6.27895C45.8713 6.08892 46.0238 5.79725 46.0238 5.47023C46.0238 5.43046 46.0216 5.3929 46.0172 5.35312V5.35754C45.9067 5.22718 45.8912 5.09902 45.7962 4.97086C45.6857 4.78526 45.4493 4.69466 45.299 4.54883L45.2968 4.55767Z" fill="black" fill-opacity="0.45"/>
</svg>
