<svg width="46" height="45" viewBox="0 0 46 45" fill="none" xmlns="http://www.w3.org/2000/svg">
<g opacity="0.45" clip-path="url(#clip0_218_341)">
<path d="M26.8512 0.0881348C26.5268 0.0881348 26.2249 0.15751 25.9455 0.25126C26.538 0.64501 26.8643 1.17001 27.0255 1.76251C27.0387 1.84313 27.0612 1.90126 27.0724 1.98188C27.0863 2.05109 27.0945 2.12133 27.0968 2.19188C27.1418 3.21376 26.8287 3.34313 26.6093 3.94688C26.2718 4.72501 26.3655 5.56126 26.7705 6.23439C26.8076 6.32465 26.8541 6.41075 26.9093 6.49126C26.4687 3.55126 28.9212 3.11063 29.373 2.19188C29.4087 1.38938 28.7468 0.85501 28.2237 0.48376C27.8126 0.225439 27.3367 0.0889143 26.8512 0.0900098V0.0881348ZM30.5468 0.75001C30.5018 1.01813 30.5355 0.94876 30.5243 1.08751C30.513 1.18126 30.513 1.29751 30.5018 1.38938C30.4774 1.48313 30.4549 1.57688 30.4193 1.66876C30.3968 1.76251 30.363 1.85626 30.3255 1.94813L30.1999 2.21438C30.1624 2.26126 30.1418 2.30813 30.1062 2.35501L30.0368 2.45813C29.9815 2.5377 29.9233 2.61525 29.8624 2.69063C29.793 2.76188 29.7349 2.84251 29.6524 2.90063V2.91188C29.583 2.97001 29.5137 3.03938 29.4312 3.09938C29.1874 3.28501 28.9099 3.42376 28.653 3.59813C28.5724 3.65438 28.4899 3.70313 28.4205 3.77251C28.3417 3.82799 28.2676 3.89009 28.1993 3.95814C28.1187 4.02751 28.0605 4.09689 27.9912 4.17939C27.933 4.24876 27.8637 4.32938 27.8168 4.41188C27.7584 4.4904 27.704 4.57174 27.6537 4.65563C27.6068 4.74938 27.573 4.83001 27.5262 4.92189C27.4905 5.01564 27.4568 5.09626 27.4324 5.19001C27.4017 5.28577 27.3748 5.38272 27.3518 5.48064C27.3405 5.52751 27.3405 5.58563 27.3293 5.63063C27.3162 5.67751 27.3162 5.72438 27.3049 5.77126C27.3049 5.86501 27.2937 5.96813 27.2937 6.06188C27.2937 6.13126 27.2937 6.20063 27.3049 6.27001C27.3049 6.36376 27.3162 6.45751 27.3405 6.56064C27.3518 6.65439 27.3743 6.74813 27.3968 6.84188C27.4343 6.93376 27.4568 7.02563 27.4905 7.11938C27.5149 7.17563 27.5487 7.23563 27.573 7.28251L24.8993 6.24751C24.4474 6.12001 24.0049 6.00376 23.5512 5.89876L22.8199 5.72438C22.1224 5.58563 21.4137 5.48063 20.7049 5.41126C20.6805 5.41126 20.6693 5.40001 20.6468 5.40001C19.4492 5.28004 18.2434 5.26436 17.043 5.35314C16.3343 5.40001 15.6255 5.49188 14.9168 5.60813C14.3901 5.69889 13.8666 5.8077 13.3474 5.93438L12.8243 6.07313C12.6518 6.14251 12.4868 6.22313 12.3255 6.29438L11.9412 6.46876C11.9187 6.48001 11.8962 6.48001 11.8849 6.49126C11.7668 6.54938 11.6637 6.59626 11.5587 6.65439C11.4077 6.72098 11.26 6.79482 11.1162 6.87564C11.0355 6.90939 10.9549 6.95626 10.8837 6.99189C10.8504 7.01255 10.8159 7.03133 10.7805 7.04813C10.6755 7.10814 10.5705 7.16626 10.4768 7.22438C10.3811 7.27728 10.2885 7.33549 10.1993 7.39876C10.1168 7.45501 10.0362 7.50188 9.96679 7.56001C9.95554 7.57313 9.94241 7.57313 9.93116 7.58438C9.86179 7.63126 9.78116 7.68938 9.70991 7.74751L9.68741 7.77001L9.51304 7.90876C9.49054 7.92188 9.46616 7.94439 9.44366 7.95564C9.38554 8.00251 9.32741 8.06063 9.26929 8.10563C9.25804 8.13001 9.23366 8.14314 9.22241 8.15251C9.15304 8.22376 9.08366 8.28189 9.01429 8.35126C9.00116 8.35126 9.00116 8.36251 8.98991 8.37376C8.91765 8.43692 8.84821 8.50323 8.78179 8.57251C8.76866 8.58376 8.76866 8.59501 8.75741 8.59501C8.69638 8.65474 8.63819 8.71731 8.58304 8.78251C8.56054 8.80501 8.52679 8.82751 8.50241 8.85001C8.44015 8.92367 8.37379 8.99378 8.30366 9.06001C8.29241 9.08251 8.26991 9.09563 8.25866 9.11626C8.16491 9.21001 8.08429 9.30376 7.99054 9.39751L7.95679 9.43126C7.76929 9.63001 7.57241 9.82689 7.36241 10.0013C7.15429 10.1888 6.93304 10.3613 6.71179 10.5131C6.26756 10.8304 5.78812 11.0953 5.28304 11.3025C5.03929 11.4075 4.78241 11.5013 4.52741 11.5819C4.03991 11.6869 3.53929 11.8838 3.10991 11.9194C3.01616 11.9194 2.91304 11.9419 2.81929 11.9531L2.52866 12.0225L2.24929 12.1275C2.15554 12.1631 2.06366 12.21 1.97179 12.255C1.88929 12.3131 1.79741 12.36 1.71491 12.4181C1.63219 12.478 1.55443 12.5445 1.48241 12.6169C1.40179 12.6731 1.31929 12.7556 1.24991 12.825C1.18054 12.9056 1.11116 12.975 1.05304 13.0575C0.994914 13.1513 0.925539 13.2319 0.878664 13.3256C0.817591 13.4101 0.763057 13.4991 0.715539 13.5919C0.668664 13.6969 0.621789 13.7906 0.588039 13.8938C0.552414 13.9875 0.518664 14.0925 0.483039 14.1956C0.460539 14.2894 0.436164 14.3831 0.426789 14.4769C0.426789 14.4863 0.413664 14.4994 0.413664 14.5106C0.391164 14.6156 0.391164 14.7544 0.378039 14.8238C0.366789 14.9063 0.355539 14.9738 0.355539 15.0563C0.353382 15.2585 0.401034 15.4581 0.494289 15.6375V15.6488C0.529914 15.7181 0.576789 15.7894 0.623664 15.8588C0.668664 15.9281 0.717414 15.9975 0.773664 16.0669C0.831789 16.125 0.901164 16.1963 0.972414 16.2544C1.04016 16.3223 1.11355 16.3844 1.19179 16.44C1.47116 16.6838 1.54054 16.7644 1.90054 16.95C1.95866 16.9856 2.01679 17.0081 2.08804 17.0438C2.09929 17.0438 2.11054 17.055 2.12179 17.055C2.12179 17.0794 2.12179 17.0906 2.13304 17.1131C2.16018 17.3048 2.21055 17.4924 2.28304 17.6719C2.32054 17.7413 2.34304 17.8106 2.37679 17.88C2.38991 17.9044 2.40116 17.9269 2.41429 17.9381C2.45929 18.0319 2.50616 18.1125 2.55116 18.195L2.72554 18.4388C2.78366 18.5081 2.85491 18.5888 2.92429 18.66C2.99366 18.7294 3.06304 18.7875 3.14554 18.8569C3.14554 18.8569 3.15679 18.8681 3.16804 18.8681C3.23741 18.9263 3.30679 18.9844 3.37804 19.0313C3.45889 19.088 3.54417 19.1382 3.63304 19.1813C3.71366 19.2281 3.80741 19.275 3.89929 19.3106C3.97421 19.3444 4.05202 19.3714 4.13179 19.3913C4.14491 19.4025 4.15616 19.4025 4.17866 19.4138C4.22554 19.4269 4.28366 19.4381 4.32866 19.4494C4.29491 20.0775 4.28366 20.6681 4.37741 20.8781C4.48054 21.1106 4.99241 20.4019 5.50241 19.5881C5.43491 20.3906 5.38804 21.3319 5.50241 21.6113C5.63179 21.9019 6.32741 20.9944 6.93304 19.995C15.1737 18.09 22.6924 23.7825 23.4818 31.8263C23.3318 30.57 21.7849 29.8744 21.0762 30.0488C20.7274 30.9075 20.1349 32.0119 19.1824 32.6981C19.263 31.9294 19.2293 31.1419 19.0662 30.3731C18.8059 31.4432 18.3137 32.443 17.6243 33.3019C16.5218 33.3825 15.4174 32.8481 14.8362 32.0456C14.7893 32.0119 14.778 31.9425 14.7424 31.8956C14.7087 31.815 14.673 31.7325 14.6487 31.6519C14.6149 31.574 14.5916 31.4921 14.5793 31.4081C14.568 31.3256 14.568 31.245 14.568 31.1513V30.9769C14.5819 30.8944 14.6013 30.813 14.6262 30.7331C14.6505 30.6525 14.673 30.5719 14.7087 30.4894C14.7537 30.4088 14.7893 30.3263 14.8474 30.2456C15.0443 29.6869 15.0443 29.2331 14.6843 28.9669C14.6144 28.9212 14.5403 28.8823 14.463 28.8506C14.418 28.8394 14.3599 28.8169 14.313 28.8038L14.2193 28.77C14.1397 28.7442 14.0582 28.7248 13.9755 28.7119C13.8963 28.6887 13.8143 28.6767 13.7318 28.6763C13.6474 28.663 13.5622 28.6555 13.4768 28.6538C13.4187 28.6538 13.3605 28.665 13.3024 28.665C13.2155 28.6645 13.129 28.6765 13.0455 28.7006C12.9649 28.7119 12.8843 28.7231 12.8018 28.7456C12.7189 28.7679 12.6374 28.7954 12.558 28.8281C12.4774 28.8619 12.408 28.8975 12.3255 28.9331C12.2562 28.9669 12.1868 29.0138 12.1043 29.0494C9.39679 30.8156 11.013 34.9519 12.8599 36.15C12.1624 36.2775 11.4537 36.4275 11.2568 36.5794L11.2324 36.6019C11.733 36.9038 12.2562 37.1606 12.8018 37.3819C13.5462 37.6256 14.3355 37.845 14.6843 37.9388V37.95C15.6472 38.1477 16.6318 38.2183 17.613 38.16C22.7618 37.8 26.9805 33.8831 27.7474 28.7231L27.8168 29.025C27.8524 29.235 27.8974 29.4563 27.9218 29.6756V29.6869C27.9443 29.7919 27.9555 29.8969 27.9687 29.9906V30.0356C27.9799 30.1406 27.9912 30.2456 27.9912 30.3394C28.0024 30.4669 28.0137 30.5944 28.0137 30.7219V30.9094C28.0137 30.9656 28.0268 31.035 28.0268 31.0931C28.0268 31.1644 28.0137 31.2338 28.0137 31.3031V31.4663C28.0137 31.5469 28.0024 31.6163 28.0024 31.6988C28.0024 31.7456 28.0024 31.7925 27.9912 31.8488C27.9912 31.9313 27.9799 32.0119 27.9799 32.1056C27.9687 32.1394 27.9687 32.175 27.9687 32.2088L27.9312 32.4769C27.9312 32.5125 27.9312 32.5463 27.9218 32.5819C27.9087 32.6981 27.8862 32.8031 27.8749 32.9194V32.9419L27.8055 33.2681V33.3019L27.7362 33.615C27.7362 33.6281 27.723 33.6525 27.723 33.6619C27.7017 33.7682 27.6747 33.8734 27.6424 33.9769V34.0106C27.6068 34.1269 27.573 34.2319 27.5487 34.3369C27.5374 34.3481 27.5374 34.3594 27.5374 34.3594L27.4324 34.7081C27.3874 34.8244 27.3518 34.9294 27.3049 35.0456C27.258 35.1619 27.2243 35.2781 27.1774 35.3831C27.1305 35.4994 27.0837 35.6025 27.0387 35.7206H27.0255C26.9805 35.8238 26.9318 35.94 26.8755 36.045C26.8658 36.0728 26.8539 36.0997 26.8399 36.1256C26.8287 36.1369 26.8287 36.15 26.8174 36.1613C26.0488 37.7 24.9301 39.037 23.5512 40.065C23.4574 40.1231 23.3655 40.1944 23.2718 40.2638C23.2493 40.2863 23.2155 40.2975 23.1912 40.32C23.108 40.3814 23.023 40.4402 22.9362 40.4963L22.9699 40.5656H22.983L23.4705 40.4963H23.4818C23.7837 40.4494 24.0855 40.3913 24.3874 40.3331C24.4699 40.3219 24.5618 40.2975 24.6443 40.275L24.8074 40.2394C24.888 40.2281 24.9687 40.2056 25.0512 40.1944C25.1205 40.17 25.1899 40.1569 25.2593 40.1363C26.4218 39.855 27.5487 39.4725 28.6305 39.0206C26.7627 41.5647 24.2786 43.592 21.4118 44.9119C22.7505 44.8181 24.0855 44.5988 25.3755 44.2256C30.0447 42.8529 33.9882 39.7018 36.3574 35.4506C35.8789 38.1417 34.8116 40.6938 33.2318 42.9244C34.3581 42.1814 35.3988 41.3162 36.3349 40.3444C38.9362 37.6286 40.6439 34.1817 41.2287 30.4669C41.6224 32.3044 41.7387 34.1981 41.5662 36.0675C49.9549 24.3656 42.2618 12.2325 39.0424 9.03751C39.0312 9.01313 39.0199 9.00189 39.0199 8.97939C39.0087 8.99063 39.0087 8.99063 39.0087 9.00189C39.0087 8.99063 39.0087 8.99063 38.9955 8.97939C38.9955 9.11813 38.9843 9.25688 38.973 9.39751C38.9408 9.65782 38.9021 9.91728 38.8568 10.1756C38.8005 10.4306 38.7293 10.6875 38.6599 10.9444C38.5774 11.1881 38.4855 11.4431 38.3787 11.6869C38.2724 11.9276 38.1567 12.1641 38.0318 12.3956C37.7723 12.8512 37.473 13.2829 37.1374 13.6856C36.963 13.8938 36.7774 14.0794 36.5899 14.2669C36.4803 14.3671 36.3678 14.464 36.2524 14.5575L35.9862 14.79C35.7787 14.9538 35.5614 15.1047 35.3355 15.2419C35.1134 15.3849 34.8844 15.517 34.6493 15.6375C34.4055 15.7538 34.1618 15.8588 33.918 15.9638C33.4216 16.1526 32.9079 16.2926 32.3843 16.3819C32.1162 16.4288 31.8499 16.4513 31.593 16.4756C31.4077 16.4887 31.222 16.4963 31.0362 16.4981C30.7718 16.4945 30.5078 16.4788 30.2449 16.4513C29.9795 16.4304 29.7157 16.3916 29.4555 16.335C29.192 16.2872 28.932 16.2214 28.6774 16.1381H28.6643C28.9212 16.1138 29.1762 16.0913 29.433 16.0444C29.9563 15.9537 30.4699 15.8137 30.9668 15.6263C31.2218 15.5325 31.4655 15.4163 31.698 15.3C31.9418 15.1838 32.163 15.0563 32.3955 14.9175C32.6168 14.7675 32.8362 14.6156 33.0462 14.4525C33.2562 14.2894 33.453 14.115 33.6387 13.9294C33.8355 13.755 34.0099 13.5581 34.1843 13.3594C34.3587 13.1513 34.5218 12.9413 34.6718 12.7331C34.6962 12.6975 34.7205 12.6506 34.743 12.6169C34.8593 12.4294 34.9755 12.2438 35.0805 12.0581C35.3367 11.5956 35.5465 11.1089 35.7068 10.605C35.7893 10.3613 35.8474 10.1063 35.9055 9.84938C35.9524 9.58313 35.9993 9.32813 36.0218 9.07126C36.0443 8.80501 36.0687 8.53688 36.0687 8.28188C36.0687 8.09438 36.0555 7.90876 36.0443 7.72313C36.0211 7.46285 35.9898 7.20335 35.9505 6.94501C35.9053 6.68306 35.8478 6.42339 35.778 6.16688C35.6955 5.92313 35.6149 5.66626 35.5212 5.42251C35.4274 5.17876 35.313 4.93501 35.1968 4.70251C35.0674 4.47001 34.9399 4.23751 34.8012 4.01626C34.6527 3.79904 34.4977 3.58644 34.3362 3.37876C34.1618 3.18001 33.9874 2.98126 33.8018 2.78438C33.704 2.68463 33.6033 2.58771 33.4999 2.49376C32.9749 2.08688 32.4312 1.70438 31.8837 1.35563C31.8086 1.31226 31.7309 1.27344 31.6512 1.23938C31.3064 1.02832 30.935 0.862491 30.5468 0.75001Z" fill="black"/>
</g>
<defs>
<clipPath id="clip0_218_341">
<rect width="45" height="45" fill="white" transform="translate(0.355469)"/>
</clipPath>
</defs>
</svg>
