<svg width="75" height="45" viewBox="0 0 75 45" fill="none" xmlns="http://www.w3.org/2000/svg">
<path d="M17.9558 11.7366H32.0244V12.8548H19.2454V21.2707H31.2623V22.3889H19.2454V31.6286H32.1709V32.7468H17.9558V11.7366ZM33.2847 11.7366H34.7795L41.4034 20.9764L48.1739 11.7366L57.3829 0L42.2534 21.9475L50.0497 32.7468H48.4963L41.4034 22.9185L34.2812 32.7468H32.7571L40.6121 21.9475L33.2847 11.7366ZM50.6066 12.8548V11.7366H66.6389V12.8548H59.2529V32.7468H57.9633V12.8548H50.6066ZM0.355469 11.7366H1.96749L24.1964 45L15.0102 32.7468L1.70371 13.3256L1.64509 32.7468H0.355469V11.7366ZM66.509 31.2912C66.2455 31.2912 66.0479 31.087 66.0479 30.8232C66.0479 30.5594 66.2455 30.3552 66.509 30.3552C66.7756 30.3552 66.9701 30.5594 66.9701 30.8232C66.9701 31.087 66.7756 31.2912 66.509 31.2912ZM67.7762 30.06H68.4663C68.4757 30.4338 68.7486 30.685 69.1501 30.685C69.5986 30.685 69.8527 30.4149 69.8527 29.9093V26.7057H70.5553V29.9124C70.5553 30.8232 70.0283 31.3477 69.1563 31.3477C68.3377 31.3477 67.7762 30.8389 67.7762 30.06ZM71.4743 30.0192H72.1706C72.2302 30.4495 72.6506 30.7227 73.2559 30.7227C73.8205 30.7227 74.2346 30.4306 74.2346 30.0286C74.2346 29.6831 73.9711 29.4758 73.372 29.3345L72.7886 29.1932C71.9699 29.0016 71.5966 28.6059 71.5966 27.94C71.5966 27.1328 72.2553 26.5958 73.2434 26.5958C74.1624 26.5958 74.8337 27.1328 74.8744 27.896H74.1907C74.1248 27.4783 73.7609 27.2176 73.234 27.2176C72.6788 27.2176 72.3087 27.4846 72.3087 27.8929C72.3087 28.2164 72.5471 28.4017 73.1367 28.5399L73.6355 28.6624C74.5639 28.8791 74.9466 29.256 74.9466 29.9375C74.9466 30.8044 74.2753 31.3477 73.2026 31.3477C72.1989 31.3477 71.5245 30.8295 71.4743 30.0192Z" fill="black" fill-opacity="0.45"/>
</svg>
