<svg width="160" height="45" viewBox="0 0 160 45" fill="none" xmlns="http://www.w3.org/2000/svg">
<path d="M146.592 15.9713C146.204 15.9713 145.827 16.0514 145.493 16.2404L134.927 22.3417C134.244 22.7358 133.828 23.4797 133.828 24.2712V36.4518C133.828 37.2427 134.244 37.9857 134.927 38.3807L137.687 39.9735C139.027 40.6341 139.521 40.6239 140.131 40.6239C142.116 40.6239 143.249 39.4195 143.249 37.3266V25.3029C143.249 25.133 143.102 25.0114 142.936 25.0114H141.612C141.442 25.0114 141.298 25.133 141.298 25.3029V37.3266C141.298 38.2541 140.332 39.1872 138.763 38.4031L135.892 36.7208C135.79 36.6656 135.712 36.568 135.712 36.4518V24.2709C135.712 24.1556 135.789 24.038 135.892 23.9794L146.435 17.9009C146.482 17.873 146.537 17.8584 146.592 17.8584C146.647 17.8584 146.701 17.873 146.749 17.9009L157.292 23.9797C157.392 24.0402 157.471 24.1521 157.471 24.2715V36.4521C157.471 36.5684 157.413 36.6875 157.314 36.7436L146.749 42.8224C146.658 42.8764 146.534 42.8764 146.435 42.8224L143.721 41.2075C143.679 41.1851 143.633 41.1733 143.586 41.1733C143.539 41.1733 143.493 41.1851 143.452 41.2075C142.702 41.6321 142.561 41.6814 141.859 41.9252C141.686 41.9857 141.423 42.0795 141.948 42.3741L145.493 44.4599C145.827 44.6527 146.206 44.7534 146.592 44.7517C146.978 44.7541 147.357 44.6535 147.691 44.4602L158.256 38.381C158.94 37.9835 159.355 37.243 159.355 36.4521V24.2712C159.355 23.48 158.94 22.7373 158.256 22.3423L147.691 16.241C147.36 16.0518 146.98 15.9716 146.592 15.9716L146.592 15.9713Z" fill="black" fill-opacity="0.4"/>
<path d="M149.418 24.675C146.409 24.675 144.618 25.9555 144.618 28.0849C144.618 30.3945 146.396 31.0292 149.284 31.3148C152.738 31.6531 153.007 32.1603 153.007 32.8403C153.007 34.0197 152.067 34.5226 149.844 34.5226C147.052 34.5226 146.438 33.8255 146.233 32.4365C146.209 32.2875 146.094 32.1672 145.941 32.1672H144.573C144.404 32.1672 144.259 32.3125 144.259 32.4814C144.259 34.2595 145.226 36.362 149.844 36.362C153.188 36.362 155.116 35.0498 155.116 32.7505C155.116 30.4715 153.558 29.8595 150.315 29.4308C147.039 28.9971 146.726 28.7848 146.726 28.0175C146.726 27.384 146.991 26.5366 149.418 26.5366C151.586 26.5366 152.387 27.0043 152.716 28.4662C152.744 28.6033 152.865 28.7128 153.007 28.7128H154.376C154.46 28.7128 154.542 28.661 154.6 28.6005C154.657 28.536 154.698 28.4634 154.69 28.3764C154.478 25.8591 152.799 24.675 149.418 24.675Z" fill="black" fill-opacity="0.4"/>
<path d="M84.4783 0.000144833C84.3602 0.00022317 84.2441 0.0310614 84.1416 0.0896226C84.0396 0.149255 83.955 0.234409 83.896 0.336694C83.8371 0.43898 83.8057 0.554869 83.8052 0.672943V17.8334C83.8052 18.0017 83.7269 18.1526 83.581 18.2371C83.5095 18.2787 83.4282 18.3007 83.3455 18.3007C83.2627 18.3007 83.1814 18.2787 83.1099 18.2371L80.3059 16.6221C80.1013 16.5038 79.8692 16.4415 79.6329 16.4415C79.3966 16.4415 79.1645 16.5038 78.96 16.6221L67.7665 23.0823C67.3481 23.3239 67.0937 23.7881 67.0937 24.2714V37.192C67.0937 37.6747 67.3484 38.1168 67.7665 38.3584L78.96 44.8189C79.1644 44.9375 79.3966 45 79.6329 45C79.8693 45 80.1014 44.9375 80.3059 44.8189L91.4993 38.3584C91.7043 38.2404 91.8744 38.0705 91.9926 37.8657C92.1108 37.6609 92.1728 37.4285 92.1724 37.192V4.98004C92.1721 4.73804 92.1076 4.50046 91.9855 4.29156C91.8633 4.08265 91.6879 3.9099 91.4772 3.79095L84.8147 0.0671752C84.7102 0.00887438 84.5943 -0.00141401 84.4783 0.000144833ZM12.472 16.1286C12.2588 16.137 12.058 16.1744 11.8666 16.2854L0.672804 22.7459C0.467757 22.8637 0.297517 23.0336 0.179357 23.2385C0.061196 23.4433 -0.0006803 23.6758 5.64161e-06 23.9122L0.022453 41.2525C0.022453 41.4935 0.146849 41.7177 0.358852 41.8355C0.460492 41.8966 0.576832 41.9289 0.695407 41.9289C0.813982 41.9289 0.930323 41.8966 1.03196 41.8355L7.67171 38.0223C8.09229 37.7722 8.36696 37.3376 8.36696 36.8556V28.7577C8.36696 28.2745 8.62105 27.8312 9.04007 27.5911L11.8663 25.9537C12.0706 25.8349 12.303 25.7729 12.5394 25.7741C12.7701 25.7741 13.007 25.8318 13.2122 25.9537L16.0387 27.5911C16.2439 27.7088 16.4143 27.8787 16.5325 28.0837C16.6508 28.2886 16.7126 28.5212 16.7118 28.7577V36.8553C16.7118 37.3373 16.9893 37.7751 17.407 38.022L24.0468 41.8355C24.1484 41.8966 24.2648 41.9289 24.3833 41.9289C24.5019 41.9289 24.6182 41.8966 24.7199 41.8355C24.8222 41.7763 24.9071 41.6913 24.9662 41.5889C25.0253 41.4865 25.0565 41.3704 25.0566 41.2522L25.0784 23.9122C25.0798 23.6756 25.0181 23.4429 24.8999 23.238C24.7817 23.033 24.6111 22.8632 24.4056 22.7459L13.2122 16.2854C13.0229 16.1744 12.8215 16.1373 12.6067 16.1286H12.472ZM113.056 16.2854C112.822 16.2854 112.593 16.3447 112.384 16.465L101.19 22.9255C100.985 23.0434 100.815 23.2133 100.697 23.4181C100.578 23.6229 100.516 23.8553 100.517 24.0918V37.0125C100.517 37.4985 100.791 37.9387 101.212 38.1791L112.316 44.5049C112.726 44.7387 113.227 44.7565 113.64 44.5267L120.369 40.7808C120.583 40.6623 120.727 40.441 120.728 40.1978C120.729 40.0794 120.699 39.9628 120.639 39.8602C120.58 39.7577 120.495 39.6728 120.392 39.6145L109.131 33.154C108.92 33.0337 108.772 32.7902 108.772 32.5482V28.5108C108.772 28.2692 108.922 28.0478 109.131 27.9275L112.63 25.9085C112.732 25.8493 112.848 25.8181 112.967 25.8181C113.085 25.8181 113.201 25.8493 113.303 25.9085L116.802 27.9275C116.905 27.9864 116.99 28.0713 117.049 28.1737C117.108 28.2761 117.139 28.3923 117.139 28.5105V31.6959C117.139 31.8141 117.17 31.9303 117.229 32.0327C117.288 32.135 117.373 32.22 117.475 32.2789C117.685 32.4002 117.939 32.4005 118.148 32.2789L124.856 28.3765C125.06 28.2581 125.23 28.088 125.348 27.8832C125.466 27.6784 125.529 27.4462 125.529 27.2098V24.0921C125.529 23.6104 125.273 23.1674 124.856 22.9255L113.729 16.465C113.525 16.3467 113.293 16.2845 113.056 16.2854ZM79.5879 25.9312C79.6465 25.9312 79.7151 25.9456 79.7674 25.9758L83.6035 28.1966C83.7076 28.2567 83.783 28.368 83.783 28.4881V32.9295C83.783 33.0502 83.7082 33.1612 83.6035 33.2214L79.7674 35.4421C79.7162 35.4713 79.6582 35.4867 79.5993 35.4867C79.5403 35.4867 79.4823 35.4713 79.431 35.4421L75.5953 33.2214C75.4909 33.1609 75.4158 33.0502 75.4158 32.9295V28.4881C75.4158 28.3677 75.4912 28.2574 75.5953 28.1966L79.431 25.9761C79.4782 25.9468 79.5326 25.9314 79.5882 25.9316L79.5879 25.9312Z" fill="black" fill-opacity="0.4"/>
<path d="M46.0975 16.2181C45.8643 16.2181 45.6336 16.2774 45.4247 16.3977L34.2312 22.8358C33.8125 23.0768 33.5581 23.5419 33.5581 24.0245V36.9452C33.5581 37.4284 33.8128 37.8699 34.2312 38.1118L45.4247 44.572C45.6291 44.6907 45.8612 44.7533 46.0976 44.7533C46.334 44.7533 46.5662 44.6907 46.7706 44.572L57.964 38.1118C58.169 37.9938 58.3391 37.8238 58.4572 37.6189C58.5754 37.4141 58.6373 37.1817 58.6368 36.9452V24.0245C58.6368 23.5413 58.3824 23.0768 57.964 22.8358L46.7706 16.3977C46.566 16.2796 46.3337 16.2176 46.0975 16.2181ZM113.034 27.7483C112.989 27.7483 112.94 27.7483 112.9 27.7708L110.746 29.0269C110.706 29.0492 110.673 29.0817 110.649 29.1211C110.625 29.1605 110.612 29.2054 110.612 29.2513V31.7187C110.612 31.8116 110.665 31.8967 110.746 31.9432L112.9 33.1768C112.98 33.2236 113.066 33.2236 113.146 33.1768L115.3 31.9429C115.34 31.9204 115.373 31.8879 115.397 31.8486C115.42 31.8093 115.433 31.7645 115.434 31.7187V29.251C115.433 29.2052 115.42 29.1604 115.397 29.1211C115.373 29.0818 115.34 29.0493 115.3 29.0269L113.146 27.7704C113.106 27.7471 113.079 27.7483 113.034 27.7483Z" fill="black" fill-opacity="0.4"/>
</svg>
