<svg width="44" height="45" viewBox="0 0 44 45" fill="none" xmlns="http://www.w3.org/2000/svg">
<path d="M31.6357 0C29.8849 0.0154688 28.1496 0.264375 26.4649 0.75375L26.3482 0.791719C25.2921 0.6075 24.2163 0.50625 23.1476 0.48375C20.9355 0.445781 19.0371 0.980156 17.5071 1.87453C15.9982 1.35562 12.8707 0.445781 9.57445 0.63C7.28367 0.75375 4.77773 1.44984 2.91586 3.41297C1.07086 5.36906 0.0907035 8.40094 0.29461 12.5325C0.352266 13.6673 0.675703 15.5194 1.21711 17.9283C1.75148 20.3316 2.50664 23.1441 3.45164 25.7147C4.39664 28.2783 5.42742 30.5845 7.04039 32.1511C7.84477 32.9344 8.95852 33.6023 10.2691 33.5447C11.186 33.5067 12.0129 33.1045 12.7315 32.5111C13.0816 32.9723 13.4571 33.1692 13.7932 33.3534C14.2263 33.5883 14.6355 33.7486 15.0687 33.8527C15.8449 34.0495 17.171 34.3069 18.7235 34.0425C19.2509 33.9539 19.8077 33.7795 20.3646 33.5377C20.3871 34.1522 20.4096 34.7597 20.4307 35.3756C20.5109 37.3162 20.5643 39.1106 21.1409 40.6856C21.2365 40.943 21.4938 42.2606 22.5035 43.432C23.5216 44.6034 25.4974 45.3291 27.7615 44.8453C29.352 44.5078 31.3798 43.8933 32.7284 41.9752C34.0615 40.0852 34.662 37.3683 34.7801 32.9583C34.8082 32.7164 34.8462 32.5195 34.8813 32.3283L35.1963 32.3578H35.2343C36.933 32.4309 38.7795 32.1891 40.3249 31.4705C41.6862 30.8405 42.7198 30.2034 43.4735 29.0686C43.6577 28.7887 43.8687 28.4456 43.9221 27.8592C43.9798 27.2813 43.6423 26.3644 43.0854 25.9411C41.973 25.0917 41.2699 25.4137 40.5148 25.5755C39.7765 25.7372 39.0199 25.823 38.2662 25.8455C40.4332 22.1991 41.9857 18.3178 42.873 14.888C43.4004 12.8588 43.6943 10.9913 43.7154 9.35859C43.7449 7.72594 43.6071 6.28312 42.6312 5.03156C39.5698 1.12781 35.2695 0.0421875 31.9451 0.00703125C31.8424 0.00703125 31.7412 0.00703125 31.6371 0.00703125L31.6357 0ZM31.5471 1.20234C34.6901 1.17281 38.7091 2.05172 41.5948 5.74172C42.2473 6.57 42.4385 7.77797 42.416 9.27281C42.3935 10.7677 42.1165 12.5466 41.6102 14.5027C40.6371 18.2981 38.7823 22.7053 36.1835 26.6695C36.2721 26.7356 36.3734 26.7933 36.476 26.8312C37.0174 27.0577 38.2549 27.2475 40.7299 26.7427C41.3529 26.6091 41.8085 26.5233 42.2838 26.8819C42.5187 27.0787 42.6424 27.3727 42.627 27.6806C42.5988 27.907 42.5187 28.1264 42.378 28.3106C41.9013 29.0264 40.9591 29.7098 39.7498 30.2738C38.681 30.7702 37.1412 31.0275 35.7884 31.043C35.1007 31.05 34.4707 30.998 33.9335 30.8292L33.9054 30.8236C33.6987 32.8078 33.2248 36.7341 32.9154 38.52C32.6679 39.9614 32.2348 41.1131 31.4079 41.9695C30.5796 42.8344 29.4152 43.3462 27.8402 43.6838C25.8926 44.1014 24.4779 43.6542 23.5638 42.885C22.6498 42.1158 22.2307 41.0906 21.9818 40.4677C21.8074 40.0359 21.7188 39.4791 21.6316 38.7309C21.543 37.9842 21.4854 37.0758 21.4404 36.0436C21.3827 34.4686 21.3602 32.8936 21.3827 31.3116C20.5713 32.0597 19.5602 32.5491 18.4746 32.7403C17.1795 32.9597 16.0291 32.7403 15.3415 32.5716C15.004 32.483 14.6735 32.3592 14.367 32.1905C14.0449 32.0217 13.744 31.8319 13.5401 31.4494C13.422 31.23 13.3868 30.9755 13.4374 30.7336C13.4951 30.4847 13.6413 30.2723 13.841 30.1106C14.2137 29.8083 14.7059 29.6423 15.4441 29.4877C16.7927 29.2078 17.268 29.0194 17.5535 28.7902C17.7954 28.6003 18.0752 28.2052 18.5562 27.6258C18.5562 27.6047 18.5562 27.5752 18.5491 27.5527C17.6787 27.5245 16.8279 27.2981 16.0587 26.8791C15.7816 27.1716 14.3374 28.6959 12.588 30.8053C11.8554 31.6828 11.0426 32.1891 10.1791 32.227C9.32273 32.2622 8.54367 31.8319 7.88555 31.1934C6.56789 29.9109 5.5118 27.7059 4.59633 25.2155C3.68086 22.725 2.94117 19.9505 2.4068 17.5922C1.87945 15.2255 1.56445 13.3214 1.51945 12.4059C1.32258 8.50219 2.23805 5.87391 3.80461 4.21031C5.37117 2.54672 7.51852 1.92516 9.61383 1.80141C13.3713 1.58906 16.9446 2.89969 17.6632 3.17812C19.054 2.23312 20.8484 1.64813 23.0899 1.68328C24.153 1.69875 25.2063 1.83656 26.2399 2.09391L26.2779 2.07141C26.7321 1.91813 27.1934 1.77891 27.6616 1.67766C28.9371 1.37531 30.2393 1.22203 31.5429 1.20094L31.5471 1.20234ZM31.8326 2.45391H31.5555C30.4868 2.46656 29.4082 2.59313 28.362 2.81953C30.6977 3.85313 32.4626 5.44078 33.7071 7.03828C34.572 8.13656 35.2821 9.34453 35.8235 10.6341C36.0373 11.1333 36.1765 11.5495 36.2496 11.8716C36.2932 12.0333 36.3157 12.1711 36.3298 12.3103C36.3298 12.3834 36.3368 12.458 36.3002 12.5817C36.3002 12.5887 36.2932 12.6042 36.2932 12.6113C36.3537 14.2523 35.943 15.3633 35.8896 16.9312C35.8545 18.0675 36.147 19.4006 36.2201 20.8575C36.2862 22.2258 36.1188 23.7277 35.2315 25.207C35.3046 25.2956 35.3707 25.3828 35.4438 25.4784C37.7951 21.7716 39.4938 17.678 40.3952 14.1834C40.879 12.3005 41.1335 10.5947 41.156 9.24891C41.1785 7.90031 40.9296 6.91875 40.6062 6.50953C38.0862 3.29344 34.6816 2.47219 31.8312 2.4525L31.8326 2.45391ZM22.8452 2.93625C20.6346 2.94328 19.0441 3.61125 17.8376 4.61391C16.5902 5.65453 15.7563 7.06781 15.2149 8.52469C14.5624 10.2459 14.336 11.9152 14.2474 13.0514L14.277 13.0359C14.9449 12.6633 15.8224 12.2822 16.7674 12.0698C17.7054 11.8491 18.7235 11.783 19.6376 12.143C20.5615 12.4931 21.3152 13.3355 21.5937 14.6025C22.9141 20.7113 21.1845 22.9823 20.5474 24.6952C20.3055 25.3181 20.0932 25.9481 19.9245 26.5922C20.0046 26.5767 20.0862 26.5542 20.1663 26.5472C20.6205 26.512 20.9707 26.6583 21.1774 26.7455C21.8229 27.0155 22.2616 27.5723 22.5035 28.2094C22.5612 28.3781 22.6048 28.5525 22.6343 28.7438C22.6568 28.8169 22.6723 28.897 22.6723 28.9786C22.5991 31.3144 22.6048 33.6516 22.6934 35.9873C22.7384 36.9984 22.8045 37.8844 22.8846 38.5875C22.9648 39.2836 23.0745 39.818 23.149 40.0008C23.3895 40.6012 23.741 41.3845 24.3795 41.9189C25.0095 42.4547 25.9165 42.8063 27.5801 42.4547C29.0215 42.1397 29.9088 41.7136 30.5009 41.0991C31.0957 40.4761 31.4459 39.6197 31.6723 38.3091C32.0168 36.3389 32.6974 30.6253 32.779 29.5566C32.7438 28.7423 32.8591 28.1208 33.1235 27.6441C33.3865 27.1603 33.7971 26.8608 34.1571 26.6991C34.3315 26.6189 34.5002 26.5683 34.6395 26.5233C34.4932 26.3194 34.3399 26.1141 34.1852 25.9158C33.6734 25.2928 33.2473 24.5981 32.9323 23.8584C32.786 23.5491 32.6243 23.2411 32.4485 22.9486C32.201 22.5028 31.886 21.9375 31.5555 21.3005C30.896 20.0405 30.1788 18.5034 29.8048 17.0086C29.4321 15.5138 29.3815 13.9697 30.3335 12.8855C31.1759 11.918 32.6623 11.5172 34.8799 11.7436C34.8138 11.5453 34.7787 11.3766 34.6676 11.1206C34.1627 9.93375 33.5032 8.82 32.7115 7.80891C30.8285 5.4 27.7741 3.01078 23.066 2.93063L22.8452 2.93625ZM10.3957 3.03187C10.1609 3.03187 9.91898 3.03891 9.68555 3.05437C7.78852 3.16547 6.00117 3.7125 4.71867 5.06813C3.43758 6.43078 2.59664 8.64984 2.77805 12.3342C2.81602 13.0373 3.11555 14.985 3.63445 17.3067C4.15617 19.6298 4.89445 22.3622 5.7818 24.7781C6.66633 27.187 7.73789 29.2894 8.76305 30.285C9.27492 30.7758 9.7207 30.9811 10.1243 30.967C10.5279 30.9445 11.0187 30.7097 11.6191 29.9925C12.7104 28.6748 13.8396 27.3994 15.011 26.1548C13.3249 24.6825 12.498 22.4578 12.8285 20.2444C13.0184 18.8606 13.0479 17.5627 13.0184 16.5375C12.9973 15.5419 12.9298 14.8837 12.9298 14.4661C12.9298 14.4506 12.9298 14.4436 12.9298 14.4281V14.4211L12.9227 14.4084C12.9227 12.247 13.3052 10.1095 14.0365 8.08031C14.5638 6.67969 15.3415 5.26781 16.5115 4.11609C15.3626 3.735 13.3179 3.16547 11.1073 3.05437C10.8724 3.03891 10.6291 3.03187 10.3957 3.03187ZM33.641 12.9333C32.3684 12.9558 31.6568 13.2862 31.2771 13.7095C30.7484 14.3184 30.6977 15.3872 31.0282 16.7062C31.3559 18.0239 32.0393 19.4963 32.6763 20.7211C32.9913 21.3356 33.2993 21.8855 33.5468 22.3312C33.8041 22.7855 33.987 23.1005 34.0966 23.3789C34.1993 23.6278 34.3174 23.8472 34.4341 24.0525C34.9249 23.0119 35.0135 21.9937 34.9615 20.925C34.8954 19.6073 34.5888 18.2587 34.6395 16.8975C34.6915 15.3 35.0065 14.2594 35.029 13.0289C34.5734 12.9713 34.1051 12.9333 33.6438 12.9333H33.641ZM18.2032 13.1555C17.8151 13.1555 17.427 13.2061 17.0459 13.2947C16.2907 13.4789 15.5665 13.7559 14.8845 14.137C14.658 14.2608 14.4387 14.4014 14.2334 14.5631L14.1884 14.5983C14.2038 14.8781 14.2545 15.5363 14.277 16.5178C14.2995 17.5866 14.277 18.9478 14.073 20.4216C13.6188 23.6292 15.9476 26.2814 18.6799 26.2884C18.8416 25.6289 19.1032 24.9609 19.3676 24.2592C20.1284 22.2075 21.6232 20.7141 20.3632 14.8697C20.1593 13.9177 19.7487 13.5295 19.1834 13.3102C18.8684 13.1991 18.5407 13.1484 18.2032 13.1569V13.1555ZM33.049 13.5352H33.1446C33.2613 13.5422 33.3795 13.5506 33.4807 13.5788C33.5763 13.6013 33.6649 13.6308 33.738 13.6814C33.8112 13.725 33.8618 13.7981 33.8773 13.8853V13.9008C33.8773 13.9894 33.8548 14.0766 33.8112 14.1581C33.7535 14.2594 33.6874 14.355 33.6073 14.4352C33.416 14.6475 33.1587 14.7881 32.8816 14.8303C32.6102 14.8683 32.3402 14.7952 32.1124 14.6405C32.0238 14.573 31.9366 14.4998 31.8705 14.4197C31.8045 14.3536 31.7679 14.2664 31.7524 14.1778C31.7468 14.092 31.7679 14.0034 31.8255 13.9373C31.893 13.8698 31.9662 13.8122 32.0463 13.7686C32.2277 13.6659 32.4696 13.5928 32.7495 13.5548C32.8507 13.5422 32.9534 13.5338 33.049 13.5267V13.5352ZM18.3846 13.8502C18.4802 13.8502 18.5913 13.8572 18.694 13.8713C18.9865 13.9163 19.2354 13.9894 19.4323 14.1061C19.5279 14.1511 19.6165 14.2242 19.6812 14.3044C19.7543 14.393 19.7895 14.5013 19.7838 14.6194C19.7613 14.7277 19.7163 14.8317 19.6432 14.9119C19.563 15.0075 19.4759 15.0877 19.3732 15.1538C19.1313 15.3295 18.8318 15.4027 18.5309 15.3661C18.2285 15.3155 17.9515 15.1692 17.7476 14.9428C17.659 14.8472 17.5859 14.7445 17.5268 14.6348C17.4607 14.5322 17.4326 14.4155 17.4466 14.2973C17.4762 14.1005 17.6449 13.9894 17.8066 13.9317C17.9909 13.8712 18.1877 13.8516 18.3846 13.8586V13.8502ZM35.3707 27.6187H35.3637C35.0937 27.7214 34.8673 27.7594 34.676 27.848C34.4791 27.9211 34.323 28.0673 34.2302 28.2487C34.1051 28.4625 34.0109 28.8436 34.039 29.4933C34.1191 29.5537 34.2148 29.5959 34.3188 29.6269C34.6338 29.7225 35.1752 29.7886 35.7757 29.7802C36.9696 29.7647 38.442 29.4877 39.2252 29.1206C39.8623 28.8281 40.4627 28.433 40.9901 27.9717C38.3759 28.5061 36.9049 28.3669 35.9951 27.9942C35.7757 27.8986 35.562 27.7734 35.3707 27.6187ZM20.3126 27.7945H20.2746C20.1734 27.8016 20.0327 27.8395 19.7473 28.1475C19.0948 28.8788 18.8684 29.34 18.334 29.7661C17.7926 30.1978 17.0965 30.4256 15.6973 30.7111C15.2585 30.7997 15.0012 30.9009 14.8324 30.9811C14.883 31.0261 14.883 31.0416 14.9632 31.0767C15.1699 31.1948 15.4315 31.2905 15.6452 31.3481C16.2457 31.4944 17.2259 31.6702 18.2595 31.4944C19.2846 31.3186 20.3534 30.8264 21.2702 29.5467C21.432 29.3273 21.4446 28.9969 21.3138 28.6453C21.183 28.3022 20.8962 27.9942 20.6993 27.9141C20.5741 27.8536 20.442 27.8184 20.3112 27.7959L20.3126 27.7945Z" fill="black" fill-opacity="0.45"/>
</svg>
