<svg width="46" height="45" viewBox="0 0 46 45" fill="none" xmlns="http://www.w3.org/2000/svg">
<g clip-path="url(#clip0_218_414)">
<path d="M1.16994 19.2557C1.06274 20.0071 0.992988 20.7633 0.960938 21.5216H35.1416C35.0222 21.2884 34.8618 21.0782 34.7001 20.8724C28.8567 13.323 25.7134 13.9776 21.2169 13.7858C19.7177 13.7241 18.701 13.6993 12.7338 13.6993C9.53999 13.6993 6.06782 13.7075 2.68667 13.7165C2.24897 14.8979 1.82684 16.043 1.6213 16.9746H19.1366V19.2557H1.16994ZM35.411 23.805H0.978472C1.01451 24.4137 1.07128 25.0142 1.15329 25.6067H32.9429C34.36 25.6067 35.1533 24.8027 35.411 23.805ZM2.93922 31.8299C2.93922 31.8299 8.20932 44.7702 23.4372 45C32.5388 45 40.3593 39.5945 43.9116 31.8299H2.93922Z" fill="black" fill-opacity="0.45"/>
<path d="M23.4369 0C15.0213 0 7.69819 4.62129 3.83096 11.4527C6.85312 11.4463 12.7388 11.4427 12.7388 11.4427H12.7402V11.4405C19.6971 11.4405 19.9557 11.4716 21.3147 11.5283L22.1562 11.5593C25.0874 11.6571 28.6902 11.9717 31.5249 14.1165C33.0637 15.2798 35.2854 17.8473 36.6098 19.6765C37.8341 21.3683 38.1863 23.3132 37.3539 25.1766C36.5877 26.8891 34.939 27.9106 32.9425 27.9106H1.69434C1.69434 27.9106 1.88036 28.6992 2.15928 29.5696H44.814C45.5715 27.2928 45.9587 24.9091 45.9609 22.5096C45.9613 10.0791 35.8768 0 23.4369 0Z" fill="black" fill-opacity="0.45"/>
</g>
<defs>
<clipPath id="clip0_218_414">
<rect width="45" height="45" fill="white" transform="translate(0.960938)"/>
</clipPath>
</defs>
</svg>
