<svg width="45" height="45" viewBox="0 0 45 45" fill="none" xmlns="http://www.w3.org/2000/svg">
<g opacity="0.4">
<path d="M36.0932 15.8836C35.6437 15.7301 35.1911 15.5871 34.7352 15.4547C34.8108 15.147 34.8806 14.8377 34.9444 14.5265C35.9728 9.52556 35.3004 5.49666 33.0056 4.17039C30.8083 2.89773 27.2048 4.224 23.5696 7.3951C23.2122 7.70799 22.8621 8.03025 22.5193 8.36189C22.2908 8.14158 22.0564 7.92596 21.8162 7.71502C18.0062 4.3242 14.1873 2.89598 11.8951 4.22664C9.69785 5.50193 9.04482 9.28914 9.97031 14.0291C10.0629 14.4978 10.1669 14.9645 10.2823 15.4292C9.7418 15.583 9.21973 15.7473 8.72051 15.9214C4.25918 17.4814 1.40625 19.9274 1.40625 22.4639C1.40625 25.0848 4.46836 27.7128 9.12041 29.3062C9.49775 29.4346 9.87861 29.5538 10.263 29.6639C10.1382 30.1614 10.0277 30.6644 9.93164 31.173C9.05273 35.8312 9.73828 39.5288 11.9312 40.7962C14.1961 42.1049 17.9956 40.7601 21.6993 37.517C21.9923 37.2603 22.2853 36.9893 22.5782 36.704C22.9485 37.062 23.3294 37.4095 23.7208 37.7464C27.3067 40.8384 30.8479 42.0873 33.0372 40.8164C35.3004 39.5033 36.036 35.5306 35.0807 30.6975C35.0074 30.3284 34.923 29.9516 34.8275 29.5673C35.0947 29.4882 35.3563 29.4064 35.6124 29.3221C40.4464 27.7163 43.5955 25.12 43.5955 22.4666C43.5937 19.9178 40.6494 17.4559 36.0932 15.8836ZM24.7553 8.7574C27.8692 6.0407 30.7802 4.96844 32.1073 5.73484C33.5197 6.55135 34.069 9.84373 33.1813 14.1618C33.1228 14.443 33.0595 14.7234 32.9915 15.0029C31.1332 14.5802 29.2487 14.2819 27.3507 14.1099C26.2639 12.5445 25.0727 11.0543 23.785 9.64949C24.1002 9.34363 24.423 9.04627 24.7535 8.7574H24.7553ZM13.863 24.6313C14.2444 25.3696 14.6432 26.0988 15.0592 26.8189C15.4828 27.5537 15.9243 28.2776 16.3837 28.9907C15.0777 28.8487 13.7799 28.6395 12.4954 28.364C12.8681 27.1582 13.3269 25.9057 13.863 24.6313ZM13.863 20.3836C13.3356 19.1364 12.8892 17.9095 12.5227 16.7247C13.7268 16.4549 15.01 16.2343 16.3477 16.0673C15.8994 16.7669 15.4682 17.4767 15.0539 18.1969C14.6396 18.917 14.2418 19.6459 13.8604 20.3836H13.863ZM14.821 22.5079C15.3765 21.3495 15.9747 20.2134 16.6157 19.0995C17.2562 17.9862 17.9379 16.8984 18.6609 15.8361C19.916 15.7412 21.2027 15.6911 22.5026 15.6911C23.8025 15.6911 25.0972 15.7412 26.3514 15.837C27.0668 16.897 27.7444 17.9809 28.3843 19.0889C29.0241 20.197 29.6303 21.3278 30.2027 22.4815C29.6379 23.644 29.0332 24.7848 28.3887 25.904C27.7494 27.0173 27.0756 28.1083 26.3672 29.177C25.1147 29.2649 23.8184 29.3133 22.5 29.3133C21.1816 29.3133 19.9099 29.272 18.6803 29.192C17.952 28.1262 17.2646 27.0337 16.6184 25.9145C15.9721 24.7954 15.3721 23.6598 14.8184 22.5079H14.821ZM29.9487 26.8066C30.3735 26.0695 30.7813 25.3227 31.1722 24.5663C31.7079 25.781 32.1808 27.0225 32.589 28.2858C31.2894 28.5785 29.9754 28.8029 28.6523 28.9582C29.0988 28.2498 29.531 27.5326 29.9487 26.8066ZM31.1546 20.3845C30.7655 19.6432 30.3609 18.9108 29.9408 18.1872C29.5307 17.4735 29.1032 16.7686 28.6585 16.0725C30.0041 16.243 31.2952 16.4698 32.5055 16.7467C32.1163 17.9811 31.6655 19.1952 31.1546 20.3845ZM22.5202 10.9406C23.3978 11.8996 24.2265 12.9022 25.0031 13.9447C23.342 13.8656 21.6797 13.8656 20.0162 13.9447C20.8362 12.8601 21.6756 11.8538 22.5202 10.9406ZM12.8021 5.78846C14.2137 4.96932 17.3347 6.14002 20.6244 9.06414C20.8345 9.25135 21.0463 9.44734 21.2572 9.65037C19.9629 11.055 18.7632 12.5439 17.666 14.1073C15.7722 14.2779 13.8915 14.5715 12.0357 14.9862C11.9285 14.555 11.8318 14.1208 11.7457 13.6837C10.9503 9.62049 11.4768 6.5575 12.8021 5.78846ZM10.7446 27.9237C10.3931 27.8235 10.0459 27.7148 9.70312 27.5976C7.64648 26.8945 5.94756 25.9769 4.78125 24.9776C3.73711 24.082 3.20801 23.1882 3.20801 22.4639C3.20801 20.925 5.49844 18.9615 9.31816 17.63C9.79805 17.463 10.282 17.3103 10.7701 17.172C11.3374 18.9952 12.0244 20.7788 12.8268 22.5114C12.0149 24.2679 11.3193 26.0759 10.7446 27.9237ZM20.5119 36.1564C18.8745 37.5908 17.2345 38.6077 15.7887 39.1201C14.4896 39.5798 13.4552 39.5929 12.8303 39.2317C11.4996 38.4627 10.9459 35.4929 11.7009 31.5096C11.7905 31.0409 11.8931 30.5721 12.0085 30.1034C13.8828 30.5071 15.7824 30.7829 17.6941 30.9287C18.802 32.5003 20.0117 33.9976 21.3152 35.4111C21.0533 35.6686 20.7853 35.9165 20.5119 36.1564ZM22.5703 34.1156C21.716 33.1919 20.8635 32.1697 20.032 31.0711C20.84 31.1027 21.6627 31.1185 22.5 31.1185C23.3596 31.1185 24.2104 31.1001 25.0488 31.0623C24.2751 32.1215 23.4478 33.1406 22.5703 34.1156ZM33.5145 36.6284C33.2631 37.9854 32.7577 38.8907 32.1328 39.2528C30.803 40.0245 27.9598 39.0217 24.8941 36.377C24.5426 36.0747 24.191 35.7504 23.8333 35.4102C25.1115 33.9912 26.2928 32.4878 27.3691 30.9102C29.2915 30.7474 31.2003 30.4522 33.082 30.0269C33.1682 30.375 33.2443 30.716 33.3105 31.05C33.7333 33.1857 33.7939 35.1176 33.5145 36.6284ZM35.0437 27.6073C34.8135 27.6838 34.5762 27.7576 34.3354 27.8297C33.7453 25.998 33.0314 24.2085 32.1987 22.4736C33.0002 20.7619 33.6861 18.9983 34.2519 17.1949C34.6834 17.3206 35.1026 17.4524 35.5061 17.5922C39.4102 18.9387 41.792 20.932 41.792 22.4639C41.792 24.0987 39.2194 26.2204 35.0437 27.6073Z" fill="black"/>
<path d="M22.4999 26.2397C23.2479 26.2422 23.9798 26.0226 24.6029 25.6088C25.226 25.195 25.7124 24.6056 26.0003 23.9153C26.2882 23.2249 26.3648 22.4646 26.2204 21.7307C26.076 20.9968 25.717 20.3222 25.1889 19.7924C24.6609 19.2627 23.9875 18.9015 23.2541 18.7547C22.5206 18.6079 21.7601 18.682 21.0688 18.9677C20.3775 19.2533 19.7865 19.7377 19.3707 20.3595C18.9549 20.9813 18.7329 21.7124 18.7329 22.4604C18.7319 22.956 18.8285 23.4469 19.0173 23.9051C19.2061 24.3633 19.4833 24.7798 19.8332 25.1308C20.183 25.4818 20.5986 25.7603 21.0562 25.9506C21.5138 26.1409 22.0043 26.2392 22.4999 26.2397Z" fill="black"/>
</g>
</svg>
