<svg width="45" height="45" viewBox="0 0 45 45" fill="none" xmlns="http://www.w3.org/2000/svg">
<g clip-path="url(#clip0_218_244)">
<path d="M28.8544 44.9606L42.3844 42.0337C42.3844 42.0337 37.5019 9 37.4625 8.79C37.4362 8.59125 37.2694 8.4375 37.0669 8.43C36.8794 8.43 33.45 8.175 33.45 8.175C33.45 8.175 31.0594 5.78625 30.7519 5.52937C30.6881 5.47125 30.6131 5.42438 30.5306 5.3925L30.525 5.39062L28.8112 44.9531H28.8544V44.9606ZM22.0537 21.1969C21.0825 20.7169 19.9425 20.4262 18.735 20.4019H18.7275C16.0144 20.4019 15.915 22.1006 15.915 22.5413C15.915 24.8512 21.99 25.7569 21.99 31.2206C21.99 35.5331 19.29 38.2706 15.6037 38.2706C15.5287 38.2725 15.4425 38.2744 15.3544 38.2744C12.84 38.2744 10.5731 37.2188 8.97 35.5275L8.96625 35.5238L10.1775 31.6125C11.34 32.6325 12.7969 33.3431 14.4037 33.6056L14.4525 33.6113C14.4694 33.6113 14.49 33.6131 14.5106 33.6131C15.48 33.6131 16.2675 32.8331 16.2806 31.8656V31.8637C16.2806 28.8281 11.3044 28.6875 11.3044 23.6906C11.2331 19.5 14.2425 15.4106 20.3475 15.4106C20.4637 15.405 20.5987 15.4012 20.7337 15.4012C21.8681 15.4012 22.9444 15.6544 23.9081 16.1081L23.8631 16.0894L22.0912 21.1894L22.0537 21.2081V21.1969ZM21.0412 1.55625C21.3244 1.55813 21.585 1.65188 21.795 1.81125L21.7912 1.80937C19.9556 2.68125 17.9306 4.875 17.0981 9.29437C15.8681 9.69375 14.6737 10.0538 13.5562 10.3781C14.535 7.03125 16.8806 1.575 21.0412 1.575V1.55625ZM23.3475 7.08563V7.33875C21.9337 7.77375 20.3794 8.24625 18.8587 8.71875C19.26 6.30563 20.7244 4.29938 22.7456 3.16875L22.785 3.14812C23.1562 4.20563 23.3719 5.42625 23.3719 6.69563C23.3719 6.8325 23.37 6.96938 23.3644 7.10437V7.08563H23.3475ZM24.3581 2.89687C25.6594 3.03562 26.4975 4.5225 27.0375 6.1875C26.3831 6.40125 25.6594 6.62063 24.8662 6.87375V6.40125C24.8681 6.32812 24.87 6.24188 24.87 6.15375C24.87 4.98938 24.6825 3.86625 24.3375 2.81813L24.3581 2.89313V2.89687ZM29.9681 5.31375C29.9306 5.31375 29.8556 5.35313 29.8219 5.35313C29.7881 5.35313 29.28 5.49375 28.4831 5.74688C27.69 3.435 26.2781 1.30313 23.7806 1.30313H23.565C23.0325 0.555 22.1887 0.05625 21.2269 0H21.2194C15.3956 0 12.6131 7.26938 11.7413 10.9613C9.5025 11.6456 7.87312 12.1538 7.69125 12.225C6.42562 12.6244 6.39 12.66 6.24375 13.8562C6.10312 14.7225 2.8125 40.2244 2.8125 40.2244L28.2394 45L29.9775 5.31375H29.9681Z" fill="black" fill-opacity="0.45"/>
</g>
<defs>
<clipPath id="clip0_218_244">
<rect width="45" height="45" fill="white"/>
</clipPath>
</defs>
</svg>
