<svg width="175" height="45" viewBox="0 0 175 45" fill="none" xmlns="http://www.w3.org/2000/svg">
<path fill-rule="evenodd" clip-rule="evenodd" d="M37.7123 6.96802H12.3179V19.7006H24.8131C25.2583 19.7006 25.6194 20.0617 25.6194 20.5069V32.8297H38.5186V7.77578C38.519 7.56168 38.4342 7.35622 38.2829 7.2047C38.1317 7.05317 37.9264 6.96802 37.7123 6.96802Z" fill="black" fill-opacity="0.45"/>
<path opacity="0.405" fill-rule="evenodd" clip-rule="evenodd" d="M12.3162 6.96802V19.7006H0.403178C0.239476 19.7003 0.0921412 19.6012 0.0301207 19.4497C-0.0318998 19.2982 0.0036626 19.1243 0.120166 19.0093L12.3162 6.96802ZM26.3061 44.8842C26.1902 44.9982 26.0172 45.0314 25.8672 44.9687C25.7173 44.9059 25.6195 44.7594 25.6192 44.5968V32.8297H38.5184L26.3061 44.8828V44.8842Z" fill="black" fill-opacity="0.45"/>
<path opacity="0.405" fill-rule="evenodd" clip-rule="evenodd" d="M12.3164 19.7006H25.217C25.4381 19.7006 25.6194 19.8804 25.6194 20.103V32.8297H13.1242C12.6789 32.8297 12.3179 32.4687 12.3179 32.0234V19.7006H12.3164Z" fill="black" fill-opacity="0.45"/>
<path fill-rule="evenodd" clip-rule="evenodd" d="M168.593 6.16468C169.314 6.87811 170.165 7.23334 171.146 7.23334C172.159 7.23334 173.026 6.87811 173.747 6.16468C174.467 5.45125 174.827 4.61106 174.827 3.63968C174.827 2.66978 174.467 1.82074 173.747 1.09258C173.069 0.382764 172.127 -0.0129993 171.146 0.000325942C170.165 0.000325942 169.314 0.364409 168.593 1.0911C167.873 1.82074 167.513 2.6683 167.513 3.64116C167.513 4.61106 167.873 5.45125 168.593 6.16468ZM90.3818 15.4687C90.3818 15.5424 90.3199 15.6043 90.2447 15.6043H85.1815V25.0675C85.1815 25.8561 85.3819 26.4325 85.7799 26.7965C86.1779 27.1606 86.7616 27.364 87.5281 27.4097C88.2297 27.4525 89.0847 27.4495 90.0944 27.4024L90.2374 27.395C90.2746 27.393 90.311 27.4064 90.3381 27.432C90.3651 27.4577 90.3804 27.4933 90.3803 27.5306V32.588C90.3807 32.6575 90.3286 32.716 90.2595 32.7236L90.1666 32.7339C86.2015 33.151 83.3964 32.7634 81.7544 31.5724C80.0828 30.3593 79.2485 28.191 79.2485 25.0675V15.6043H75.3807C75.3058 15.6043 75.2451 15.5436 75.2451 15.4687V10.0988C75.2451 10.0251 75.3055 9.96323 75.3807 9.96323H79.2471V6.2089C79.2471 6.09982 79.3119 6.00254 79.4107 5.95832L84.9913 3.53061C85.0333 3.51155 85.0822 3.51516 85.1209 3.54021C85.1597 3.56525 85.183 3.60828 85.1829 3.65442V9.96323H90.2447C90.3184 9.96323 90.3803 10.0237 90.3803 10.0988V15.4687H90.3818ZM101.142 13.8768C101.693 12.4204 102.606 11.3282 103.878 10.6C105.133 9.88549 106.552 9.5096 107.996 9.50923C108.072 9.50923 108.133 9.56967 108.133 9.64632V15.8151C108.133 15.8775 108.107 15.937 108.061 15.9788C108.014 16.0207 107.952 16.041 107.89 16.0347C106.179 15.8814 104.641 16.2543 103.279 17.152C101.854 18.091 101.142 19.6534 101.142 21.8379V32.5747C101.142 32.6109 101.128 32.6456 101.102 32.6711C101.076 32.6966 101.041 32.7107 101.005 32.7103H95.3419C95.267 32.7103 95.2063 32.6496 95.2063 32.5747V10.0974C95.2063 10.0237 95.2667 9.96176 95.3419 9.96176H101.005C101.079 9.96176 101.141 10.0222 101.141 10.0974V13.8738L101.142 13.8768ZM129.202 9.96323C129.165 9.96284 129.131 9.97695 129.105 10.0024C129.079 10.0279 129.065 10.0626 129.065 10.0988V12.6489C127.287 10.4334 124.787 9.32645 121.566 9.32645C118.5 9.32645 115.869 10.4865 113.677 12.8066C111.484 15.1267 110.387 17.9701 110.387 21.3368C110.387 24.7034 111.484 27.5468 113.677 29.8669C115.869 32.187 118.5 33.3471 121.566 33.3471C124.787 33.3471 127.285 32.2401 129.065 30.0261V32.5747C129.065 32.6484 129.126 32.7103 129.202 32.7103H134.863C134.938 32.7103 135 32.6499 135 32.5747V10.0974C135 10.0611 134.986 10.0264 134.96 10.0009C134.934 9.97548 134.9 9.96136 134.863 9.96176H129.202V9.96323ZM118.117 25.977C119.312 27.1606 120.829 27.7517 122.672 27.7517C124.511 27.7517 126.037 27.1518 127.249 25.9534C128.46 24.7565 129.065 23.2176 129.065 21.3368C129.065 19.4559 128.46 17.917 127.249 16.7187C126.037 15.5218 124.511 14.9218 122.67 14.9218C120.831 14.9218 119.312 15.5218 118.116 16.7201C116.922 17.917 116.322 19.4559 116.322 21.3368C116.322 23.2176 116.92 24.7639 118.117 25.977ZM161.379 12.8066C159.186 10.4865 156.54 9.32645 153.443 9.32645C150.223 9.32645 147.739 10.4334 145.991 12.6474V10.0988C145.991 10.0239 145.93 9.96323 145.855 9.96323H140.192C140.117 9.96323 140.056 10.0239 140.056 10.0988V41.6724C140.056 41.7475 140.117 41.8094 140.192 41.8094H145.855C145.929 41.8094 145.991 41.7475 145.991 41.6724V30.0261C147.739 32.2401 150.223 33.3471 153.443 33.3471C156.54 33.3471 159.186 32.187 161.379 29.8669C163.571 27.5468 164.668 24.7034 164.668 21.3368C164.668 17.9701 163.571 15.1267 161.379 12.8066ZM147.785 25.977C148.981 27.1606 150.498 27.7517 152.339 27.7517C154.179 27.7517 155.704 27.1518 156.916 25.9534C158.128 24.7565 158.734 23.2176 158.734 21.3368C158.734 19.4559 158.128 17.917 156.916 16.7187C155.704 15.5218 154.179 14.9218 152.339 14.9218C150.498 14.9218 148.981 15.5218 147.785 16.7201C146.589 17.917 145.991 19.4559 145.991 21.3368C145.991 23.2176 146.589 24.7639 147.785 25.977ZM168.338 32.7103C168.263 32.7103 168.203 32.6496 168.203 32.5747V10.0974C168.203 10.0237 168.263 9.96176 168.338 9.96176H174.002C174.077 9.96176 174.137 10.0222 174.137 10.0974V32.5762C174.137 32.6511 174.076 32.7118 174.002 32.7118H168.338V32.7103ZM62.5258 17.9023C61.7121 17.5235 61.3068 17.0297 61.3068 16.4239C61.3068 15.8475 61.5588 15.392 62.0659 15.0589C62.5715 14.7258 63.2082 14.5578 63.9747 14.5578C65.4443 14.5578 66.5543 15.1252 67.306 16.2588C67.3578 16.3382 67.4589 16.3692 67.5463 16.3325L72.555 14.1406C72.59 14.1249 72.6168 14.0951 72.6286 14.0586C72.6404 14.022 72.6361 13.9822 72.6169 13.949C72.5592 13.8529 72.5003 13.7575 72.44 13.663C71.5836 12.329 70.4737 11.3341 69.0807 10.5779C67.5478 9.7436 65.8453 9.32645 63.9747 9.32645C61.4895 9.32645 59.4126 9.9706 57.7396 11.2604C56.0696 12.5487 55.2338 14.316 55.2338 16.5595C55.2338 18.0468 55.6406 19.282 56.4528 20.2681C57.2377 21.2335 58.2603 21.9782 59.42 22.429C60.5845 22.883 61.7504 23.2633 62.9164 23.5655C64.0809 23.8691 65.0714 24.2111 65.8836 24.5899C66.6958 24.9688 67.1026 25.4611 67.1026 26.0684C67.1026 27.3729 66.0443 28.0244 63.929 28.0244C61.9141 28.0244 60.5182 27.2874 59.7413 25.8163C59.6766 25.6876 59.523 25.6315 59.3905 25.6881L54.3965 27.877C54.3629 27.8918 54.3367 27.9196 54.3239 27.954C54.3111 27.9885 54.3129 28.0266 54.3287 28.0598L54.3848 28.1733C56.13 31.6225 59.3109 33.3471 63.929 33.3471C66.5661 33.3471 68.7668 32.7177 70.5297 31.4603C72.2941 30.2001 73.1756 28.4032 73.1756 26.0684C73.1756 24.5207 72.7687 23.2324 71.9566 22.2005C71.1908 21.2049 70.1636 20.4414 68.9893 19.9954C67.8465 19.5626 66.679 19.1979 65.493 18.9032C64.327 18.6143 63.338 18.2811 62.5258 17.9008V17.9023Z" fill="black" fill-opacity="0.45"/>
</svg>
