<svg width="109" height="45" viewBox="0 0 109 45" fill="none" xmlns="http://www.w3.org/2000/svg">
<path d="M8.12943 17.6335C8.12943 16.462 9.09071 16.0113 10.6828 16.0113C12.9659 16.0113 15.8497 16.7023 18.1328 17.9339V10.8745C15.6394 9.88318 13.1762 9.49266 10.6828 9.49266C4.5847 9.49266 0.529297 12.6769 0.529297 17.994C0.529297 26.285 11.9445 24.9633 11.9445 28.5381C11.9445 29.9199 10.7429 30.3705 9.06067 30.3705C6.56735 30.3705 3.3831 29.3491 0.859737 27.9673V35.1168C3.65346 36.3184 6.47723 36.8291 9.06067 36.8291C15.309 36.8291 19.6047 33.735 19.6047 28.3578C19.5747 19.4059 8.12943 20.998 8.12943 17.6335ZM28.4365 3.48465L21.1067 5.04673L21.0767 29.1088C21.0767 33.5547 24.4111 36.8291 28.8571 36.8291C31.3204 36.8291 33.1228 36.3785 34.1141 35.8378V29.7397C33.1528 30.1302 28.4065 31.512 28.4065 27.0661V16.4019H34.1141V10.0033H28.4065L28.4365 3.48465ZM43.4565 12.2263L42.9759 10.0033H36.4872V36.2884H43.9973V18.4746C45.7696 16.1615 48.7736 16.5821 49.7049 16.9126V10.0033C48.7436 9.64286 45.2289 8.98198 43.4565 12.2263ZM51.5373 10.0033H59.0774V36.2884H51.5373V10.0033ZM51.5373 7.72029L59.0774 6.09813V0L51.5373 1.59212V7.72029ZM74.7583 9.49266C71.8143 9.49266 69.9218 10.8745 68.8704 11.8358L68.4799 9.9733H61.8711V45L69.3811 43.4079L69.4111 34.9065C70.4926 35.6876 72.0847 36.7991 74.7282 36.7991C80.1054 36.7991 85.0019 32.4733 85.0019 22.9506C84.9719 14.239 80.0153 9.49266 74.7583 9.49266ZM72.9559 30.1903C71.1835 30.1903 70.1321 29.5594 69.4111 28.7784L69.3811 17.6335C70.1621 16.7624 71.2436 16.1615 72.9559 16.1615C75.6895 16.1615 77.582 19.2256 77.582 23.1609C77.582 27.1862 75.7196 30.1903 72.9559 30.1903ZM108.673 23.251C108.673 15.5607 104.949 9.49266 97.829 9.49266C90.6795 9.49266 86.3537 15.5607 86.3537 23.1909C86.3537 32.233 91.4605 36.7991 98.7903 36.7991C102.365 36.7991 105.069 35.988 107.111 34.8465V28.8385C105.069 29.8598 102.726 30.4907 99.7516 30.4907C96.8377 30.4907 94.2543 29.4693 93.9238 25.9246H108.613C108.613 25.534 108.673 23.972 108.673 23.251ZM93.8337 20.3972C93.8337 17.0027 95.9065 15.5908 97.799 15.5908C99.6314 15.5908 101.584 17.0027 101.584 20.3972H93.8337Z" fill="black" fill-opacity="0.45"/>
</svg>
