<svg width="45" height="45" viewBox="0 0 45 45" fill="none" xmlns="http://www.w3.org/2000/svg">
<g clip-path="url(#clip0_216_100)">
<path d="M41.1633 30.6417C41.2683 30.4317 41.2683 30.2217 41.3733 30.0134C43.8933 20.1417 37.9067 8.59171 27.6167 2.50171C30.87 6.57838 32.8367 11.805 32.8367 17.4934C32.8367 19.2134 32.6567 20.89 32.315 22.5084L32.3433 22.35C32.1983 23 32.0183 23.5634 31.7933 24.1034L31.8183 24.035C31.485 23.85 31.21 23.6767 30.945 23.49L30.9767 23.51C23.0483 18.2617 16.1417 12.5517 9.89167 6.19504L9.87334 6.17671C13.9367 12.18 18.1483 17.4267 22.7433 22.3067L22.6833 22.2417C15.815 17.8417 9.84667 13.2784 4.28501 8.27338L4.41167 8.38504C5.20167 9.69171 6.03167 10.8234 6.95167 11.8734L6.92834 11.845C12.4283 19.2167 18.5783 25.6317 25.4267 31.2217L25.6217 31.375C20.2667 34.6334 12.81 34.8417 5.24834 31.375C3.24334 30.425 1.52167 29.375 -0.0766602 28.17L6.51181e-06 28.225C3.37001 33.47 8.13334 37.56 13.7683 40.0234L13.9683 40.1017C16.79 41.5 20.1133 42.32 23.6283 42.32C27.1433 42.32 30.4667 41.5017 33.4183 40.045L33.2883 40.1034H33.395C33.6383 39.995 33.8467 39.8534 34.025 39.6834H34.0233C36.5433 38.4234 41.48 37.0617 44.21 42.305C44.9433 43.775 46.3083 36.95 41.165 30.6484L41.1633 30.6417Z" fill="black" fill-opacity="0.45"/>
</g>
<defs>
<clipPath id="clip0_216_100">
<rect width="45" height="45" fill="white"/>
</clipPath>
</defs>
</svg>
