<svg width="46" height="45" viewBox="0 0 46 45" fill="none" xmlns="http://www.w3.org/2000/svg">
<g clip-path="url(#clip0_218_164)">
<path d="M0.946289 22.5V45H23.4463H45.9463V22.5V0H23.4463H0.946289V22.5Z" fill="black" fill-opacity="0.45"/>
<path d="M10.8974 22.6493L10.8831 24.4922L13.8117 24.4922H16.7402V32.8136V41.135H18.8117H20.8831V32.8136V24.4922H23.8117H26.7402V22.685C26.7402 21.685 26.7188 20.8493 26.6902 20.8279C26.6688 20.7993 23.1045 20.785 18.7831 20.7922L10.9188 20.8136L10.8974 22.6493Z" fill="white"/>
<path d="M37.2565 20.7612C38.3993 21.0469 39.2707 21.5541 40.0707 22.3826C40.485 22.8255 41.0993 23.6326 41.1493 23.8255C41.1636 23.8826 39.2065 25.1969 38.0207 25.9326C37.9779 25.9612 37.8065 25.7755 37.6136 25.4898C37.035 24.6469 36.4279 24.2826 35.4993 24.2183C34.135 24.1255 33.2565 24.8398 33.2636 26.0326C33.2636 26.3826 33.3136 26.5898 33.4565 26.8755C33.7565 27.4969 34.3136 27.8683 36.0636 28.6255C39.285 30.0112 40.6636 30.9255 41.5207 32.2255C42.4779 33.6755 42.6922 35.9898 42.0422 37.7112C41.3279 39.5826 39.5565 40.8541 37.0636 41.2755C36.2922 41.4112 34.4636 41.3898 33.635 41.2398C31.8279 40.9183 30.1136 40.0255 29.0565 38.8541C28.6422 38.3969 27.835 37.2041 27.885 37.1183C27.9065 37.0898 28.0922 36.9755 28.2993 36.8541C28.4993 36.7398 29.2565 36.3041 29.9707 35.8898L31.2636 35.1398L31.535 35.5398C31.9136 36.1183 32.7422 36.9112 33.2422 37.1755C34.6779 37.9326 36.6493 37.8255 37.6207 36.9541C38.035 36.5755 38.2065 36.1826 38.2065 35.6041C38.2065 35.0826 38.1422 34.8541 37.8707 34.4612C37.5207 33.9612 36.8065 33.5398 34.7779 32.6612C32.4565 31.6612 31.4565 31.0398 30.5422 30.0541C30.0136 29.4826 29.5136 28.5683 29.3065 27.8041C29.135 27.1683 29.0922 25.5755 29.2279 24.9326C29.7065 22.6898 31.3993 21.1255 33.8422 20.6612C34.635 20.5112 36.4779 20.5683 37.2565 20.7612Z" fill="white"/>
</g>
<defs>
<clipPath id="clip0_218_164">
<rect width="45" height="45" fill="white" transform="translate(0.946289)"/>
</clipPath>
</defs>
</svg>
