<svg width="200" height="39" viewBox="0 0 200 39" fill="none" xmlns="http://www.w3.org/2000/svg">
<path d="M100.13 9.62219C92.3672 9.62219 86.7703 13.9522 86.7703 20.4471C86.7703 26.9421 93.0703 31.2721 100.833 31.2721C105.523 31.2721 109.657 29.6844 112.216 27.0083L106.838 24.3501C105.417 25.6792 103.259 26.455 100.833 26.455C97.4649 26.455 94.6031 24.9515 93.5414 22.546H113.243C113.398 21.8724 113.489 21.1748 113.489 20.4411C113.489 13.9522 107.892 9.62219 100.13 9.62219ZM93.4781 18.3423C94.357 15.9428 96.7617 14.4333 100.123 14.4333C103.491 14.4333 105.895 15.9428 106.767 18.3423H93.4781ZM175.842 9.62219C168.08 9.62219 162.483 13.9522 162.483 20.4471C162.483 26.9421 168.783 31.2721 176.545 31.2721C181.235 31.2721 185.37 29.6844 187.929 27.0083L182.55 24.3501C181.13 25.6792 178.971 26.455 176.545 26.455C173.177 26.455 170.316 24.9515 169.254 22.546H188.955C189.11 21.8724 189.202 21.1748 189.202 20.4411C189.202 13.9522 183.605 9.62219 175.842 9.62219ZM169.198 18.3423C170.077 15.9428 172.481 14.4333 175.842 14.4333C179.21 14.4333 181.615 15.9428 182.487 18.3423H169.198ZM141.755 20.4471C141.755 24.0555 144.511 26.461 148.786 26.461C151.683 26.461 153.855 25.3364 154.973 23.5022L160.373 26.1663C158.138 29.3537 153.947 31.2721 148.786 31.2721C141.016 31.2721 135.427 26.9421 135.427 20.4471C135.427 13.9522 141.023 9.62219 148.786 9.62219C153.947 9.62219 158.13 11.5406 160.373 14.728L154.973 17.3921C153.855 15.5579 151.683 14.4333 148.786 14.4333C144.518 14.4333 141.755 16.8388 141.755 20.4471ZM199.748 3.00693V30.6707H193.42V3.00693H199.748ZM26.9414 0L52.9219 38.4887H0.960938L26.9414 0ZM91.8961 3.00693L72.4125 31.8735L52.9289 3.00693H60.2344L72.4125 21.0485L84.5906 3.00693H91.8961ZM133.317 10.2236V16.051C132.614 15.8766 131.869 15.7563 131.067 15.7563C126.982 15.7563 124.036 18.1619 124.036 21.7702V30.6707H117.708V10.2236H124.036V15.7563C124.036 12.7013 128.191 10.2236 133.317 10.2236Z" fill="black" fill-opacity="0.45"/>
</svg>
